<svg width="286" height="41" viewBox="0 0 286 41" fill="none" xmlns="http://www.w3.org/2000/svg">
<mask id="mask0_0_1" style="mask-type:luminance" maskUnits="userSpaceOnUse" x="70" y="0" width="34" height="41">
<path d="M70.7739 0H103.633V40.3584H70.7739V0Z" fill="white"/>
</mask>
<g mask="url(#mask0_0_1)">
<path d="M101.441 29.3197C105.277 22.1564 100.212 12.7123 91.1282 14.6919L97.1462 1.09595H88.0378L70.9663 39.3463H80.3709L80.8103 38.2602C88.566 42.6392 97.3141 37.0112 101.441 29.3197ZM94.4556 25.2567C94.2434 27.8584 90.3778 34.2762 84.4685 31.2401C84.0834 31.0377 84.197 30.4897 84.3401 30.1688C85.2139 28.1497 87.3368 23.356 88.0575 21.7565C90.1162 20.4581 94.8012 21.1295 94.4556 25.2567Z" fill="white"/>
</g>
<mask id="mask1_0_1" style="mask-type:luminance" maskUnits="userSpaceOnUse" x="107" y="0" width="179" height="41">
<path d="M107.425 0H285.624V40.3584H107.425V0Z" fill="white"/>
</mask>
<g mask="url(#mask1_0_1)">
<path d="M281.956 13.8082L285.258 6.52644H261.014L263.062 1.91052H257.918C257.568 1.91052 257.242 2.08331 257.059 2.38445C254.778 6.24504 249.437 6.71403 247.581 6.68935C247.181 6.68935 246.233 6.67948 246.233 6.67948L243.236 13.7539H248.203L240.639 31.1315C240.639 31.1315 221.776 31.1512 221.692 31.1512C219.939 31.1512 219.1 30.5391 219.026 29.3987C218.908 27.6214 219.49 25.6714 220.813 23.8201C223.445 20.1422 227.937 20.1422 229.956 20.6704C232.148 21.2381 232.736 24.6347 230.277 24.6347H223.563C222.758 25.2912 221.653 27.8386 221.88 29.1963H230.929C237.07 29.1963 238.581 24.8025 238.507 22.6649C238.053 9.95258 212.06 12.8456 212.09 31.1512H207.992C206.24 31.1512 205.791 29.8578 206.393 28.5644C206.995 27.266 218.315 1.54026 218.315 1.54026H208.935L202.182 16.1927C197.097 12.263 180.662 16.4149 180.396 31.166H176.328C174.654 31.166 174.289 29.8924 174.847 28.5644C175.4 27.2314 181.057 14.6327 181.057 14.6327H171.465L170.621 16.405C163.586 11.7989 149.185 17.812 148.454 30.702C148.454 30.702 124.002 30.7267 123.978 30.7267C119.352 30.7267 116.059 27.2314 118.118 24.136C129.142 7.58291 159.157 5.22806 143.009 13.5565H156.442C161.414 6.62024 158.713 -0.217244 147.235 0.360362C127.271 1.36253 107.415 16.8937 107.583 28.4311C107.671 34.296 114.884 39.3217 121.899 39.3217H148.711L150.093 36.1967C154.774 42.0813 162.06 40.4324 164.825 36.4139C165.748 38.3787 168.636 39.7166 170.009 39.7166H180.554L182.069 36.1572C186.591 42.1258 193.666 40.4324 196.386 36.4386C197.714 38.6453 200.074 39.6475 201.194 39.6475L212.771 39.6524L214.114 36.5324C216.489 39.5389 219.465 39.7363 219.979 39.7166H240.245L241.429 37.0063C242.012 38.0776 244.436 39.7166 247.181 39.7166C249.926 39.7166 270.828 39.7166 270.828 39.7166L274.471 31.166H252.666C251.071 31.166 250.755 30.0059 251.298 28.5644C251.836 27.1179 257.879 13.8082 257.879 13.8082H281.956ZM168.355 23.0302C167.476 25.0444 165.353 29.843 164.632 31.4376C162.579 32.736 157.894 32.0645 158.234 27.9374C158.447 25.3357 162.317 18.9178 168.226 21.954C168.606 22.1613 168.493 22.7044 168.355 23.0302ZM199.723 23.0302C198.849 25.0444 196.727 29.843 196.006 31.4376C193.947 32.736 189.262 32.0645 189.608 27.9374C189.82 25.3357 193.685 18.9178 199.6 21.954C199.98 22.1613 199.866 22.7044 199.723 23.0302Z" fill="white"/>
</g>
<mask id="mask2_0_1" style="mask-type:luminance" maskUnits="userSpaceOnUse" x="0" y="0" width="76" height="41">
<path d="M0 0H75.8294V40.3584H0V0Z" fill="white"/>
</mask>
<g mask="url(#mask2_0_1)">
<path d="M35.8069 13.5565H49.2152C53.3671 8.31857 52.9327 -0.612112 40.0081 0.360439C18.3553 1.98959 0.187795 16.8938 0.355646 28.4311C0.439571 34.2961 7.65719 39.3217 14.6724 39.3217H44.1994L45.4238 36.4584C46.263 37.7123 47.7194 39.0897 50.1434 39.3217H58.3138C58.3138 39.3217 59.3258 37.1594 59.7356 36.3399C60.4169 37.3174 62.0904 39.3217 64.8156 39.3217H68.997L72.8527 30.7317H69.9301C68.9378 30.7317 68.5577 29.7048 69.0365 28.6484C69.7672 27.039 75.3853 14.7216 75.3853 14.7216H65.6894C65.6894 14.7216 58.61 30.4305 58.5014 30.7317H55.8503C54.784 30.7317 54.1866 29.8628 54.705 28.6385C55.3369 27.1574 61.0142 14.7216 61.0142 14.7216H51.2986L44.6043 29.7394C44.5993 29.7739 44.3821 30.164 44.2735 30.7317C44.2735 30.7317 16.7804 30.7317 16.7508 30.7317C12.125 30.7317 9.06418 27.3747 10.8908 24.1361C19.8215 8.31857 51.8959 4.64065 35.8069 13.5565Z" fill="white"/>
</g>
</svg>
