<?xml version="1.0" encoding="utf-8"?>
<!-- Generator: Adobe Illustrator 27.5.0, SVG Export Plug-In . SVG Version: 6.00 Build 0)  -->
<svg version="1.1" id="Layer_1" xmlns="http://www.w3.org/2000/svg" xmlns:xlink="http://www.w3.org/1999/xlink" x="0px" y="0px"
	 viewBox="0 0 396 288" style="enable-background:new 0 0 396 288;" xml:space="preserve">
<g id="New_Symbol">
</g>
<g>
	<radialGradient id="SVGID_1_" cx="198" cy="143.9998" r="173.1185" gradientUnits="userSpaceOnUse">
		<stop  offset="0" style="stop-color:#3A3A3A"/>
		<stop  offset="0.2552" style="stop-color:#363636"/>
		<stop  offset="0.5256" style="stop-color:#292929"/>
		<stop  offset="0.802" style="stop-color:#141414"/>
		<stop  offset="1" style="stop-color:#000000"/>
	</radialGradient>
	<rect y="0" style="fill-rule:evenodd;clip-rule:evenodd;fill:url(#SVGID_1_);" width="396" height="288"/>
	<g>
		<g>
			<defs>
				<rect id="SVGID_00000104669985010244860730000017025755476045579953_" y="0" width="396" height="288"/>
			</defs>
			<clipPath id="SVGID_00000062885365972507976700000013071113253154228659_">
				<use xlink:href="#SVGID_00000104669985010244860730000017025755476045579953_"  style="overflow:visible;"/>
			</clipPath>
		</g>
		<g>
			<defs>
				<rect id="SVGID_00000046328956833029650540000014524045998502531251_" y="0" width="396" height="288"/>
			</defs>
			<clipPath id="SVGID_00000021826000745646815220000009378804364303933335_">
				<use xlink:href="#SVGID_00000046328956833029650540000014524045998502531251_"  style="overflow:visible;"/>
			</clipPath>
			<g style="clip-path:url(#SVGID_00000021826000745646815220000009378804364303933335_);">
				<g>
					
						<rect x="391.879" y="282.274" transform="matrix(0.7071 -0.7071 0.7071 0.7071 -87.5868 369.0948)" style="fill:#292425;" width="19.73" height="16"/>
					<g>
						<g>
							
								<radialGradient id="SVGID_00000079486348759945641170000016328562669065141183_" cx="401.7432" cy="287.6221" r="21.9527" gradientUnits="userSpaceOnUse">
								<stop  offset="0" style="stop-color:#3A3A3A"/>
								<stop  offset="0.2552" style="stop-color:#363636"/>
								<stop  offset="0.5256" style="stop-color:#292929"/>
								<stop  offset="0.802" style="stop-color:#141414"/>
								<stop  offset="1" style="stop-color:#000000"/>
							</radialGradient>
							<polygon style="fill:url(#SVGID_00000079486348759945641170000016328562669065141183_);" points="405.728,308.209 
								403.607,306.088 420.739,288.955 403.061,271.277 382.747,291.593 397.243,306.088 395.122,308.209 378.505,291.593 
								403.061,267.035 424.982,288.955 							"/>
						</g>
						<g>
							
								<radialGradient id="SVGID_00000044166228386576004290000011797833725747191199_" cx="401.5664" cy="291.8653" r="7.1868" gradientUnits="userSpaceOnUse">
								<stop  offset="0" style="stop-color:#3A3A3A"/>
								<stop  offset="0.2552" style="stop-color:#363636"/>
								<stop  offset="0.5256" style="stop-color:#292929"/>
								<stop  offset="0.802" style="stop-color:#141414"/>
								<stop  offset="1" style="stop-color:#000000"/>
							</radialGradient>
							<path style="fill:url(#SVGID_00000044166228386576004290000011797833725747191199_);" d="M403.607,299.725l-3.182-3.182
								l-3.182,3.182l-2.121-2.121l3.182-3.183l-2.829-2.828l7.587-7.587l4.949,4.949l-5.465,5.466l3.182,3.183L403.607,299.725z
								 M399.718,291.593l0.707,0.707l3.344-3.345l-0.707-0.707L399.718,291.593z"/>
						</g>
					</g>
				</g>
				<g>
					
						<rect x="353.469" y="266.364" transform="matrix(0.7071 -0.7071 0.7071 0.7071 -81.0003 353.1643)" style="fill:#292425;" width="64.729" height="16"/>
					<g>
						<g>
							
								<radialGradient id="SVGID_00000097478892786483041220000012086713737349030037_" cx="385.833" cy="271.7125" r="37.8457" gradientUnits="userSpaceOnUse">
								<stop  offset="0" style="stop-color:#3A3A3A"/>
								<stop  offset="0.2552" style="stop-color:#363636"/>
								<stop  offset="0.5256" style="stop-color:#292929"/>
								<stop  offset="0.802" style="stop-color:#141414"/>
								<stop  offset="1" style="stop-color:#000000"/>
							</radialGradient>
							<polygon style="fill:url(#SVGID_00000097478892786483041220000012086713737349030037_);" points="373.908,308.209 
								371.787,306.088 420.739,257.136 403.061,239.458 350.927,291.593 365.423,306.088 363.302,308.209 346.685,291.593 
								403.061,235.216 424.982,257.136 							"/>
						</g>
						<g>
							
								<radialGradient id="SVGID_00000066477425566558023930000008906017254523816865_" cx="385.6563" cy="275.9557" r="23.0726" gradientUnits="userSpaceOnUse">
								<stop  offset="0" style="stop-color:#3A3A3A"/>
								<stop  offset="0.2552" style="stop-color:#363636"/>
								<stop  offset="0.5256" style="stop-color:#292929"/>
								<stop  offset="0.802" style="stop-color:#141414"/>
								<stop  offset="1" style="stop-color:#000000"/>
							</radialGradient>
							<path style="fill:url(#SVGID_00000066477425566558023930000008906017254523816865_);" d="M371.787,299.725l-3.183-3.183
								l-3.182,3.183l-2.121-2.121l3.182-3.183l-2.828-2.828l39.406-39.406l4.949,4.949l-37.285,37.285l3.183,3.183L371.787,299.725
								z M367.897,291.593l0.707,0.707l35.164-35.164l-0.707-0.707L367.897,291.593z"/>
						</g>
					</g>
				</g>
				<g>
					<path style="fill:#292425;" d="M326.093,292.214c0,0,19.338-19.457,38.676-38.914c9.664-9.733,19.355-19.44,26.559-26.786
						c7.214-7.334,12.023-12.223,12.023-12.223l10.736,10.737c0,0-4.889,4.81-12.223,12.023
						c-7.346,7.203-17.053,16.895-26.786,26.559c-19.457,19.338-38.914,38.676-38.914,38.676L326.093,292.214z"/>
					<g>
						<g>
							
								<radialGradient id="SVGID_00000129165171569821938310000016292332349084709305_" cx="372.7553" cy="258.2581" r="53.3157" gradientUnits="userSpaceOnUse">
								<stop  offset="0" style="stop-color:#3A3A3A"/>
								<stop  offset="0.2552" style="stop-color:#363636"/>
								<stop  offset="0.5256" style="stop-color:#292929"/>
								<stop  offset="0.802" style="stop-color:#141414"/>
								<stop  offset="1" style="stop-color:#000000"/>
							</radialGradient>
							<polygon style="fill:url(#SVGID_00000129165171569821938310000016292332349084709305_);" points="336.147,312.875 
								320.79,297.518 322.911,295.397 336.154,308.639 378.249,266.801 397.714,247.503 420.479,225.056 403.322,207.899 
								380.878,230.662 361.577,250.127 322.901,289.042 320.773,286.927 359.448,248.014 378.745,228.553 403.308,203.641 
								424.737,225.07 399.823,249.637 380.363,268.931 							"/>
						</g>
						<g>
							
								<radialGradient id="SVGID_00000132078370882591990990000008961600941175689859_" cx="368.4843" cy="259.0923" r="38.8114" gradientUnits="userSpaceOnUse">
								<stop  offset="0" style="stop-color:#3A3A3A"/>
								<stop  offset="0.2552" style="stop-color:#363636"/>
								<stop  offset="0.5256" style="stop-color:#292929"/>
								<stop  offset="0.802" style="stop-color:#141414"/>
								<stop  offset="1" style="stop-color:#000000"/>
							</radialGradient>
							<path style="fill:url(#SVGID_00000132078370882591990990000008961600941175689859_);" d="M331.412,297.501l-2.128-2.115
								l3.162-3.182l-3.172-3.173l2.121-2.121l3.166,3.166l33.4-33.605l35.418-35.787l4.314,4.314l-35.789,35.42l-35.732,35.514
								l-1.605-1.607L331.412,297.501z M403.391,224.938l-4.741,4.791l4.791-4.741L403.391,224.938z"/>
						</g>
					</g>
				</g>
				<g>
					<path style="fill:#292425;" d="M295.204,293.146c0,0,6.85-6.827,17.125-17.067c5.127-5.129,11.109-11.113,17.519-17.525
						c3.198-3.213,6.505-6.531,9.862-9.904c3.348-3.385,6.746-6.822,10.147-10.262c13.586-13.766,27.172-27.532,37.361-37.857
						c10.158-10.356,16.932-17.26,16.932-17.26l9.139,9.14c0,0-6.904,6.773-17.26,16.931
						c-10.324,10.189-24.092,23.775-37.857,37.361c-3.439,3.4-6.877,6.8-10.262,10.146c-3.373,3.359-6.691,6.664-9.904,9.863
						c-6.411,6.409-12.397,12.391-17.525,17.52c-10.24,10.273-17.066,17.123-17.066,17.123L295.204,293.146z"/>
					<g>
						<g>
							
								<radialGradient id="SVGID_00000045615039542483336490000017030700467795984802_" cx="356.9239" cy="242.2913" r="68.3634" gradientUnits="userSpaceOnUse">
								<stop  offset="0" style="stop-color:#3A3A3A"/>
								<stop  offset="0.2552" style="stop-color:#363636"/>
								<stop  offset="0.5256" style="stop-color:#292929"/>
								<stop  offset="0.802" style="stop-color:#141414"/>
								<stop  offset="1" style="stop-color:#000000"/>
							</radialGradient>
							<path style="fill:url(#SVGID_00000045615039542483336490000017030700467795984802_);" d="M303.423,311.97l-13.522-13.52
								l2.121-2.121l11.395,11.394c44.974-45.204,68.508-68.37,116.268-115.281l-15.567-15.567l-30.293,30.821l-27.167,27.529
								c-17.184,17.409-34.81,34.979-51.856,51.971l-2.773,2.765l-2.118-2.125l2.772-2.764
								c17.042-16.988,34.664-34.553,51.84-51.954l27.164-27.526l32.412-32.977l19.848,19.847l-1.08,1.061
								c-48.854,47.983-72.391,71.146-118.383,117.384L303.423,311.97z"/>
						</g>
						<g>
							
								<radialGradient id="SVGID_00000051363228607984071060000011287251715824802461_" cx="352.3423" cy="244.3557" r="54.0314" gradientUnits="userSpaceOnUse">
								<stop  offset="0" style="stop-color:#3A3A3A"/>
								<stop  offset="0.2552" style="stop-color:#363636"/>
								<stop  offset="0.5256" style="stop-color:#292929"/>
								<stop  offset="0.802" style="stop-color:#141414"/>
								<stop  offset="1" style="stop-color:#000000"/>
							</radialGradient>
							<path style="fill:url(#SVGID_00000051363228607984071060000011287251715824802461_);" d="M300.499,298.457l-2.118-2.125
								l2.751-2.742c0.146-0.147,0.295-0.293,0.441-0.44l-3.187-3.188l2.121-2.121l2.897,2.897l22.031-22.069
								c9.024-9.037,18.265-18.225,27.465-27.305l11.689-11.52l38.531-39.103l0.576,0.568l1.072-1.057l1.533,1.534l-1.057,1.072
								l0.568,0.576l-39.103,38.532l-11.518,11.688c-17.232,17.459-34.879,35.049-51.944,52.059L300.499,298.457z"/>
						</g>
					</g>
				</g>
				<g>
					<path style="fill:#292425;" d="M264.161,293.922c0,0,8.867-8.787,22.166-21.969c3.32-3.301,6.916-6.876,10.719-10.658
						c1.795-1.998,3.912-3.777,5.805-5.867c1.064-0.928,2.01-1.994,3.022-3.014c0.988-1.045,2.051-2.035,3.088-3.066
						c1.035-1.032,2.127-2.026,3.109-3.146c1.057-1.045,2.12-2.096,3.191-3.154c2.174-2.084,4.254-4.314,6.473-6.44
						c4.318-4.37,8.705-8.81,13.094-13.249c2.193-2.22,4.387-4.439,6.572-6.65c1.095-1.104,2.166-2.226,3.32-3.258
						c1.072-1.115,2.141-2.228,3.205-3.335c2.173-2.172,4.328-4.328,6.457-6.456c2.109-2.148,4.195-4.27,6.245-6.357
						c8.198-8.352,15.85-16.147,22.409-22.829c3.279-3.341,6.285-6.403,8.949-9.118c2.646-2.733,4.953-5.115,6.853-7.077
						c1.893-1.968,3.381-3.514,4.397-4.568c1.016-1.053,1.579-1.593,1.579-1.593l7.809,7.809c0,0-0.54,0.563-1.593,1.579
						c-1.055,1.015-2.6,2.503-4.568,4.397c-1.961,1.9-4.344,4.207-7.076,6.853c-2.715,2.664-5.777,5.67-9.118,8.95
						c-6.682,6.559-14.478,14.21-22.829,22.409c-2.088,2.05-4.209,4.135-6.357,6.245c-2.129,2.129-4.284,4.284-6.457,6.456
						c-1.107,1.064-2.219,2.134-3.334,3.205c-1.033,1.155-2.156,2.227-3.259,3.321c-2.211,2.185-4.431,4.379-6.65,6.573
						c-4.439,4.387-8.879,8.774-13.249,13.094c-2.125,2.219-4.355,4.299-6.439,6.473c-1.059,1.07-2.111,2.135-3.156,3.191
						c-1.119,0.98-2.113,2.072-3.146,3.109c-1.031,1.037-2.02,2.1-3.065,3.086c-1.021,1.012-2.088,1.959-3.014,3.023
						c-2.09,1.893-3.871,4.008-5.868,5.804c-3.782,3.804-7.358,7.399-10.659,10.719c-13.18,13.3-21.968,22.166-21.968,22.166
						L264.161,293.922z"/>
					<g>
						<g>
							
								<radialGradient id="SVGID_00000098185438485831245270000012437793861836743836_" cx="340.8388" cy="226.5658" r="83.3215" gradientUnits="userSpaceOnUse">
								<stop  offset="0" style="stop-color:#3A3A3A"/>
								<stop  offset="0.2552" style="stop-color:#363636"/>
								<stop  offset="0.5256" style="stop-color:#292929"/>
								<stop  offset="0.802" style="stop-color:#141414"/>
								<stop  offset="1" style="stop-color:#000000"/>
							</radialGradient>
							<path style="fill:url(#SVGID_00000098185438485831245270000012437793861836743836_);" d="M270.841,311.207l-11.982-11.982
								l2.121-2.121l9.852,9.852l35.809-36.096l3.167-3.131l11.968-11.932l8.123-8.186l20.498-20.282
								c0.668-0.651,1.396-1.396,2.115-2.132l2.179-2.229l0.009,0.008l32.324-31.784l16.295-15.984l10.737-10.424
								c1.601-1.558,3.198-3.114,4.905-4.809l-10.035-10.094l-4.162-4.102c-1.672,1.683-3.207,3.259-4.742,4.835l-10.486,10.8
								l-15.988,16.299l-31.786,32.328l0.009,0.008l-2.229,2.178c-0.736,0.72-1.48,1.448-2.125,2.108l-20.279,20.496l-8.486,8.443
								l-23.668,23.67l-23.987,23.78l-2.112-2.131l32.881-32.622l3.114-3.15l11.882-11.915l8.256-8.196l20.26-20.477
								c0.653-0.669,1.414-1.415,2.168-2.151l1.885-1.843l-0.002-0.002l32.081-32.626l15.981-16.291l10.484-10.798
								c1.789-1.837,3.578-3.675,5.579-5.677l0.915-0.921l0.916,0.357c0.373,0.146,0.613,0.395,0.756,0.544l0.094,0.092
								l10.854,10.782l4.93,5.001c0.147,0.142,0.395,0.38,0.541,0.749l0.363,0.92l-0.93,0.922c-2.023,2.021-3.881,3.831-5.742,5.643
								l-10.735,10.422l-16.287,15.977l-32.626,32.081l-0.002-0.002l-1.841,1.883c-0.737,0.754-1.483,1.516-2.159,2.175
								l-20.479,20.263l-8.498,8.54l-23.6,23.599L270.841,311.207z"/>
						</g>
						<g>
							
								<radialGradient id="SVGID_00000036972483684963950750000001932780446437783435_" cx="337.1567" cy="228.5008" r="70.29" gradientUnits="userSpaceOnUse">
								<stop  offset="0" style="stop-color:#3A3A3A"/>
								<stop  offset="0.2552" style="stop-color:#363636"/>
								<stop  offset="0.5256" style="stop-color:#292929"/>
								<stop  offset="0.802" style="stop-color:#141414"/>
								<stop  offset="1" style="stop-color:#000000"/>
							</radialGradient>
							<path style="fill:url(#SVGID_00000036972483684963950750000001932780446437783435_);" d="M269.44,299.249l-2.112-2.131
								l3.211-3.183l-3.196-3.195l2.121-2.121l1.329,1.328l27.564-27.77l6.732-6.719c0.266-0.275,0.539-0.557,0.744-0.748
								l1.493-1.453l5.886-5.857l-0.006-0.006l8.131-8.191l20.615-20.401c0.613-0.599,1.146-1.143,1.675-1.683l2.427-2.469
								l32.563-32.02l16.329-16.018l9.142-8.86l1.759,1.758c0.013,0.013,0.026,0.026,0.038,0.039l1.102,1.102l-0.168,0.169
								l0.003,0.004l-1.994,2.045l-6.692,6.916L382.11,186.12L349.763,219l-2.182,2.148c-0.527,0.517-1.059,1.038-1.639,1.631
								l-20.398,20.614l-8.199,8.139l-0.007-0.007l-7.334,7.404c-0.169,0.182-0.453,0.457-0.73,0.725l-1.12,1.074l-8.613,8.661
								l-6.062,6.03L269.44,299.249z"/>
						</g>
					</g>
				</g>
				<g>
					<path style="fill:#292425;" d="M232.985,294.565c0,0,10.881-10.749,27.205-26.872c8.133-8.091,17.621-17.529,27.787-27.643
						c5.068-5.072,10.305-10.314,15.625-15.641c5.316-5.328,10.732-10.729,16.084-16.193c2.682-2.725,5.364-5.451,8.036-8.165
						c1.34-1.354,2.774-2.607,4.054-4.008c1.293-1.387,2.621-2.731,3.947-4.067c5.287-5.358,10.492-10.632,15.527-15.735
						c5.027-5.112,9.889-10.054,14.496-14.74c4.588-4.708,8.924-9.158,12.928-13.267c8.002-8.222,14.67-15.073,19.338-19.869
						c4.652-4.811,7.313-7.56,7.313-7.56l6.787,6.788c0,0-2.748,2.659-7.559,7.312c-4.797,4.668-11.647,11.336-19.869,19.338
						c-4.108,4.003-8.559,8.34-13.267,12.927c-4.686,4.609-9.628,9.469-14.74,14.496c-5.103,5.036-10.376,10.24-15.735,15.529
						c-1.336,1.325-2.68,2.653-4.066,3.947c-1.401,1.279-2.654,2.713-4.009,4.053c-2.714,2.672-5.44,5.354-8.165,8.037
						c-5.465,5.351-10.865,10.767-16.194,16.084c-5.325,5.32-10.567,10.557-15.64,15.624
						c-10.113,10.166-19.553,19.655-27.643,27.788c-16.123,16.322-26.873,27.205-26.873,27.205L232.985,294.565z"/>
					<g>
						<g>
							
								<radialGradient id="SVGID_00000149369818794802896030000007837816418232619913_" cx="325.2442" cy="210.3426" r="98.9056" gradientUnits="userSpaceOnUse">
								<stop  offset="0" style="stop-color:#3A3A3A"/>
								<stop  offset="0.2552" style="stop-color:#363636"/>
								<stop  offset="0.5256" style="stop-color:#292929"/>
								<stop  offset="0.802" style="stop-color:#141414"/>
								<stop  offset="1" style="stop-color:#000000"/>
							</radialGradient>
							<path style="fill:url(#SVGID_00000149369818794802896030000007837816418232619913_);" d="M238.386,310.573l-10.704-10.704
								l2.121-2.121l8.57,8.569l24.673-24.98l21.55-21.7c14.842-14.965,30.109-30.141,43.255-43.19l43.564-42.962l21.889-21.351
								l25.228-24.485l-13.263-13.263l-24.483,25.226l-21.348,21.886l-33.477,33.993l-1.451,1.408l-8.035,8.165
								c-12.977,13.073-28.081,28.27-43.194,43.259c-12.362,12.335-25.003,24.816-37.228,36.887l-6.231,6.155l-2.108-2.135
								l6.232-6.155c12.222-12.067,24.859-24.546,37.219-36.879c15.109-14.984,30.209-30.177,43.178-43.241l42.953-43.557
								l21.341-21.878l26.601-27.408l17.569,17.569l-27.411,26.603l-21.88,21.343l-33.935,33.418l-1.408,1.451l-8.213,8.083
								c-13.137,13.041-28.4,28.211-43.234,43.17l-21.547,21.698L238.386,310.573z"/>
						</g>
						<g>
							
								<radialGradient id="SVGID_00000101103301137634221470000006256166022724570807_" cx="321.8252" cy="212.6582" r="86.464" gradientUnits="userSpaceOnUse">
								<stop  offset="0" style="stop-color:#3A3A3A"/>
								<stop  offset="0.2552" style="stop-color:#363636"/>
								<stop  offset="0.5256" style="stop-color:#292929"/>
								<stop  offset="0.802" style="stop-color:#141414"/>
								<stop  offset="1" style="stop-color:#000000"/>
							</radialGradient>
							<path style="fill:url(#SVGID_00000101103301137634221470000006256166022724570807_);" d="M238.256,299.901l-2.108-2.135
								l6.412-6.333c12.17-12.017,24.754-24.442,37.07-36.731c15.145-15.021,30.279-30.248,43.275-43.341l42.96-43.563l27.915-28.66
								l-28.666,27.921l-34.121,33.605l-1.251,1.292l-8.188,8.061c-13.135,13.038-28.402,28.213-43.334,43.269l-39.889,40.264
								l-2.164-2.166l2.121-2.121l0.033,0.033l37.768-38.122c14.939-15.063,30.213-30.243,43.355-43.29l43.57-42.968l40.555-39.501
								l3.934,3.934l-39.494,40.548l-33.663,34.18l-1.298,1.255l-8.009,8.138c-13.005,13.102-28.144,28.333-43.293,43.359
								c-12.319,12.291-24.905,24.72-37.078,36.739L238.256,299.901z"/>
						</g>
					</g>
				</g>
				<g>
					<path style="fill:#292425;" d="M201.675,295.076c0,0,3.221-3.184,8.855-8.752c2.83-2.772,6.268-6.137,10.211-9.996
						c3.957-3.846,8.357-8.248,13.184-13.024c9.644-9.564,20.895-20.72,32.949-32.675c6-6.003,12.199-12.207,18.5-18.511
						c6.283-6.322,12.666-12.744,19.048-19.165c6.364-6.439,12.729-12.879,18.995-19.218c6.252-6.353,12.403-12.605,18.357-18.655
						c5.939-6.065,11.68-11.927,17.125-17.487c1.361-1.39,2.703-2.761,4.025-4.111c1.311-1.363,2.658-2.646,3.855-4.038
						c2.559-2.618,5.031-5.147,7.404-7.576c4.748-4.855,9.101-9.306,12.923-13.286c3.833-3.97,7.173-7.432,9.925-10.282
						c2.752-2.851,4.914-5.09,6.388-6.617c1.467-1.534,2.282-2.32,2.282-2.32l6.033,6.034c0,0-0.785,0.815-2.319,2.282
						c-1.526,1.474-3.767,3.636-6.616,6.387c-2.852,2.752-6.313,6.093-10.283,9.925c-3.98,3.822-8.432,8.174-13.285,12.922
						c-2.43,2.374-4.959,4.846-7.576,7.404c-1.392,1.197-2.675,2.546-4.037,3.856c-1.352,1.322-2.723,2.664-4.111,4.026
						c-5.561,5.444-11.422,11.186-17.487,17.125c-6.05,5.954-12.302,12.106-18.655,18.357c-6.34,6.265-12.779,12.63-19.219,18.995
						c-6.422,6.382-12.844,12.765-19.165,19.047c-6.304,6.3-12.508,12.501-18.511,18.501
						c-11.955,12.055-23.111,23.306-32.674,32.949c-4.777,4.826-9.18,9.227-13.025,13.184c-3.859,3.943-7.225,7.381-9.996,10.211
						c-5.568,5.635-8.752,8.855-8.752,8.855L201.675,295.076z"/>
					<g>
						<g>
							
								<radialGradient id="SVGID_00000164477701994930241910000018150393838545684612_" cx="309.044" cy="194.7267" r="114.0161" gradientUnits="userSpaceOnUse">
								<stop  offset="0" style="stop-color:#3A3A3A"/>
								<stop  offset="0.2552" style="stop-color:#363636"/>
								<stop  offset="0.5256" style="stop-color:#292929"/>
								<stop  offset="0.802" style="stop-color:#141414"/>
								<stop  offset="1" style="stop-color:#000000"/>
							</radialGradient>
							<path style="fill:url(#SVGID_00000164477701994930241910000018150393838545684612_);" d="M206.064,310.071l-9.692-9.692
								l2.121-2.121l7.555,7.555l28.968-29.422l25.849-26.088c15.643-15.846,31.691-31.789,47.212-47.206l4.756-4.725
								c19.365-19.16,36.497-36.018,52.375-51.539l26.319-25.601l26.568-25.787l-12.441-12.441l-5.125,5.227l-20.659,21.339
								l-25.601,26.32c-15.48,15.835-32.338,32.967-51.539,52.375l-4.738,4.769c-15.414,15.517-31.354,31.562-47.197,47.204
								l-26.082,25.843l-26.202,25.797l-2.104-2.137l26.198-25.795l26.081-25.841c15.836-15.634,31.77-31.673,47.178-47.185
								l4.736-4.767c19.195-19.402,36.049-36.529,51.521-52.357l25.596-26.314l20.664-21.344l5.926-6.042l0.194-0.505l0.877-0.185
								c0.315-0.054,0.911-0.053,1.447,0.527l14.351,14.351c0.571,0.537,0.572,1.125,0.52,1.436l-0.142,0.841l-0.534,0.22
								l-6.047,5.931l-21.357,20.675l-26.313,25.595c-15.871,15.515-32.999,32.368-52.357,51.521l-4.754,4.723
								c-15.516,15.413-31.559,31.35-47.193,47.187l-25.848,26.086L206.064,310.071z"/>
						</g>
						<g>
							
								<radialGradient id="SVGID_00000052064608843682035570000008497398565945137063_" cx="302.7094" cy="196.9922" r="103.9847" gradientUnits="userSpaceOnUse">
								<stop  offset="0" style="stop-color:#3A3A3A"/>
								<stop  offset="0.2552" style="stop-color:#363636"/>
								<stop  offset="0.5256" style="stop-color:#292929"/>
								<stop  offset="0.802" style="stop-color:#141414"/>
								<stop  offset="1" style="stop-color:#000000"/>
							</radialGradient>
							<path style="fill:url(#SVGID_00000052064608843682035570000008497398565945137063_);" d="M206.945,300.412l-2.104-2.139
								l1.607-1.582l-8.285,0.023l28.298-28.739l25.892-26.133c15.709-15.911,31.85-31.945,47.459-47.45l4.575-4.545
								c19.353-19.148,36.499-36.021,52.423-51.587l26.373-25.653L402.315,94.1l0.322-0.151l0.956-0.376l3.18,3.226
								c0.01,0.009,0.02,0.018,0.027,0.027l0.009,0.008c0.528,0.546,0.519,1.211,0.327,1.665l-0.111,0.26l-5.746,5.943
								l-12.785,13.212l-25.652,26.374c-15.578,15.934-32.451,33.081-51.588,52.423l-4.547,4.577
								c-15.506,15.609-31.539,31.75-47.453,47.461l-26.127,25.887l-20.803,20.482l1.553,1.553l-3.14,0.01L206.945,300.412z
								 M205.998,293.035l-0.649,0.66l1.307-0.004L205.998,293.035z M208.102,290.897l2.1,2.1l20.816-20.496l26.125-25.885
								c15.905-15.703,31.934-31.838,47.434-47.442l4.546-4.575c19.13-19.335,35.999-36.478,51.569-52.405l25.648-26.369
								l17.313-17.904l-0.476-0.475l-17.905,17.315l-26.369,25.648c-15.916,15.559-33.059,32.428-52.404,51.569l-4.574,4.543
								c-15.604,15.5-31.738,31.527-47.439,47.431l-25.891,26.132L208.102,290.897z"/>
						</g>
					</g>
				</g>
				<g>
					<path style="fill:#292425;" d="M170.21,295.431c0,0,3.727-3.669,10.25-10.091c3.279-3.193,7.26-7.07,11.826-11.52
						c4.539-4.476,9.655-9.529,15.285-14.994c5.58-5.515,11.625-11.489,18.02-17.809c6.396-6.316,13.135-12.984,20.053-19.934
						c6.941-6.928,14.113-14.086,21.402-21.36c7.262-7.3,14.639-14.716,22.016-22.131c7.355-7.438,14.711-14.876,21.951-22.197
						c3.611-3.669,7.195-7.31,10.734-10.906c1.768-1.801,3.523-3.591,5.268-5.368c1.707-1.815,3.445-3.572,5.166-5.319
						c6.885-6.983,13.504-13.771,19.772-20.215c3.137-3.22,6.188-6.352,9.14-9.381c2.952-3.028,5.815-5.945,8.487-8.818
						c5.469-5.627,10.482-10.784,14.925-15.356c4.345-4.67,8.258-8.615,11.416-11.929c6.353-6.592,9.982-10.359,9.982-10.359
						l5.635,5.635c0,0-3.768,3.629-10.359,9.981c-3.313,3.158-7.258,7.072-11.93,11.416c-4.57,4.443-9.729,9.456-15.355,14.924
						c-2.873,2.674-5.789,5.536-8.818,8.488c-3.029,2.951-6.161,6.002-9.381,9.139c-6.445,6.268-13.232,12.887-20.215,19.772
						c-1.748,1.72-3.505,3.459-5.32,5.165c-1.777,1.744-3.566,3.501-5.367,5.268c-3.598,3.54-7.237,7.123-10.906,10.735
						c-7.322,7.24-14.76,14.596-22.197,21.951c-7.416,7.378-14.832,14.755-22.133,22.017c-7.273,7.288-14.432,14.461-21.359,21.401
						c-6.949,6.919-13.617,13.658-19.934,20.054c-6.318,6.394-12.293,12.439-17.809,18.019
						c-5.465,5.631-10.518,10.746-14.994,15.285c-4.447,4.566-8.326,8.548-11.519,11.826c-6.421,6.523-10.09,10.25-10.09,10.25
						L170.21,295.431z"/>
					<g>
						<g>
							
								<radialGradient id="SVGID_00000180332066712631703580000001812725579604666788_" cx="293.5752" cy="178.3889" r="130.0176" gradientUnits="userSpaceOnUse">
								<stop  offset="0" style="stop-color:#3A3A3A"/>
								<stop  offset="0.2552" style="stop-color:#363636"/>
								<stop  offset="0.5256" style="stop-color:#292929"/>
								<stop  offset="0.802" style="stop-color:#141414"/>
								<stop  offset="1" style="stop-color:#000000"/>
							</radialGradient>
							<path style="fill:url(#SVGID_00000180332066712631703580000001812725579604666788_);" d="M173.915,309.742l-9.008-9.008
								l2.121-2.121l6.859,6.859l3.162-3.242c37.946-38.914,77.583-78.891,117.809-118.822l29.756-29.391l29.902-29.246
								l14.977-14.592l7.498-7.217l14.997-14.576l7.573-7.253l18.398-17.697L405.843,51.32L380.9,77.283l-36.392,37.478
								l-29.242,29.898l-29.393,29.758c-39.95,40.244-79.928,79.88-118.826,117.811l-2.094-2.147
								c38.886-37.92,78.852-77.546,118.787-117.775l29.385-29.751l29.236-29.891l14.588-14.973l14.5-14.991l7.291-7.501
								l7.237-7.558l19.822-20.606l16.442,16.442l-28.172,27.067l-37.459,36.372l-29.895,29.239L296.97,185.54
								c-40.212,39.917-79.837,79.883-117.772,118.785L173.915,309.742z"/>
						</g>
						<g>
							
								<radialGradient id="SVGID_00000023243258504160452040000011392518655941840021_" cx="287.041" cy="180.9886" r="120.417" gradientUnits="userSpaceOnUse">
								<stop  offset="0" style="stop-color:#3A3A3A"/>
								<stop  offset="0.2552" style="stop-color:#363636"/>
								<stop  offset="0.5256" style="stop-color:#292929"/>
								<stop  offset="0.802" style="stop-color:#141414"/>
								<stop  offset="1" style="stop-color:#000000"/>
							</radialGradient>
							<path style="fill:url(#SVGID_00000023243258504160452040000011392518655941840021_);" d="M175.468,300.779l-2.096-2.146
								c0.784-0.765,1.571-1.532,2.355-2.298l-9.726,0.038l2.498-2.561c37.986-38.956,77.656-78.967,117.91-118.923l29.789-29.424
								l29.938-29.281l14.996-14.612l7.59-7.305l14.998-14.577l19.272-18.491l5.089,5.089l-18.484,19.265l-14.59,15.011
								l-7.293,7.577l-14.617,15.002l-29.277,29.933l-29.426,29.793c-38.143,38.424-76.301,76.284-113.512,112.628l0.816,0.816
								l-1.658,0.007C178.514,297.809,176.989,299.295,175.468,300.779z M175.905,290.518l2.855,2.857
								c37.209-36.341,75.361-74.196,113.501-112.617l29.419-29.785l29.27-29.926l14.609-14.994l7.291-7.576l14.588-15.009
								l16.442-17.14l-0.931-0.931l-17.147,16.45l-14.996,14.574l-7.587,7.303l-14.988,14.604l-29.93,29.274L288.52,177.02
								C250.136,215.122,212.276,253.278,175.905,290.518z M173.809,292.665c-0.221,0.226-0.442,0.454-0.663,0.68l1.338-0.005
								L173.809,292.665z"/>
						</g>
					</g>
				</g>
				<g>
					<path style="fill:#292425;" d="M138.567,295.608c0,0,1.059-1.039,3.043-2.988c2.027-1.906,4.939-4.763,8.65-8.393
						c7.43-7.256,18.041-17.621,30.775-30.059c6.34-6.248,13.25-12.973,20.475-20.17c7.251-7.171,14.898-14.732,22.809-22.555
						c7.922-7.811,16.01-15.98,24.282-24.227c4.13-4.13,8.292-8.292,12.472-12.472c4.157-4.201,8.33-8.419,12.504-12.636
						c8.348-8.435,16.73-16.833,24.885-25.198c2.068-2.062,4.123-4.121,6.143-6.194c2.025-2.068,4.055-4.11,6.022-6.193
						c4.055-4.041,7.953-8.141,11.873-12.087c7.766-7.967,15.273-15.668,22.393-22.971c7.084-7.337,13.783-14.274,19.966-20.677
						c6.181-6.406,11.845-12.278,16.866-17.483c5.004-5.224,9.365-9.778,12.957-13.528c7.183-7.501,11.287-11.787,11.287-11.787
						l5.502,5.502c0,0-4.287,4.104-11.787,11.288c-3.75,3.591-8.305,7.953-13.528,12.956c-5.204,5.021-11.077,10.687-17.483,16.867
						c-6.403,6.183-13.34,12.881-20.678,19.966c-7.303,7.119-15.004,14.626-22.971,22.393c-3.945,3.92-8.045,7.818-12.086,11.873
						c-2.083,1.965-4.125,3.996-6.193,6.021c-2.074,2.019-4.133,4.074-6.194,6.142c-8.365,8.154-16.763,16.538-25.198,24.885
						c-4.217,4.174-8.436,8.347-12.636,12.504c-4.179,4.179-8.341,8.342-12.472,12.472c-8.248,8.272-16.416,16.36-24.227,24.283
						c-7.822,7.911-15.385,15.557-22.555,22.809c-7.199,7.223-13.924,14.134-20.17,20.473
						c-12.44,12.734-22.804,23.348-30.059,30.775c-3.631,3.713-6.488,6.624-8.393,8.652c-1.949,1.983-2.989,3.041-2.989,3.041
						L138.567,295.608z"/>
					<g>
						<g>
							
								<radialGradient id="SVGID_00000050662093751174855150000012240432798298434447_" cx="277.7281" cy="162.4178" r="145.8137" gradientUnits="userSpaceOnUse">
								<stop  offset="0" style="stop-color:#3A3A3A"/>
								<stop  offset="0.2552" style="stop-color:#363636"/>
								<stop  offset="0.5256" style="stop-color:#292929"/>
								<stop  offset="0.802" style="stop-color:#141414"/>
								<stop  offset="1" style="stop-color:#000000"/>
							</radialGradient>
							<path style="fill:url(#SVGID_00000050662093751174855150000012240432798298434447_);" d="M141.923,309.569l-8.658-8.658
								l2.121-2.121l6.508,6.508l3.163-3.248c20.017-20.56,43.308-44.45,66.424-67.812l16.697-16.884l16.749-16.796
								c10.67-10.708,22.127-22.176,33.597-33.485l33.749-33.318l33.952-33.178L380.337,67.6l17.104-16.443l20.461-19.595
								l-12.003-12.006l-19.595,20.461l-16.442,17.103l-32.975,34.11l-33.178,33.952l-33.324,33.755
								c-11.32,11.481-22.783,22.932-33.484,33.597l-16.793,16.744l-16.889,16.702c-23.367,23.123-47.255,46.411-67.811,66.424
								l-2.093-2.148c20.552-20.01,44.434-43.293,67.794-66.408l16.885-16.697l16.788-16.74
								c10.696-10.661,22.154-22.106,33.468-33.58l33.318-33.75l33.167-33.941l32.966-34.101l16.438-17.098l21.713-22.672
								l16.339,16.342L382.419,69.76l-34.104,32.969l-33.94,33.166l-33.745,33.313c-11.462,11.301-22.912,22.764-33.579,33.468
								l-16.745,16.792l-16.692,16.88c-23.109,23.354-46.395,47.239-66.407,67.794L141.923,309.569z"/>
						</g>
						<g>
							
								<radialGradient id="SVGID_00000030466882709089205020000006979776947253686183_" cx="271.0801" cy="165.1311" r="136.4568" gradientUnits="userSpaceOnUse">
								<stop  offset="0" style="stop-color:#3A3A3A"/>
								<stop  offset="0.2552" style="stop-color:#363636"/>
								<stop  offset="0.5256" style="stop-color:#292929"/>
								<stop  offset="0.802" style="stop-color:#141414"/>
								<stop  offset="1" style="stop-color:#000000"/>
							</radialGradient>
							<path style="fill:url(#SVGID_00000030466882709089205020000006979776947253686183_);" d="M143.819,300.963l-2.093-2.15
								c0.903-0.879,1.813-1.765,2.73-2.656l-10.455,0.045l2.495-2.561c20.043-20.586,43.361-44.503,66.464-67.85l16.68-16.868
								l16.778-16.827c10.694-10.732,22.176-22.225,33.665-33.552l33.811-33.379l33.96-33.187l34.158-33.021l30.902-29.658
								l5.244,5.246l-29.654,30.898l-33.018,34.154l-33.186,33.961l-33.386,33.818c-11.359,11.52-22.838,22.988-33.553,33.665
								l-16.82,16.773L211.669,234.5c-21.395,21.171-43.162,42.42-62.424,61.179l0.454,0.454l-0.924,0.004
								C147.105,297.764,145.45,299.375,143.819,300.963z M143.901,290.335l3.223,3.222c19.264-18.762,41.037-40.016,62.436-61.189
								l16.868-16.681l16.817-16.769c10.709-10.672,22.184-22.135,33.535-33.647l33.381-33.813l33.176-33.95l33.008-34.145
								l27.617-28.771l-1.094-1.094l-28.773,27.621l-34.148,33.012l-33.949,33.175l-33.808,33.375
								c-11.482,11.32-22.956,22.808-33.648,33.535l-16.773,16.823L205.093,227.9C183.989,249.226,162.704,271.029,143.901,290.335z
								 M141.808,292.484c-0.223,0.23-0.444,0.457-0.668,0.686l1.349-0.006L141.808,292.484z"/>
						</g>
					</g>
				</g>
				<g>
					<path style="fill:#292425;" d="M106.792,295.652c0,0,1.186-1.161,3.408-3.338c2.273-2.126,5.5-5.353,9.684-9.381
						c4.174-4.039,9.24-8.942,15.055-14.568c5.789-5.647,12.322-12.02,19.449-18.971c3.554-3.484,7.256-7.115,11.088-10.872
						c0.965-0.932,1.932-1.878,2.892-2.848c0.979-0.95,1.966-1.907,2.96-2.872c1.949-1.969,3.963-3.933,5.998-5.93
						c8.119-8.014,16.68-16.463,25.535-25.204c8.818-8.779,17.931-17.852,27.189-27.07c9.244-9.233,18.611-18.636,27.928-28.091
						c2.336-2.356,4.715-4.67,7.014-7.059c2.346-2.343,4.672-4.7,6.978-7.067c4.672-4.677,9.256-9.406,13.84-14.06
						c4.58-4.658,9.124-9.28,13.613-13.846c4.408-4.647,8.953-9.047,13.225-13.575c8.705-8.893,17.137-17.473,25.004-25.735
						c4.008-4.059,7.853-8.059,11.566-11.935c3.719-3.87,7.31-7.609,10.76-11.199C373.767,27.665,385.257,15.691,393.3,7.31
						c8.005-8.418,12.58-13.229,12.58-13.229l5.678,5.679c0,0-4.81,4.575-13.228,12.58c-8.381,8.043-20.355,19.533-34.723,33.321
						c-3.59,3.449-7.329,7.042-11.199,10.761c-3.875,3.713-7.875,7.559-11.934,11.565c-8.264,7.869-16.844,16.299-25.736,25.004
						c-4.527,4.271-8.928,8.816-13.574,13.225c-4.566,4.489-9.188,9.033-13.846,13.613c-4.654,4.585-9.383,9.168-14.061,13.839
						c-2.367,2.307-4.724,4.634-7.066,6.979c-2.389,2.299-4.703,4.678-7.06,7.014c-9.454,9.316-18.856,18.684-28.091,27.928
						c-9.219,9.259-18.291,18.371-27.07,27.189c-8.74,8.856-17.189,17.417-25.203,25.536c-1.998,2.035-3.961,4.048-5.931,5.997
						c-0.964,0.995-1.922,1.981-2.872,2.96c-0.969,0.961-1.916,1.926-2.848,2.893c-3.756,3.832-7.387,7.533-10.871,11.088
						c-6.951,7.127-13.324,13.659-18.972,19.449c-5.626,5.813-10.53,10.881-14.568,15.055c-4.028,4.184-7.255,7.41-9.38,9.684
						c-2.178,2.223-3.338,3.407-3.338,3.407L106.792,295.652z"/>
					<g>
						<g>
							
								<radialGradient id="SVGID_00000010999254237097382640000012009049286755008150_" cx="261.8936" cy="146.4361" r="161.7553" gradientUnits="userSpaceOnUse">
								<stop  offset="0" style="stop-color:#3A3A3A"/>
								<stop  offset="0.2552" style="stop-color:#363636"/>
								<stop  offset="0.5256" style="stop-color:#292929"/>
								<stop  offset="0.802" style="stop-color:#141414"/>
								<stop  offset="1" style="stop-color:#000000"/>
							</radialGradient>
							<path style="fill:url(#SVGID_00000010999254237097382640000012009049286755008150_);" d="M110.065,309.531l-8.576-8.576
								l2.121-2.121l6.424,6.424l40.162-41.359l18.568-18.988l18.597-18.898c21.628-22.004,44.739-45.183,74.938-75.154
								c9.62-9.578,19.497-19.287,29.047-28.676l8.722-8.578l38.037-37.041l19.049-18.46l38.301-36.767l22.551-21.494
								l-12.207-12.207l-21.49,22.547l-36.766,38.3l-18.463,19.051l-37.039,38.034l-8.902,9.052
								c-9.285,9.443-18.887,19.208-28.357,28.723c-29.97,30.197-53.148,53.309-75.154,74.937l-18.895,18.593l-18.986,18.568
								l-38.105,37.002l-2.09-2.152l38.102-36.998l18.98-18.561l18.892-18.591c21.997-21.619,45.168-44.723,75.13-74.912
								c9.467-9.51,19.063-19.271,28.345-28.712l8.9-9.047l37.029-38.025l18.455-19.044l36.757-38.29l23.606-24.767l16.553,16.553
								l-24.772,23.61l-38.291,36.758l-19.041,18.453l-38.028,37.033l-8.718,8.573c-9.547,9.386-19.419,19.092-29.035,28.664
								c-30.19,29.963-53.294,53.134-74.912,75.13l-18.594,18.896l-18.563,18.98L110.065,309.531z"/>
						</g>
						<g>
							
								<radialGradient id="SVGID_00000177457254312607247540000003684994443465376155_" cx="255.1109" cy="149.2845" r="152.3544" gradientUnits="userSpaceOnUse">
								<stop  offset="0" style="stop-color:#3A3A3A"/>
								<stop  offset="0.2552" style="stop-color:#363636"/>
								<stop  offset="0.5256" style="stop-color:#292929"/>
								<stop  offset="0.802" style="stop-color:#141414"/>
								<stop  offset="1" style="stop-color:#000000"/>
							</radialGradient>
							<path style="fill:url(#SVGID_00000177457254312607247540000003684994443465376155_);" d="M112.036,301.016l-2.09-2.152
								l2.833-2.752l-10.643,0.055l39.467-40.645l18.563-18.98l18.65-18.953c21.642-22.019,44.787-45.231,75.047-75.265
								c9.688-9.643,19.564-19.353,29.116-28.744l8.728-8.583l38.053-37.057l19.086-18.495l19.154-18.395l34.988-33.497l5.099,5.098
								L356.2,56.791l-18.498,19.087l-37.054,38.049l-8.854,9.003c-9.305,9.463-18.924,19.248-28.479,28.847
								c-30.028,30.255-53.241,53.401-75.264,75.046l-18.949,18.646l-18.979,18.561l-32.645,31.698l0.355,0.355l-0.725,0.004
								L112.036,301.016z M112.096,290.35l3.261,3.26l32.672-31.726l18.973-18.555l18.946-18.644
								c22.015-21.637,45.219-44.774,75.239-75.022c9.551-9.594,19.167-19.376,28.467-28.835l8.852-8.999l37.045-38.041l18.49-19.08
								l18.385-19.146l31.464-32.864l-0.946-0.947l-32.867,31.465l-19.148,18.388l-19.078,18.488l-38.044,37.048l-8.723,8.579
								c-9.548,9.387-19.422,19.094-29.105,28.731c-30.253,30.026-53.391,53.23-75.022,75.241l-18.647,18.95l-18.557,18.974
								l-34.484,35.514l1.359-0.006l-0.651-0.652L112.096,290.35z"/>
						</g>
					</g>
				</g>
				<g>
					<path style="fill:#292425;" d="M74.839,295.52c0,0,4.879-4.7,13.416-12.925c8.514-8.248,20.676-20.031,35.271-34.171
						c0.899-0.896,1.801-1.809,2.758-2.684c0.934-0.9,1.875-1.81,2.826-2.728c0.947-0.92,1.91-1.843,2.855-2.8
						c0.959-0.945,1.926-1.898,2.9-2.859c3.918-3.826,7.969-7.783,12.131-11.852c8.299-8.164,17.111-16.712,26.121-25.662
						c9.018-8.94,18.338-18.179,27.807-27.567c9.471-9.385,19.027-18.986,28.584-28.585c9.529-9.627,19.059-19.254,28.439-28.731
						c9.348-9.509,18.547-18.868,27.449-27.924c8.857-9.101,17.422-17.897,25.542-26.239c4.052-4.18,7.993-8.246,11.804-12.178
						c1.891-1.983,3.772-3.909,5.63-5.787c1.825-1.912,3.614-3.789,5.368-5.626c7.107-7.26,13.508-14.03,19.24-19.97
						c5.713-5.96,10.693-11.157,14.795-15.436c8.18-8.582,12.854-13.487,12.854-13.487l4.881,4.881c0,0-4.904,4.673-13.488,12.852
						c-4.279,4.102-9.475,9.082-15.436,14.795c-5.939,5.733-12.71,12.133-19.971,19.24c-1.838,1.754-3.714,3.544-5.626,5.369
						c-1.878,1.859-3.804,3.739-5.787,5.629c-3.933,3.812-7.999,7.753-12.179,11.805c-8.342,8.121-17.139,16.684-26.238,25.542
						c-9.057,8.903-18.416,18.102-27.924,27.449c-9.478,9.38-19.105,18.909-28.732,28.439c-9.598,9.558-19.199,19.113-28.584,28.585
						c-9.389,9.469-18.627,18.788-27.566,27.807c-8.949,9.01-17.498,17.822-25.662,26.12c-4.068,4.163-8.025,8.214-11.852,12.132
						c-0.961,0.975-1.914,1.941-2.859,2.9c-0.957,0.945-1.88,1.908-2.8,2.856c-0.918,0.95-1.827,1.892-2.728,2.824
						c-0.875,0.958-1.788,1.859-2.684,2.759c-14.141,14.596-25.922,26.758-34.17,35.272C83,294.102,78.3,298.98,78.3,298.98
						L74.839,295.52z"/>
					<g>
						<g>
							
								<radialGradient id="SVGID_00000013164410112319146370000015608663546391641277_" cx="232.8925" cy="143.6233" r="164.71" gradientUnits="userSpaceOnUse">
								<stop  offset="0" style="stop-color:#3A3A3A"/>
								<stop  offset="0.2552" style="stop-color:#363636"/>
								<stop  offset="0.5256" style="stop-color:#292929"/>
								<stop  offset="0.802" style="stop-color:#141414"/>
								<stop  offset="1" style="stop-color:#000000"/>
							</radialGradient>
							<path style="fill:url(#SVGID_00000013164410112319146370000015608663546391641277_);" d="M78.391,309.676l-8.854-8.854
								l2.121-2.121l6.697,6.697l50.242-51.941l9.438-9.686l18.977-19.378c25.523-26.093,51.75-52.376,76.291-76.891
								c4.512-4.456,9.009-8.912,13.507-13.369c8.189-8.114,16.655-16.503,25.028-24.707l19.313-18.974l38.829-37.748
								c3.318-3.25,6.65-6.43,9.779-9.407l9.744-9.388c11.554-11.155,23.983-23.06,39.112-37.464l3.339-3.178L380.55-18.134
								l-3.178,3.338c-14.373,15.098-26.278,27.526-37.465,39.114l-9.393,9.749c-2.989,3.141-6.183,6.489-9.405,9.777L302.26,63.26
								l-18.89,19.404l-18.979,19.32c-8.203,8.374-16.595,16.843-24.71,25.033c-4.455,4.496-8.91,8.992-13.357,13.495
								c-24.584,24.607-50.91,50.876-76.898,76.297l-29.059,28.412l-9.724,9.419l-38.924,37.636l-2.085-2.156l48.642-47.051
								l9.679-9.432l19.373-18.972c25.979-25.411,52.296-51.673,76.867-76.268c4.442-4.498,8.898-8.996,13.355-13.493
								c8.111-8.187,16.5-16.652,24.699-25.022l18.977-19.316l18.883-19.398l18.852-19.419c3.214-3.279,6.399-6.618,9.387-9.757
								l9.4-9.757c11.184-11.583,23.084-24.007,37.452-39.1l5.298-5.565l15.752,15.751l-5.565,5.298
								c-15.124,14.399-27.548,26.299-39.099,37.451l-9.752,9.395c-3.127,2.977-6.45,6.147-9.758,9.388l-38.827,37.745l-19.31,18.97
								c-8.369,8.199-16.834,16.586-25.019,24.696c-4.499,4.458-8.998,8.916-13.504,13.367
								c-24.528,24.503-50.748,50.778-76.261,76.861l-28.408,29.055l-9.412,9.717L78.391,309.676z"/>
						</g>
						<g>
							
								<radialGradient id="SVGID_00000000930863305674627920000001525681648648879237_" cx="229.461" cy="143.1121" r="158.4301" gradientUnits="userSpaceOnUse">
								<stop  offset="0" style="stop-color:#3A3A3A"/>
								<stop  offset="0.2552" style="stop-color:#363636"/>
								<stop  offset="0.5256" style="stop-color:#292929"/>
								<stop  offset="0.802" style="stop-color:#141414"/>
								<stop  offset="1" style="stop-color:#000000"/>
							</radialGradient>
							<path style="fill:url(#SVGID_00000000930863305674627920000001525681648648879237_);" d="M80.045,300.918l-2.085-2.156
								l2.592-2.506l-10.143,0.094l49.625-51.302l9.478-9.724l18.94-19.343c25.576-26.146,51.831-52.457,76.394-76.995
								c4.51-4.454,9.006-8.909,13.501-13.363c8.202-8.127,16.683-16.531,25.075-24.752l19.338-18.997l38.891-37.807
								c3.279-3.214,6.624-6.405,9.768-9.397l9.754-9.398c10.105-9.756,20.896-20.102,33.6-32.213l-1.965-1.965l4.078-0.049
								c1.134-1.081,2.284-2.176,3.45-3.286l2.577-2.454l-0.068,5.667l5.667-0.068l-2.453,2.577
								c-1.109,1.165-2.205,2.316-3.285,3.45l-0.05,4.078l-1.965-1.965c-12.03,12.619-22.378,23.413-32.214,33.602l-9.404,9.759
								c-2.979,3.13-6.162,6.469-9.395,9.766L310.86,71.628l-18.91,19.426l-19.004,19.345c-8.232,8.403-16.648,16.897-24.789,25.111
								c-4.441,4.483-8.884,8.966-13.318,13.457c-28.431,28.458-52.402,52.337-77.002,76.401l-29.063,28.414l-43.238,41.828
								l0.595,0.595l-1.222,0.011L80.045,300.918z M80.332,290.404l3.083,3.083l43.27-41.856l9.718-9.473l19.337-18.936
								c24.59-24.054,48.554-47.926,76.971-76.371c4.43-4.486,8.873-8.97,13.316-13.454c8.137-8.211,16.551-16.702,24.779-25.101
								l19-19.341l18.904-19.42l18.889-19.458c3.224-3.288,6.4-6.617,9.377-9.746l9.41-9.767
								c9.848-10.2,20.205-21.004,32.252-33.641l-1.742-1.742c-12.722,12.127-23.525,22.484-33.64,32.25l-9.761,9.405
								c-3.143,2.991-6.478,6.173-9.75,9.378l-38.887,37.804l-19.335,18.994c-8.388,8.217-16.865,16.618-25.063,24.742
								c-4.498,4.456-8.994,8.912-13.498,13.361c-24.551,24.526-50.799,50.83-76.365,76.965l-28.41,29.059L80.332,290.404z
								 M78.246,292.563l-0.698,0.721l1.407-0.013L78.246,292.563z"/>
						</g>
					</g>
				</g>
				<g>
					<path style="fill:#292425;" d="M42.753,295.253c0,0,4.879-4.7,13.414-12.927c4.295-4.086,9.502-9.056,15.419-14.811
						c5.976-5.698,12.638-12.205,19.946-19.265c7.287-7.079,15.184-14.748,23.535-22.859c8.318-8.144,17.09-16.732,26.164-25.617
						c4.521-4.457,9.158-8.95,13.777-13.571c4.678-4.564,9.385-9.211,14.1-13.925c9.486-9.371,19.098-18.915,28.67-28.499
						c9.556-9.601,19.111-19.201,28.518-28.651c9.367-9.49,18.586-18.83,27.506-27.868c8.882-9.078,17.467-17.853,25.607-26.174
						c8.111-8.351,15.82-16.208,22.846-23.549c7.064-7.303,13.54-13.997,19.279-19.931c5.781-5.893,10.713-11.138,14.829-15.402
						c8.202-8.559,12.89-13.45,12.89-13.45l3.994,3.993c0,0-4.891,4.688-13.45,12.89c-4.265,4.117-9.51,9.048-15.402,14.829
						c-5.934,5.74-12.628,12.215-19.931,19.28c-7.342,7.026-15.197,14.734-23.549,22.845c-8.321,8.141-17.097,16.726-26.174,25.607
						c-9.039,8.921-18.379,18.139-27.868,27.506c-9.45,9.407-19.051,18.962-28.651,28.518c-9.584,9.572-19.129,19.184-28.499,28.67
						c-4.714,4.714-9.36,9.421-13.925,14.098c-4.621,4.62-9.115,9.256-13.572,13.779c-8.885,9.074-17.473,17.846-25.617,26.163
						c-8.111,8.352-15.779,16.248-22.859,23.537c-7.059,7.307-13.566,13.969-19.264,19.945
						c-5.756,5.917-10.727,11.124-14.812,15.418c-8.227,8.537-12.926,13.414-12.926,13.414L42.753,295.253z"/>
					<g>
						<g>
							
								<radialGradient id="SVGID_00000016055639693514048370000007773119213106326171_" cx="200.7104" cy="143.9913" r="164.6166" gradientUnits="userSpaceOnUse">
								<stop  offset="0" style="stop-color:#3A3A3A"/>
								<stop  offset="0.2552" style="stop-color:#363636"/>
								<stop  offset="0.5256" style="stop-color:#292929"/>
								<stop  offset="0.802" style="stop-color:#141414"/>
								<stop  offset="1" style="stop-color:#000000"/>
							</radialGradient>
							<path style="fill:url(#SVGID_00000016055639693514048370000007773119213106326171_);" d="M46.847,309.953l-9.396-9.396
								l2.121-2.121l7.236,7.234l40.762-42.326l18.841-19.452l18.89-19.405c26.96-27.641,53.596-54.473,76.096-77.074
								c28.493-28.389,52.502-52.197,77.072-76.132c30.109-29.318,54.859-53.241,77.893-75.286l3.32-3.177l-10.498-10.499
								l-3.178,3.32c-22.02,23.008-45.942,47.759-75.285,77.894c-23.959,24.594-47.761,48.596-76.128,77.067
								c-22.668,22.565-49.548,49.249-77.079,76.098L98.11,235.586l-19.452,18.842l-39.027,37.586l-2.081-2.162l39.024-37.582
								l19.446-18.836l19.398-18.884c27.521-26.839,54.395-53.516,77.053-76.071c28.355-28.461,52.15-52.456,76.1-77.039
								c29.336-30.128,53.252-54.874,75.267-77.875l5.298-5.535l14.835,14.834l-5.536,5.297
								c-23.025,22.039-47.772,45.956-77.874,75.268c-24.56,23.925-48.562,47.727-77.044,76.104
								c-22.49,22.592-49.119,49.417-76.068,77.047l-18.886,19.401l-18.835,19.446L46.847,309.953z"/>
						</g>
						<g>
							
								<radialGradient id="SVGID_00000124131848204690840340000011795651920042517144_" cx="198.0005" cy="142.7605" r="158.5143" gradientUnits="userSpaceOnUse">
								<stop  offset="0" style="stop-color:#3A3A3A"/>
								<stop  offset="0.2552" style="stop-color:#363636"/>
								<stop  offset="0.5256" style="stop-color:#292929"/>
								<stop  offset="0.802" style="stop-color:#141414"/>
								<stop  offset="1" style="stop-color:#000000"/>
							</radialGradient>
							<path style="fill:url(#SVGID_00000124131848204690840340000011795651920042517144_);" d="M47.957,300.654l-2.081-2.162
								l2.036-1.961l-9.044,0.084l40.07-41.608l18.863-19.477l18.914-19.428c27.014-27.697,53.682-54.561,76.207-77.188
								c28.54-28.435,52.582-52.275,77.16-76.22c27.732-27.003,50.933-49.442,72.441-70.063l-1.098-1.097l2.268-0.024
								c1.463-1.401,2.916-2.793,4.363-4.178l2.574-2.464l-0.068,6.57l6.569-0.069l-2.464,2.575
								c-1.385,1.447-2.778,2.902-4.179,4.363l-0.024,2.268l-1.098-1.098c-20.61,21.499-43.049,44.698-70.063,72.441
								c-23.963,24.598-47.799,48.634-76.217,77.156c-22.684,22.581-49.589,49.29-77.191,76.211l-19.426,18.911l-19.477,18.864
								L53.46,295.354l1.117,1.117l-2.299,0.021L47.957,300.654z M46.687,292.822l-0.701,0.728l1.416-0.013L46.687,292.822z
								 M48.768,290.66l2.571,2.572L84.911,260.9l19.471-18.858l19.422-18.907c27.592-26.91,54.491-53.613,77.165-76.184
								c28.405-28.511,52.235-52.54,76.188-77.128c27.026-27.756,49.474-50.965,70.091-72.47l-2.601-2.6
								c-21.517,20.628-44.724,43.074-72.47,70.091c-24.569,23.934-48.603,47.768-77.133,76.191
								c-22.515,22.617-49.176,49.475-76.18,77.161l-18.91,19.425l-18.857,19.471L48.768,290.66z"/>
						</g>
					</g>
				</g>
				<g>
					<path style="fill:#292425;" d="M10.468,294.787c0,0,4.896-4.682,13.465-12.875c4.285-4.096,9.486-9.07,15.455-14.776
						c5.957-5.715,12.729-12.114,19.991-19.219c3.659-3.524,7.47-7.197,11.413-10.997c3.93-3.816,7.991-7.762,12.167-11.816
						c4.179-4.053,8.472-8.216,12.858-12.471c4.369-4.274,8.833-8.64,13.372-13.081c1.14-1.105,2.284-2.214,3.435-3.328
						c1.139-1.124,2.281-2.252,3.43-3.385c1.131-1.149,2.314-2.254,3.473-3.391c1.15-1.145,2.305-2.294,3.463-3.445
						c4.713-4.529,9.389-9.207,14.139-13.885c9.48-9.377,19.111-18.903,28.742-28.429c4.796-4.782,9.592-9.563,14.37-14.326
						c4.763-4.778,9.507-9.537,14.214-14.259c9.39-9.467,18.631-18.784,27.572-27.801c8.904-9.055,17.512-17.809,25.674-26.109
						c8.133-8.329,15.822-16.204,22.92-23.473c7.082-7.285,13.574-13.963,19.328-19.882c1.432-1.488,2.816-2.928,4.152-4.318
						c1.363-1.364,2.656-2.699,3.875-4.005c2.445-2.606,4.77-4.922,6.83-7.051c8.205-8.557,12.895-13.446,12.895-13.446l3.461,3.461
						c0,0-4.891,4.688-13.447,12.894c-2.129,2.062-4.444,4.385-7.051,6.83c-1.305,1.22-2.641,2.513-4.004,3.876
						c-1.391,1.337-2.83,2.721-4.318,4.152c-5.92,5.754-12.598,12.246-19.883,19.328c-7.268,7.098-15.143,14.788-23.473,22.921
						c-8.301,8.162-17.054,16.769-26.109,25.673c-9.016,8.942-18.333,18.183-27.801,27.573c-4.721,4.707-9.48,9.451-14.258,14.214
						c-4.764,4.778-9.545,9.574-14.326,14.371c-9.525,9.63-19.053,19.261-28.43,28.741c-4.678,4.75-9.355,9.426-13.885,14.139
						c-1.151,1.158-2.3,2.313-3.445,3.464c-1.137,1.159-2.242,2.341-3.391,3.473c-1.133,1.148-2.261,2.291-3.385,3.43
						c-1.113,1.149-2.223,2.294-3.328,3.434c-4.44,4.539-8.807,9.002-13.08,13.372c-4.256,4.388-8.418,8.68-12.471,12.859
						c-4.057,4.176-8.001,8.237-11.816,12.166c-3.801,3.945-7.473,7.756-10.998,11.414c-7.104,7.264-13.504,14.033-19.219,19.992
						c-5.705,5.967-10.68,11.17-14.777,15.454c-8.192,8.568-12.874,13.465-12.874,13.465L10.468,294.787z"/>
					<g>
						<g>
							
								<radialGradient id="SVGID_00000159449159504910485190000003620917953690357632_" cx="168.521" cy="144.369" r="164.7169" gradientUnits="userSpaceOnUse">
								<stop  offset="0" style="stop-color:#3A3A3A"/>
								<stop  offset="0.2552" style="stop-color:#363636"/>
								<stop  offset="0.5256" style="stop-color:#292929"/>
								<stop  offset="0.802" style="stop-color:#141414"/>
								<stop  offset="1" style="stop-color:#000000"/>
							</radialGradient>
							<path style="fill:url(#SVGID_00000159449159504910485190000003620917953690357632_);" d="M15.509,310.436L5.165,300.09
								l2.121-2.121l8.176,8.178l40.642-42.445l18.783-19.516l18.86-19.441c25.971-26.727,51.842-52.926,75.932-77.257
								C221.477,95.524,273.489,44.466,324.274-4.271l3.316-3.183l-9.957-9.958l-3.184,3.316
								c-48.781,50.829-99.838,102.842-151.754,154.593c-24.359,24.117-50.576,50.004-77.26,75.934l-19.438,18.857l-19.518,18.784
								l-39.123,37.46l-2.074-2.166l39.119-37.458l19.512-18.777l19.432-18.853c26.674-25.919,52.885-51.802,77.236-75.91
								C212.479,86.638,263.521,34.642,312.286-16.172l5.304-5.526L331.877-7.41l-5.525,5.303
								c-50.769,48.723-102.766,99.765-154.545,151.708c-24.08,24.322-49.945,50.516-75.907,77.233L77.044,246.27l-18.776,19.509
								L15.509,310.436z"/>
						</g>
						<g>
							
								<radialGradient id="SVGID_00000119800123994751579500000017583924171159804552_" cx="166.545" cy="142.401" r="158.4243" gradientUnits="userSpaceOnUse">
								<stop  offset="0" style="stop-color:#3A3A3A"/>
								<stop  offset="0.2552" style="stop-color:#363636"/>
								<stop  offset="0.5256" style="stop-color:#292929"/>
								<stop  offset="0.802" style="stop-color:#141414"/>
								<stop  offset="1" style="stop-color:#000000"/>
							</radialGradient>
							<path style="fill:url(#SVGID_00000119800123994751579500000017583924171159804552_);" d="M15.651,300.207l-2.074-2.166
								l1.061-1.016l-7.133,0.08l39.961-41.734l18.798-19.531l18.879-19.46c25.997-26.754,51.901-52.986,76.021-77.349
								C211.145,88.891,261.34,39.579,310.446-7.627l-0.573-0.573l1.183-0.013c1.639-1.575,3.277-3.149,4.914-4.719l2.576-2.473
								l-0.075,7.114l7.114-0.074l-2.473,2.576c-1.571,1.638-3.143,3.274-4.72,4.915l-0.013,1.181l-0.572-0.572
								c-47.256,49.156-96.564,99.348-146.655,149.279c-24.392,24.148-50.642,50.068-77.352,76.023l-19.456,18.876l-19.533,18.799
								L21.19,294.904l2.025,2.025l-4.189,0.047L15.651,300.207z M15.323,293.278l-0.716,0.747l1.446-0.016L15.323,293.278z
								 M17.398,291.111l1.671,1.67l33.664-32.234l19.527-18.793l19.45-18.87c26.7-25.945,52.944-51.86,77.327-75.999
								C219.126,96.956,268.432,46.767,315.686-2.388l-3.119-3.118C263.462,41.7,213.27,91.008,163.292,141.146
								c-24.111,24.354-50.01,50.58-75.997,77.324l-18.874,19.454L49.63,257.449L17.398,291.111z"/>
						</g>
					</g>
				</g>
				<g>
					<path style="fill:#292425;" d="M-15.581,288.217c0,0,19.191-18.35,47.979-45.875c7.164-6.914,14.924-14.405,23.131-22.328
						c4.114-3.952,8.324-8.028,12.6-12.221c4.291-4.178,8.674-8.447,13.133-12.788c8.896-8.701,18.09-17.692,27.43-26.828
						c9.297-9.182,18.74-18.509,28.184-27.836c9.4-9.37,18.883-18.657,28.093-27.925c9.216-9.261,18.286-18.376,27.064-27.196
						c8.744-8.853,17.197-17.41,25.214-25.525c7.993-8.137,15.552-15.831,22.526-22.933c6.943-7.135,13.363-13.621,18.956-19.465
						c2.817-2.903,5.452-5.619,7.89-8.131c2.451-2.498,4.689-4.806,6.696-6.905c2.003-2.103,3.826-3.946,5.405-5.556
						c1.556-1.635,2.877-3.025,3.988-4.114c2.143-2.258,3.285-3.462,3.285-3.462l3.238,3.239c0,0-1.203,1.142-3.461,3.284
						c-1.088,1.112-2.48,2.434-4.114,3.989c-1.61,1.58-3.452,3.403-5.556,5.406c-2.1,2.007-4.407,4.245-6.906,6.696
						c-2.512,2.438-5.228,5.073-8.131,7.89c-5.844,5.593-12.33,12.012-19.465,18.955c-7.102,6.977-14.795,14.534-22.934,22.527
						c-8.113,8.016-16.672,16.47-25.523,25.214c-8.82,8.777-17.936,17.847-27.196,27.063c-9.269,9.21-18.556,18.693-27.925,28.094
						c-9.328,9.443-18.654,18.886-27.836,28.182c-9.137,9.341-18.127,18.534-26.828,27.431c-4.341,4.458-8.609,8.842-12.787,13.132
						c-4.193,4.275-8.269,8.485-12.221,12.599c-7.924,8.208-15.414,15.968-22.329,23.131C8.493,274.749-9.856,293.94-9.856,293.94
						L-15.581,288.217z"/>
					<g>
						<g>
							
								<radialGradient id="SVGID_00000041292400253389980620000005705603651297067922_" cx="139.56" cy="141.5123" r="161.8055" gradientUnits="userSpaceOnUse">
								<stop  offset="0" style="stop-color:#3A3A3A"/>
								<stop  offset="0.2552" style="stop-color:#363636"/>
								<stop  offset="0.5256" style="stop-color:#292929"/>
								<stop  offset="0.802" style="stop-color:#141414"/>
								<stop  offset="1" style="stop-color:#000000"/>
							</radialGradient>
							<path style="fill:url(#SVGID_00000041292400253389980620000005705603651297067922_);" d="M-9.737,304.668l-11.147-11.148
								l2.121-2.121l8.978,8.979l49.037-51.287l27.657-28.625c23.677-24.419,48.673-49.921,74.295-75.801
								c26.965-27.194,51.55-51.711,75.161-74.953l18.911-18.608c6.24-6.148,12.621-12.389,18.965-18.548l28.996-28.176
								c3.016-2.934,6.134-5.969,9.093-8.75l3.363-3.16l-9.804-9.804l-3.161,3.362c-2.852,3.035-5.965,6.233-8.975,9.325
								l-27.951,28.765c-6.126,6.309-12.367,12.69-18.549,18.965l-18.605,18.911c-23.201,23.57-47.719,48.155-74.953,75.16
								c-25.91,25.652-51.412,50.648-75.8,74.294c-20.481,19.892-41.491,39.972-61.811,59.39l-14.776,14.127l-2.073-2.168
								l14.776-14.127c20.314-19.415,41.32-39.49,61.795-59.376c24.381-23.639,49.876-48.627,75.777-74.271
								c27.225-26.996,51.733-51.572,74.926-75.133l18.606-18.911c6.178-6.271,12.413-12.646,18.534-18.951l27.953-28.767
								c3.002-3.083,6.105-6.271,8.94-9.288l5.28-5.617l14.18,14.18l-5.618,5.28c-2.94,2.763-6.049,5.788-9.056,8.713
								l-28.997,28.178c-6.34,6.154-12.715,12.39-18.951,18.534L218.47,71.85c-23.602,23.232-48.178,47.741-75.134,74.926
								c-25.614,25.872-50.603,51.367-74.271,75.775l-27.649,28.617L-9.737,304.668z"/>
						</g>
						<g>
							
								<radialGradient id="SVGID_00000142157272692109979100000005741407437573630132_" cx="140.6948" cy="139.0684" r="153.869" gradientUnits="userSpaceOnUse">
								<stop  offset="0" style="stop-color:#3A3A3A"/>
								<stop  offset="0.2552" style="stop-color:#363636"/>
								<stop  offset="0.5256" style="stop-color:#292929"/>
								<stop  offset="0.802" style="stop-color:#141414"/>
								<stop  offset="1" style="stop-color:#000000"/>
							</radialGradient>
							<path style="fill:url(#SVGID_00000142157272692109979100000005741407437573630132_);" d="M-10.398,293.637l-2.074-2.168
								l14.733-14.083c20.332-19.431,41.355-39.524,61.898-59.474c24.421-23.679,49.949-48.701,75.879-74.371
								c27.256-27.028,51.794-51.635,75.016-75.225l18.631-18.937c6.148-6.241,12.398-12.631,18.578-18.994l28.148-28.967
								c1.212-1.246,2.396-2.463,3.578-3.684l-3.364-3.364c-1.163,1.126-2.325,2.257-3.514,3.413l-29.138,28.314
								c-6.33,6.145-12.72,12.395-18.994,18.577l-18.937,18.633c-23.59,23.221-48.196,47.759-75.226,75.017
								c-25.637,25.895-50.658,51.424-74.368,75.876l-27.687,28.656l-42.691,44.648l-2.47-2.469l2.121-2.121l0.3,0.299
								l40.576-42.436l27.695-28.663c23.718-24.462,48.746-49.998,74.392-75.901c27.039-27.267,51.653-51.814,75.252-75.044
								l18.935-18.632c6.279-6.186,12.676-12.441,19.01-18.591L275.02-4.367c1.177-1.146,2.329-2.267,3.483-3.384l-0.329-0.329
								l0.679-0.009c1.701-1.644,3.412-3.285,5.221-4.987l2.574-2.424l-0.097,7.309l7.31-0.097l-2.425,2.575
								c-1.702,1.807-3.344,3.519-4.987,5.22l-0.009,0.679l-0.33-0.33c-1.172,1.211-2.348,2.419-3.55,3.655l-28.147,28.965
								c-6.183,6.368-12.438,12.763-18.591,19.009l-18.631,18.936c-23.23,23.599-47.777,48.213-75.043,75.251
								c-25.938,25.678-51.474,50.707-75.902,74.392c-20.549,19.957-41.577,40.055-61.914,59.49L-10.398,293.637z"/>
						</g>
					</g>
				</g>
				<g>
					<path style="fill:#292425;" d="M-15.47,256.508c0,0,4.286-4.105,11.787-11.289c7.516-7.168,18.194-17.466,30.994-29.839
						c6.4-6.184,13.336-12.885,20.671-19.972c7.299-7.123,14.995-14.634,22.958-22.405c0.998-0.969,1.998-1.943,3.004-2.92
						c1.031-0.951,2.031-1.941,3.039-2.931c2.018-1.978,4.048-3.971,6.092-5.975c4.082-4.014,8.213-8.078,12.377-12.173
						c8.364-8.155,16.747-16.554,25.201-24.881c8.455-8.327,16.85-16.715,25.104-24.98c8.244-8.275,16.424-16.354,24.221-24.29
						c7.835-7.897,15.409-15.532,22.592-22.771c7.153-7.269,13.916-14.141,20.159-20.484c0.779-0.794,1.55-1.58,2.314-2.357
						c0.758-0.781,1.473-1.589,2.234-2.333c1.5-1.512,2.965-2.988,4.395-4.428c2.785-2.951,5.521-5.655,8.043-8.247
						c5.049-5.178,9.449-9.691,13.074-13.409c1.777-1.895,3.443-3.506,4.809-4.992c1.41-1.442,2.608-2.669,3.58-3.664
						c1.953-1.98,2.949-3.082,2.949-3.081l3.328,3.327c0,0-1.102,0.997-3.081,2.95c-0.995,0.972-2.222,2.17-3.664,3.579
						c-1.485,1.366-3.097,3.033-4.991,4.809c-3.717,3.625-8.232,8.026-13.41,13.075c-2.592,2.521-5.295,5.259-8.246,8.043
						c-1.439,1.428-2.916,2.894-4.428,4.393c-0.744,0.762-1.553,1.477-2.334,2.236c-0.777,0.763-1.563,1.534-2.356,2.313
						c-6.343,6.243-13.216,13.006-20.483,20.159c-7.24,7.183-14.875,14.757-22.771,22.592c-7.937,7.797-16.016,15.976-24.29,24.22
						c-8.265,8.255-16.653,16.648-24.979,25.103c-8.328,8.455-16.727,16.837-24.883,25.202c-4.096,4.164-8.158,8.295-12.172,12.377
						c-2.006,2.043-3.998,4.074-5.975,6.091c-0.99,1.007-1.98,2.007-2.932,3.039c-0.977,1.005-1.951,2.006-2.92,3.004
						c-7.771,7.962-15.283,15.659-22.406,22.958c-7.086,7.335-13.787,14.27-19.971,20.671c-12.374,12.8-22.672,23.479-29.84,30.994
						c-7.184,7.501-11.289,11.787-11.289,11.787L-15.47,256.508z"/>
					<g>
						<g>
							
								<radialGradient id="SVGID_00000088813311247294227180000000177299457829002650_" cx="122.5947" cy="126.8923" r="144.608" gradientUnits="userSpaceOnUse">
								<stop  offset="0" style="stop-color:#3A3A3A"/>
								<stop  offset="0.2552" style="stop-color:#363636"/>
								<stop  offset="0.5256" style="stop-color:#292929"/>
								<stop  offset="0.802" style="stop-color:#141414"/>
								<stop  offset="1" style="stop-color:#000000"/>
							</radialGradient>
							<path style="fill:url(#SVGID_00000088813311247294227180000000177299457829002650_);" d="M-9.854,272.73l-10.918-10.92
								l2.121-2.121l8.754,8.756l36.062-37.537c11.114-11.543,21.998-22.836,32.982-34.119L92.29,162.84l33.33-33.792
								c23.947-24.107,45.904-46.036,67.131-67.043l33.803-33.27l31.748-30.953c0.305-0.328,0.622-0.694,0.927-1.076
								c1.372-1.694,2.302-3.585,2.843-4.873l0.345-0.823l-5.668-5.667l-2.534,2.646l-0.454,0.095
								c-1.219,0.253-4.243,0.882-5.942,1.24c-0.057,0.02-0.112,0.039-0.167,0.055l0.001,0.009
								c-0.015,0.003-0.036,0.006-0.063,0.011L217.81,19.982l-33.271,33.805c-21.041,21.26-42.971,43.217-67.042,67.129
								l-33.793,33.33l-8.47,8.319l-8.502,8.257l-16.979,16.57C29.2,207.342,7.487,228.27-18.581,253.258l-2.076-2.166
								c26.063-24.983,47.771-45.907,68.316-65.849l33.939-33.135l33.787-33.324c24.061-23.903,45.984-45.854,67.018-67.105
								l33.264-33.797l29.066-29.851c-0.015-0.762,0.484-1.111,1.297-1.36l-0.004-0.025c0.047-0.008,0.156-0.029,0.287-0.054
								c0.314-0.082,0.668-0.157,1.048-0.237c1.019-0.214,2.689-0.563,5.331-1.113l4.008-4.188l9.262,9.259l-1.124,2.68
								c-0.616,1.469-1.684,3.631-3.27,5.593c-0.347,0.434-0.713,0.856-1.088,1.259l-2.08,2.069l-12.785,12.412l-16.961,16.552
								L194.858,64.14c-21.217,20.999-43.168,42.921-67.106,67.019l-33.323,33.785l-8.313,8.466l-8.246,8.49l-16.575,16.984
								c-10.977,11.276-21.858,22.566-32.969,34.104L-9.854,272.73z"/>
						</g>
						<g>
							
								<radialGradient id="SVGID_00000160170684201049109650000008602284128360067768_" cx="123.7598" cy="125.1397" r="136.4506" gradientUnits="userSpaceOnUse">
								<stop  offset="0" style="stop-color:#3A3A3A"/>
								<stop  offset="0.2552" style="stop-color:#363636"/>
								<stop  offset="0.5256" style="stop-color:#292929"/>
								<stop  offset="0.802" style="stop-color:#141414"/>
								<stop  offset="1" style="stop-color:#000000"/>
							</radialGradient>
							<path style="fill:url(#SVGID_00000160170684201049109650000008602284128360067768_);" d="M-10.28,261.924l-2.076-2.166
								c26.211-25.125,47.938-46.068,68.379-65.909l33.98-33.175l33.803-33.339c24.021-23.861,45.981-45.85,67.134-67.221
								l33.325-33.861l26.713-27.429c-0.549,0.113-1.142,0.234-1.775,0.364l-4.707,0.967l4.935-5.158l-0.557-0.557L237.291,5.683
								l-17.007,16.597l-33.859,33.324c-21.356,21.137-43.346,43.097-67.223,67.135l-33.338,33.8l-8.312,8.464l-8.28,8.524
								l-16.584,16.994c-10.952,11.25-21.861,22.569-33.004,34.141l-29.724,30.913l-2.247-2.248l2.121-2.121l0.084,0.084
								l27.604-28.708c11.147-11.576,22.059-22.898,33.018-34.155l33.186-33.992l33.345-33.807
								c23.886-24.047,45.882-46.014,67.247-67.159l33.866-33.332l32.646-31.781l0.786,2.373c0.012,0.015,0.14,0.187,0.409,0.297
								l0.577,0.237l1.187,2.863l0.383,0.256l-0.193,0.203l0.215,0.52c0.049-0.009,0.094-0.019,0.14-0.028
								c0.375-0.076,0.723-0.147,1.04-0.196c0.137-0.03,0.25-0.055,0.296-0.066l0.007,0.026c0.009-0.001,0.019-0.002,0.027-0.003
								l4.174-0.838l-2.317,2.371c-0.018,0.826-0.702,1.185-1.28,1.366l0.001,0.011c-0.017,0.003-0.044,0.008-0.081,0.016
								l-0.636,0.649l1.921,4.637l-3.26-3.259l-11.215,11.551l-16.602,17.013l-33.332,33.868
								c-21.162,21.38-43.129,43.375-67.159,67.245l-33.809,33.346l-8.468,8.317l-8.536,8.291l-16.988,16.579
								C37.667,215.847,15.935,236.795-10.28,261.924z"/>
						</g>
					</g>
				</g>
				<g>
					<path style="fill:#292425;" d="M-15.536,224.621c0,0,3.772-3.625,10.373-9.968c3.299-3.172,7.307-7.023,11.903-11.441
						c4.603-4.412,9.761-9.423,15.376-14.903c11.241-10.948,24.355-23.721,38.408-37.407c3.508-3.426,7.103-6.881,10.662-10.459
						c3.6-3.536,7.244-7.114,10.918-10.721c7.326-7.237,14.768-14.588,22.209-21.939c7.418-7.376,14.835-14.752,22.137-22.012
						c3.603-3.677,7.276-7.228,10.826-10.814c1.771-1.798,3.531-3.584,5.279-5.358c1.764-1.757,3.517-3.501,5.254-5.23
						c6.945-6.923,13.555-13.721,19.941-20.047c6.313-6.4,12.281-12.451,17.791-18.036c10.984-11.205,20.139-20.542,26.547-27.078
						c6.389-6.554,10.041-10.299,10.041-10.299l3.682,3.683c0,0-3.744,3.651-10.299,10.041
						c-6.536,6.408-15.873,15.562-27.078,26.547c-5.586,5.509-11.637,11.478-18.036,17.791c-6.325,6.387-13.124,12.996-20.048,19.94
						c-1.729,1.738-3.473,3.49-5.229,5.255c-1.773,1.747-3.561,3.507-5.357,5.278c-3.587,3.55-7.137,7.224-10.814,10.827
						c-7.26,7.301-14.637,14.719-22.012,22.136c-7.352,7.442-14.703,14.883-21.939,22.209c-3.607,3.674-7.186,7.318-10.722,10.919
						c-3.577,3.559-7.032,7.153-10.459,10.661c-13.685,14.052-26.458,27.167-37.407,38.408c-5.479,5.615-10.49,10.774-14.902,15.376
						c-4.418,4.597-8.269,8.604-11.441,11.904c-6.344,6.601-9.969,10.372-9.969,10.372L-15.536,224.621z"/>
					<g>
						<g>
							
								<radialGradient id="SVGID_00000128454485188098837550000017090543561895315597_" cx="107.8227" cy="109.6021" r="130.0212" gradientUnits="userSpaceOnUse">
								<stop  offset="0" style="stop-color:#3A3A3A"/>
								<stop  offset="0.2552" style="stop-color:#363636"/>
								<stop  offset="0.5256" style="stop-color:#292929"/>
								<stop  offset="0.802" style="stop-color:#141414"/>
								<stop  offset="1" style="stop-color:#000000"/>
							</radialGradient>
							<path style="fill:url(#SVGID_00000128454485188098837550000017090543561895315597_);" d="M-9.794,240.969l-11.045-11.044
								l2.121-2.121l8.881,8.88l17.678-18.395l14.52-15.039l43.761-44.969l14.62-14.907l29.387-29.793l29.484-29.618l29.681-29.547
								c17.565-17.41,36.521-36.031,59.66-58.603l3.263-3.183L222.09-17.495l-3.183,3.262
								c-22.695,23.263-41.315,42.22-58.602,59.658l-29.545,29.679l-29.616,29.484L71.35,133.976l-14.906,14.619l-44.97,43.762
								c-6.581,6.406-13.343,12.896-19.883,19.174c-3.418,3.281-6.836,6.561-10.244,9.845l-2.081-2.16
								c3.409-3.284,6.829-6.566,10.248-9.849c6.536-6.273,13.294-12.76,19.868-19.159l44.965-43.757l14.899-14.612l29.787-29.38
								l29.606-29.474l29.538-29.672c17.277-17.43,35.894-36.381,58.582-59.639l5.304-5.437l14.421,14.421l-5.437,5.304
								c-23.133,22.566-42.084,41.182-59.641,58.584l-29.674,29.54l-29.475,29.608L82.88,145.478l-14.613,14.9l-43.752,44.96
								L10.002,220.37L-9.794,240.969z"/>
						</g>
						<g>
							
								<radialGradient id="SVGID_00000060738503924034987780000003048932502270860693_" cx="108.794" cy="107.3707" r="121.9369" gradientUnits="userSpaceOnUse">
								<stop  offset="0" style="stop-color:#3A3A3A"/>
								<stop  offset="0.2552" style="stop-color:#363636"/>
								<stop  offset="0.5256" style="stop-color:#292929"/>
								<stop  offset="0.802" style="stop-color:#141414"/>
								<stop  offset="1" style="stop-color:#000000"/>
							</radialGradient>
							<path style="fill:url(#SVGID_00000060738503924034987780000003048932502270860693_);" d="M-10.338,230.027l-2.081-2.16
								c3.434-3.309,6.87-6.606,10.306-9.904c6.509-6.249,13.239-12.709,19.84-19.133l44.999-43.79l14.967-14.678l29.788-29.381
								l29.691-29.559l29.494-29.628c16.02-16.162,33.109-33.547,53.407-54.335l-2.811-2.811
								c-20.768,20.277-38.152,37.366-54.338,53.409l-29.631,29.497l-29.559,29.691l-29.379,29.787l-14.68,14.968L15.89,196.993
								l-25.855,26.835l-2.389-2.389l2.122-2.121l0.225,0.225l23.743-24.638l43.795-45.003l14.687-14.975l29.387-29.794
								l29.568-29.701l29.638-29.504c16.187-16.044,33.569-33.13,54.33-53.402l-0.852-0.852l1.736-0.011
								c1.5-1.463,3.018-2.944,4.552-4.441l2.57-2.507l-0.044,6.904l6.904-0.044l-2.508,2.57c-1.498,1.535-2.979,3.053-4.441,4.551
								l-0.012,1.737l-0.852-0.853c-20.292,20.782-37.379,38.165-53.4,54.328l-29.501,29.635l-29.701,29.569L79.796,142.5
								l-14.975,14.685L19.819,200.98c-6.607,6.43-13.342,12.895-19.855,19.146C-3.47,223.424-6.905,226.721-10.338,230.027z"/>
						</g>
					</g>
				</g>
				<g>
					<path style="fill:#292425;" d="M-15.735,192.602c0,0,13.008-12.6,32.521-31.5c4.814-4.788,10.149-9.858,15.719-15.292
						c5.551-5.453,11.404-11.203,17.459-17.152c6.051-5.953,12.305-12.105,18.657-18.356c6.339-6.266,12.776-12.631,19.216-18.997
						c6.43-6.374,12.859-12.749,19.188-19.024c6.296-6.308,12.493-12.515,18.491-18.522c11.965-12.042,23.133-23.282,32.705-32.916
						c19.04-19.374,31.732-32.29,31.732-32.29l4.393,4.392c0,0-12.916,12.693-32.289,31.733
						c-9.634,9.572-20.873,20.741-32.916,32.706c-6.007,5.997-12.215,12.194-18.521,18.491c-6.275,6.329-12.65,12.759-19.025,19.188
						c-6.365,6.438-12.73,12.878-18.996,19.216c-6.252,6.354-12.403,12.606-18.356,18.657c-5.948,6.056-11.698,11.909-17.151,17.46
						c-5.436,5.569-10.504,10.903-15.293,15.718c-18.9,19.513-31.5,32.522-31.5,32.522L-15.735,192.602z"/>
					<g>
						<g>
							
								<radialGradient id="SVGID_00000125583767711361266610000014531128520084682624_" cx="91.9809" cy="93.6141" r="114.375" gradientUnits="userSpaceOnUse">
								<stop  offset="0" style="stop-color:#3A3A3A"/>
								<stop  offset="0.2552" style="stop-color:#363636"/>
								<stop  offset="0.5256" style="stop-color:#292929"/>
								<stop  offset="0.802" style="stop-color:#141414"/>
								<stop  offset="1" style="stop-color:#000000"/>
							</radialGradient>
							<path style="fill:url(#SVGID_00000125583767711361266610000014531128520084682624_);" d="M-9.616,209.328l-11.423-11.423
								l2.121-2.121l9.268,9.268l28.357-29.277l25.26-25.956l50.822-51.584c16.135-16.323,32.873-33.076,51.172-51.218
								c14.596-14.569,29.558-29.267,44.027-43.48l10.752-10.563l-10.813-10.813L179.317-7.04
								c-14.199,14.454-28.881,29.401-43.438,43.984c-18.041,18.197-34.793,34.936-51.213,51.167l-51.578,50.817
								c-12.707,12.437-25.674,24.99-38.213,37.131c-4.582,4.436-9.164,8.872-13.742,13.311l-2.088-2.154
								c4.578-4.439,9.16-8.875,13.742-13.311c12.537-12.138,25.502-24.689,38.198-37.116L82.56,85.976
								c16.41-16.223,33.156-32.954,51.193-51.148c14.553-14.578,29.23-29.521,43.424-43.971L189.908-22.1l15.093,15.092
								L192.089,5.677c-14.465,14.21-29.423,28.902-44.014,43.467c-18.295,18.138-35.025,34.884-51.152,51.198l-50.814,51.575
								l-25.25,25.946L-9.616,209.328z"/>
						</g>
						<g>
							
								<radialGradient id="SVGID_00000172431343349578405610000012410039932669011123_" cx="92.6099" cy="91.5313" r="105.8387" gradientUnits="userSpaceOnUse">
								<stop  offset="0" style="stop-color:#3A3A3A"/>
								<stop  offset="0.2552" style="stop-color:#363636"/>
								<stop  offset="0.5256" style="stop-color:#292929"/>
								<stop  offset="0.802" style="stop-color:#141414"/>
								<stop  offset="1" style="stop-color:#000000"/>
							</radialGradient>
							<path style="fill:url(#SVGID_00000172431343349578405610000012410039932669011123_);" d="M-10.518,197.989l-2.089-2.154
								c4.541-4.401,9.084-8.8,13.627-13.198c12.602-12.2,25.633-24.816,38.365-37.278l51.617-50.855
								c16.453-16.266,33.223-33.021,51.266-51.221c14.617-14.643,29.352-29.645,43.604-44.153l2.008-2.044l-2.064-2.065
								l-2.142,2.103c-14.475,14.22-29.445,28.923-44.052,43.504c-18.303,18.145-35.057,34.915-51.227,51.272l-50.857,51.619
								L12.284,169.47l-22.037,22.75l-2.801-2.801l2.121-2.121l0.646,0.645l19.918-20.564l25.263-25.96l50.867-51.628
								C102.438,73.426,119.2,56.65,137.506,38.5c14.612-14.585,29.585-29.293,44.065-43.517l2.122-2.084l-1.587-1.587l3.217-0.014
								l6.334-6.224L191.63-8.73l6.196-0.027l-6.224,6.334l-0.014,3.217l-1.587-1.587l-1.989,2.025
								c-14.256,14.513-28.996,29.519-43.617,44.167C126.35,63.602,109.573,80.364,93.11,96.639l-51.623,50.86
								c-12.742,12.471-25.775,25.09-38.381,37.293C-1.436,189.19-5.977,193.588-10.518,197.989z"/>
						</g>
					</g>
				</g>
				<g>
					<path style="fill:#292425;" d="M-16.112,160.405c0,0,2.74-2.667,7.537-7.334c2.398-2.333,5.311-5.167,8.651-8.417
						c1.671-1.625,3.448-3.354,5.321-5.177c0.469-0.456,0.943-0.917,1.424-1.385c0.478-0.468,1.018-0.888,1.506-1.372
						c0.979-0.96,1.982-1.943,3.006-2.947c8.191-8.033,17.748-17.404,27.986-27.444c10.209-10.07,21.1-20.811,31.99-31.552
						c5.428-5.387,10.857-10.773,16.201-16.076c5.322-5.325,10.558-10.565,15.627-15.636c10.104-10.176,19.535-19.673,27.617-27.813
						c8.068-8.156,14.791-14.952,19.498-19.709c4.691-4.772,7.371-7.499,7.371-7.499l5.414,5.413c0,0-2.729,2.681-7.5,7.372
						c-4.758,4.707-11.555,11.43-19.709,19.497c-8.141,8.083-17.639,17.513-27.813,27.617c-5.072,5.068-10.313,10.306-15.637,15.627
						c-5.303,5.344-10.689,10.773-16.076,16.202c-10.742,10.89-21.482,21.78-31.553,31.99C34.71,122,25.339,131.556,17.308,139.747
						c-1.004,1.024-1.986,2.027-2.947,3.007c-0.484,0.487-0.904,1.026-1.373,1.505c-0.467,0.48-0.928,0.955-1.385,1.423
						c-1.822,1.874-3.551,3.651-5.176,5.321c-3.25,3.34-6.084,6.253-8.418,8.651c-4.666,4.797-7.334,7.538-7.334,7.538
						L-16.112,160.405z"/>
					<g>
						<g>
							
								<radialGradient id="SVGID_00000144299537355466582340000007341761851165293720_" cx="76.1363" cy="77.6329" r="98.9054" gradientUnits="userSpaceOnUse">
								<stop  offset="0" style="stop-color:#3A3A3A"/>
								<stop  offset="0.2552" style="stop-color:#363636"/>
								<stop  offset="0.5256" style="stop-color:#292929"/>
								<stop  offset="0.802" style="stop-color:#141414"/>
								<stop  offset="1" style="stop-color:#000000"/>
							</radialGradient>
							<path style="fill:url(#SVGID_00000144299537355466582340000007341761851165293720_);" d="M-9.251,177.873l-12.165-12.165
								l2.121-2.121l10.015,10.014l24.514-25.196c0.56-0.555,1.063-1.104,1.566-1.654c0.335-0.365,0.67-0.73,1.016-1.093
								l18.764-19.136l42.918-43.581c16.485-16.641,30.219-30.386,43.225-43.259l21.707-21.535l25.002-24.661l-11.836-11.836
								L132.936,6.648L111.397,28.36c-12.77,12.901-26.515,26.635-43.255,43.22L24.562,114.5L5.438,133.251
								c-0.378,0.36-0.743,0.696-1.108,1.03c-0.549,0.503-1.098,1.004-1.633,1.546l-21.947,21.353l-2.092-2.15l21.926-21.333
								c0.551-0.557,1.135-1.092,1.719-1.627c0.352-0.322,0.703-0.643,1.051-0.976l19.105-18.734l43.576-42.914
								c16.73-16.574,30.469-30.302,43.232-43.197l21.537-21.711l26.777-27.146L173.689-6.5l-27.149,26.779l-21.706,21.533
								C111.834,54.68,98.106,68.419,81.632,85.049l-42.913,43.576l-18.746,19.117c-0.317,0.333-0.64,0.685-0.962,1.036
								c-0.535,0.585-1.072,1.169-1.646,1.738L-9.251,177.873z"/>
						</g>
						<g>
							
								<radialGradient id="SVGID_00000039817722920819558210000008675318308959973556_" cx="73.4014" cy="78.5421" r="86.8084" gradientUnits="userSpaceOnUse">
								<stop  offset="0" style="stop-color:#3A3A3A"/>
								<stop  offset="0.2552" style="stop-color:#363636"/>
								<stop  offset="0.5256" style="stop-color:#292929"/>
								<stop  offset="0.802" style="stop-color:#141414"/>
								<stop  offset="1" style="stop-color:#000000"/>
							</radialGradient>
							<path style="fill:url(#SVGID_00000039817722920819558210000008675318308959973556_);" d="M-10.883,165.781l-2.092-2.15
								l3.269-3.181l-3.226-3.226l2.121-2.121l1.412,1.412l16.031-16.478c0.555-0.551,1.076-1.118,1.596-1.685
								c0.346-0.376,0.69-0.751,1.039-1.117l18.749-19.121l42.949-43.612c16.531-16.687,30.288-30.455,43.295-43.33L154.52-8.697
								l5.257,5.256l-39.868,40.26C107.067,49.792,93.3,63.548,76.582,80.111l-43.612,42.95l-19.107,18.736
								c-0.379,0.36-0.751,0.703-1.124,1.045c-0.569,0.523-1.141,1.046-1.673,1.585L-10.883,165.781z M154.511-4.464l-38.139,37.768
								c-13,12.869-26.75,26.629-43.271,43.307l-42.943,43.607l-18.732,19.103c-0.32,0.337-0.653,0.699-0.986,1.062
								c-0.552,0.601-1.106,1.203-1.674,1.767l-6.055,6.224l6.243-6.075c0.546-0.551,1.151-1.108,1.757-1.664
								c0.359-0.33,0.719-0.66,1.067-0.992l19.089-18.719l43.607-42.945c16.709-16.552,30.469-30.302,43.304-43.268L155.545-3.43
								L154.511-4.464z"/>
						</g>
					</g>
				</g>
				<g>
					<path style="fill:#292425;" d="M-16.623,128.075c0,0,8.915-8.739,22.288-21.847c6.686-6.554,14.486-14.2,22.844-22.393
						c4.18-4.096,8.498-8.329,12.885-12.63c1.098-1.075,2.199-2.155,3.303-3.238l1.656-1.629c0.541-0.557,1.039-1.156,1.606-1.688
						c2.21-2.186,4.429-4.381,6.646-6.577c4.437-4.39,8.873-8.781,13.24-13.103c4.399-4.289,8.581-8.659,12.778-12.737
						c4.059-4.216,8.188-8.087,11.918-11.942c0.941-0.955,1.869-1.898,2.783-2.827c0.449-0.471,0.922-0.913,1.4-1.341
						c0.472-0.436,0.91-0.896,1.355-1.343c1.773-1.795,3.488-3.529,5.133-5.194c6.582-6.659,12.066-12.208,15.904-16.093
						c0.938-0.994,1.9-1.755,2.611-2.544c0.741-0.759,1.371-1.405,1.883-1.929c1.01-1.058,1.549-1.622,1.549-1.622l6.699,6.699
						c0,0-0.563,0.539-1.621,1.55c-0.523,0.511-1.17,1.141-1.93,1.881c-0.788,0.711-1.549,1.674-2.543,2.611
						c-3.885,3.839-9.434,9.323-16.092,15.904c-1.666,1.646-3.4,3.359-5.195,5.133c-0.445,0.445-0.907,0.884-1.343,1.355
						c-0.429,0.478-0.87,0.951-1.341,1.401c-0.93,0.914-1.871,1.842-2.828,2.783c-3.853,3.731-7.726,7.859-11.941,11.918
						c-4.078,4.197-8.447,8.378-12.736,12.778c-4.322,4.367-8.713,8.804-13.104,13.24c-2.195,2.218-4.39,4.437-6.576,6.647
						c-0.531,0.567-1.131,1.066-1.688,1.606l-1.629,1.656c-1.084,1.104-2.162,2.206-3.238,3.303
						c-4.301,4.388-8.533,8.706-12.631,12.885c-8.191,8.357-15.838,16.158-22.393,22.844
						c-13.107,13.373-21.847,22.288-21.847,22.288L-16.623,128.075z"/>
					<g>
						<g>
							
								<radialGradient id="SVGID_00000111165994220857700790000009445884757664484286_" cx="60.3242" cy="61.6141" r="83.6009" gradientUnits="userSpaceOnUse">
								<stop  offset="0" style="stop-color:#3A3A3A"/>
								<stop  offset="0.2552" style="stop-color:#363636"/>
								<stop  offset="0.5256" style="stop-color:#292929"/>
								<stop  offset="0.802" style="stop-color:#141414"/>
								<stop  offset="1" style="stop-color:#000000"/>
							</radialGradient>
							<path style="fill:url(#SVGID_00000111165994220857700790000009445884757664484286_);" d="M-8.761,146.544l-13.166-13.165
								l2.121-2.121l11.024,11.022L55.515,76.69c0.431-0.455,0.979-0.976,1.529-1.497c0.275-0.26,0.549-0.52,0.811-0.773
								l6.508-6.577c12.943-13.098,24.443-24.652,35.161-35.321L128.286,3.98c0.387-0.371,0.75-0.746,1.225-1.235
								c0.445-0.458,0.984-1.014,1.707-1.738c1.781-1.78,3.64-3.551,5.438-5.263c0.547-0.52,1.092-1.04,1.636-1.56l-13.214-13.213
								c-0.51,0.533-1.019,1.068-1.528,1.604c-1.723,1.809-3.504,3.68-5.294,5.47c-0.711,0.71-1.268,1.252-1.732,1.702
								c-0.492,0.478-0.875,0.85-1.226,1.215L86.739,19.735C76.098,30.426,64.544,41.928,51.416,54.898l-6.595,6.529
								c-0.236,0.242-0.496,0.518-0.758,0.792c-0.518,0.548-1.037,1.094-1.51,1.543l-62.326,61.099l-2.1-2.143l62.343-61.115
								c0.456-0.433,0.935-0.94,1.415-1.447c0.27-0.285,0.541-0.57,0.805-0.842l6.616-6.55
								c13.122-12.966,24.671-24.462,35.306-35.145l28.535-28.753c0.355-0.372,0.763-0.768,1.286-1.276
								c0.456-0.443,1.003-0.974,1.701-1.671c1.763-1.763,3.531-3.62,5.241-5.417c0.867-0.91,1.732-1.819,2.6-2.719l1.06-1.1
								l17.54,17.54l-1.1,1.06c-0.91,0.878-1.83,1.754-2.751,2.631c-1.785,1.7-3.631,3.458-5.384,5.211
								c-0.71,0.711-1.24,1.257-1.678,1.707c-0.504,0.521-0.892,0.918-1.285,1.296l-28.74,28.52
								C90.929,45.312,79.433,56.86,66.496,69.953l-6.53,6.598c-0.29,0.282-0.574,0.552-0.859,0.821
								c-0.508,0.482-1.018,0.963-1.434,1.401L-8.761,146.544z"/>
						</g>
						<g>
							
								<radialGradient id="SVGID_00000112603435008320050840000005795060501486876584_" cx="56.8999" cy="62.7095" r="70.5478" gradientUnits="userSpaceOnUse">
								<stop  offset="0" style="stop-color:#3A3A3A"/>
								<stop  offset="0.2552" style="stop-color:#363636"/>
								<stop  offset="0.5256" style="stop-color:#292929"/>
								<stop  offset="0.802" style="stop-color:#141414"/>
								<stop  offset="1" style="stop-color:#000000"/>
							</radialGradient>
							<path style="fill:url(#SVGID_00000112603435008320050840000005795060501486876584_);" d="M-11.374,133.431l-2.1-2.143
								l3.246-3.182l-3.213-3.214l2.121-2.121l2.451,2.452l55.891-57.013c0.525-0.55,1.015-1.009,1.505-1.469
								c0.228-0.214,0.456-0.428,0.69-0.655l6.615-6.685c13.018-13.173,24.561-24.77,35.291-35.451l32.195-31.964l1.056,1.007
								c0.622,0.595,1.296,1.268,1.892,1.891l1.007,1.055L95.31,28.136C84.667,38.828,73.071,50.371,59.856,63.428l-6.707,6.638
								c-0.205,0.213-0.42,0.443-0.637,0.673c-0.459,0.489-0.918,0.977-1.479,1.514L-11.374,133.431z"/>
						</g>
					</g>
				</g>
				<g>
					<path style="fill:#292425;" d="M-17.267,95.612c0,0,0.412-0.443,1.209-1.249c0.801-0.801,1.963-1.99,3.482-3.463
						c0.381-0.366,0.768-0.768,1.201-1.16c0.435-0.391,0.926-0.766,1.376-1.217c0.909-0.895,1.892-1.862,2.941-2.895
						c2.101-2.067,4.47-4.399,7.054-6.943c10.324-10.19,24.09-23.777,37.855-37.365c3.436-3.402,6.873-6.803,10.256-10.152
						c3.365-3.366,6.678-6.678,9.883-9.883c6.41-6.411,12.395-12.394,17.524-17.523C80.653-1.355,84.896-5.66,87.869-8.67
						c2.974-3.009,4.674-4.729,4.674-4.729l8.297,8.297c0,0-1.72,1.7-4.729,4.674c-3.011,2.973-7.315,7.216-12.433,12.356
						C78.55,17.056,72.565,23.039,66.155,29.45c-3.205,3.205-6.518,6.517-9.883,9.884c-3.348,3.382-6.75,6.819-10.152,10.255
						C32.534,63.354,18.946,77.12,8.756,87.444c-2.544,2.584-4.876,4.954-6.942,7.054c-1.033,1.05-2.001,2.033-2.896,2.941
						c-0.452,0.45-0.827,0.94-1.218,1.375c-0.393,0.434-0.793,0.82-1.16,1.202c-1.473,1.519-2.661,2.681-3.463,3.482
						c-0.805,0.796-1.248,1.208-1.248,1.208L-17.267,95.612z"/>
					<g>
						<g>
							
								<radialGradient id="SVGID_00000157306170960730627610000007249902028836757647_" cx="43.3369" cy="44.1423" r="68.1608" gradientUnits="userSpaceOnUse">
								<stop  offset="0" style="stop-color:#3A3A3A"/>
								<stop  offset="0.2552" style="stop-color:#363636"/>
								<stop  offset="0.5256" style="stop-color:#292929"/>
								<stop  offset="0.802" style="stop-color:#141414"/>
								<stop  offset="1" style="stop-color:#000000"/>
							</radialGradient>
							<path style="fill:url(#SVGID_00000157306170960730627610000007249902028836757647_);" d="M-5.976,112.321
								c-0.048,0-0.094-0.002-0.137-0.006l-1.734-0.089c-0.649,0.035-1.168-0.264-1.457-0.432l-1.014-0.582
								c-0.601-0.354-1.202-0.721-1.803-1.109c-1.264-0.815-2.468-1.69-3.578-2.6c-0.574-0.469-1.135-0.955-1.674-1.449
								l-1.485-1.426l-3.712-3.713l2.121-2.121l5.117,5.061c0.484,0.443,1,0.892,1.531,1.326c1.025,0.839,2.138,1.647,3.307,2.402
								c0.567,0.366,1.13,0.71,1.686,1.037l1.018,0.585c0.014,0.008,0.026,0.016,0.039,0.023l1.225,0.063l5.953-5.798l1.477-1.519
								c0.248-0.26,0.441-0.485,0.631-0.707c0.284-0.331,0.563-0.654,0.975-1.059l12.863-13.059L59.521,42.45l14.809-14.81
								C85.897,16.057,95.327,6.67,104.004-1.902l3.22-3.181L92.524-19.782l-3.182,3.22c-8.678,8.78-17.598,17.743-27.268,27.4
								l-3.742,3.743c-7.73,7.735-15.726,15.734-23.648,23.542l-47.341,46.702c-0.339,0.336-0.665,0.655-0.933,0.873l-0.724,0.634
								l-1.385,1.333l0.819-0.16c0.298-0.058,0.578-0.113,0.838-0.156l0.519-0.105l0.002,0.012l4.162-0.806l-2.322,2.366
								c-0.018,0.827-0.689,1.179-1.265,1.352l0.003,0.017c-0.017,0.003-0.047,0.009-0.096,0.018l-0.652,0.674l-0.082,0.203
								l-0.008-0.003c-0.356,0.865-1,2.427-2.101,5.104l-2.774-1.142l1.674-4.069c-0.832,0.163-1.824,0.357-3,0.587l-4.826,0.945
								l8.471-8.387l0.811-0.711c0.246-0.201,0.492-0.45,0.74-0.696L5.053,63.157l27.526-27.17
								c7.914-7.802,15.904-15.796,23.633-23.527l3.742-3.744C69.62-0.937,78.535-9.895,87.208-18.671l5.304-5.366L111.479-5.07
								l-5.367,5.302c-8.672,8.567-18.097,17.95-29.66,29.528L61.647,44.565L4.63,102.327c-0.355,0.351-0.584,0.619-0.818,0.892
								c-0.223,0.26-0.45,0.525-0.75,0.838l-1.51,1.553l-6.346,6.18C-5.206,112.215-5.643,112.321-5.976,112.321z"/>
						</g>
						<g>
							
								<radialGradient id="SVGID_00000102546764707856437860000016148323717121426320_" cx="39.8936" cy="44.618" r="59.0705" gradientUnits="userSpaceOnUse">
								<stop  offset="0" style="stop-color:#3A3A3A"/>
								<stop  offset="0.2552" style="stop-color:#363636"/>
								<stop  offset="0.5256" style="stop-color:#292929"/>
								<stop  offset="0.802" style="stop-color:#141414"/>
								<stop  offset="1" style="stop-color:#000000"/>
							</radialGradient>
							<path style="fill:url(#SVGID_00000102546764707856437860000016148323717121426320_);" d="M-18.469,102.205l-0.747-0.724
								c-0.531-0.069-1.051-0.348-1.207-1.152c-0.001-0.006-0.002-0.013-0.004-0.019l-0.197-0.191l0.158-0.163
								c-0.02-0.77,0.471-1.118,1.276-1.358l-0.005-0.034l0.516-0.098c0.26-0.059,0.541-0.115,0.84-0.174l5.255-1.036l1.667-1.658
								l-3.166-3.167l2.121-2.121l3.181,3.182c0.161-0.159,0.325-0.319,0.54-0.514l1.057-0.943c0.338-0.294,0.582-0.537,0.825-0.778
								l30.622-30.199l26.75-27.07l14.828-14.83C75.099,9.888,82.985,2.026,90.206-5.13l-5.517-5.516l11.124-0.033l2.318-2.291
								l-0.006,2.284l2.285-0.007l-2.293,2.32L98.087,2.751L92.57-2.765c-6.983,7.046-14.364,14.453-22.014,22.092l-3.735,3.736
								c-7.747,7.751-15.759,15.766-23.699,23.594l-16.738,16.52l-30.27,30.694c-0.34,0.33-0.725,0.768-1.1,1.191
								c-0.293,0.331-0.578,0.653-0.826,0.915l-1.115,1.126l-0.264,0.482l-1.557,0.211l-0.063-0.065l-2.25,2.238l-0.499,0.141
								c-3.132,0.617-4.958,0.977-5.968,1.177l0.002,0.012l-0.102,0.036L-18.469,102.205z M94.682-4.896l0.426,0.426l0.003-0.859
								C94.968-5.185,94.825-5.041,94.682-4.896z M91.911-7.667l0.426,0.426c0.145-0.142,0.289-0.286,0.433-0.428L91.911-7.667z"/>
						</g>
					</g>
				</g>
				<g>
					<path style="fill:#292425;" d="M-18.087,62.971c0,0,19.531-19.264,39.061-38.529c9.785-9.613,19.44-19.356,26.738-26.606
						c7.261-7.287,12.102-12.145,12.102-12.145L69.929-4.192c0,0-4.857,4.841-12.145,12.102
						c-7.249,7.298-16.992,16.953-26.605,26.737C11.914,54.178-7.351,73.709-7.351,73.709L-18.087,62.971z"/>
					<g>
						<g>
							
								<radialGradient id="SVGID_00000183219560376426880280000015268045230807262373_" cx="28.5762" cy="29.7139" r="53.319" gradientUnits="userSpaceOnUse">
								<stop  offset="0" style="stop-color:#3A3A3A"/>
								<stop  offset="0.2552" style="stop-color:#363636"/>
								<stop  offset="0.5256" style="stop-color:#292929"/>
								<stop  offset="0.802" style="stop-color:#141414"/>
								<stop  offset="1" style="stop-color:#000000"/>
							</radialGradient>
							<polygon style="fill:url(#SVGID_00000183219560376426880280000015268045230807262373_);" points="-7.313,84.352 
								-23.391,68.274 -21.27,66.153 -7.328,80.095 34.386,37.804 53.719,18.375 76.3,-4.185 59.808,-20.68 37.249,1.898 
								17.823,21.23 -21.247,59.767 -23.354,57.631 15.712,19.099 35.13,-0.225 59.806,-24.924 80.543,-4.184 55.843,20.494 
								36.517,39.915 							"/>
						</g>
						<g>
							
								<radialGradient id="SVGID_00000099654285872478672500000001720375723203903122_" cx="24.3155" cy="30.188" r="38.6866" gradientUnits="userSpaceOnUse">
								<stop  offset="0" style="stop-color:#3A3A3A"/>
								<stop  offset="0.2552" style="stop-color:#363636"/>
								<stop  offset="0.5256" style="stop-color:#292929"/>
								<stop  offset="0.802" style="stop-color:#141414"/>
								<stop  offset="1" style="stop-color:#000000"/>
							</radialGradient>
							<path style="fill:url(#SVGID_00000099654285872478672500000001720375723203903122_);" d="M-12.821,68.311l-2.105-2.136
								l3.226-3.182l-3.204-3.204l2.121-2.121l3.219,3.218L24.13,27.65L59.823-7.935l3.734,3.733L27.965,31.497L-7.372,67.322
								l-2.208-2.208L-12.821,68.311z M-7.444,63.008l0.058,0.058l4.157-4.215L-7.444,63.008z"/>
						</g>
					</g>
				</g>
				<g>
					
						<rect x="-22.198" y="5.635" transform="matrix(0.7071 -0.7071 0.7071 0.7071 -6.6637 11.1831)" style="fill:#292425;" width="64.729" height="16"/>
					<g>
						<g>
							
								<radialGradient id="SVGID_00000173849229540206139400000015431491352373161613_" cx="10.167" cy="10.9832" r="37.8458" gradientUnits="userSpaceOnUse">
								<stop  offset="0" style="stop-color:#3A3A3A"/>
								<stop  offset="0.2552" style="stop-color:#363636"/>
								<stop  offset="0.5256" style="stop-color:#292929"/>
								<stop  offset="0.802" style="stop-color:#141414"/>
								<stop  offset="1" style="stop-color:#000000"/>
							</radialGradient>
							<polygon style="fill:url(#SVGID_00000173849229540206139400000015431491352373161613_);" points="-1.759,47.48 -3.88,45.359 
								45.073,-3.594 27.396,-21.271 -24.739,30.863 -10.244,45.359 -12.365,47.48 -28.981,30.863 27.396,-25.514 49.315,-3.594 
															"/>
						</g>
						<g>
							
								<radialGradient id="SVGID_00000166640302147741224760000008184217066757026219_" cx="9.9897" cy="15.2259" r="23.0727" gradientUnits="userSpaceOnUse">
								<stop  offset="0" style="stop-color:#3A3A3A"/>
								<stop  offset="0.2552" style="stop-color:#363636"/>
								<stop  offset="0.5256" style="stop-color:#292929"/>
								<stop  offset="0.802" style="stop-color:#141414"/>
								<stop  offset="1" style="stop-color:#000000"/>
							</radialGradient>
							<path style="fill:url(#SVGID_00000166640302147741224760000008184217066757026219_);" d="M-3.88,38.995l-3.182-3.182
								l-3.183,3.182l-2.121-2.121l3.183-3.182l-2.828-2.828L27.396-8.543l4.949,4.949L-4.94,33.692l3.182,3.182L-3.88,38.995z
								 M-7.768,30.863l0.707,0.707L28.103-3.594l-0.707-0.707L-7.768,30.863z"/>
						</g>
					</g>
				</g>
				<g>
					
						<rect x="-15.608" y="-10.275" transform="matrix(0.7071 -0.7071 0.7071 0.7071 -0.0737 -4.7277)" style="fill:#292425;" width="19.73" height="16"/>
					<g>
						<g>
							
								<radialGradient id="SVGID_00000171692719608306015450000016171378816738976440_" cx="-5.7432" cy="-4.9267" r="21.9529" gradientUnits="userSpaceOnUse">
								<stop  offset="0" style="stop-color:#3A3A3A"/>
								<stop  offset="0.2552" style="stop-color:#363636"/>
								<stop  offset="0.5256" style="stop-color:#292929"/>
								<stop  offset="0.802" style="stop-color:#141414"/>
								<stop  offset="1" style="stop-color:#000000"/>
							</radialGradient>
							<polygon style="fill:url(#SVGID_00000171692719608306015450000016171378816738976440_);" points="-12.365,15.661 
								-28.981,-0.956 -4.425,-25.514 17.495,-3.594 -1.759,15.661 -3.88,13.54 13.253,-3.594 -4.425,-21.271 -24.739,-0.956 
								-10.244,13.54 							"/>
						</g>
						<g>
							
								<radialGradient id="SVGID_00000011754118936469901990000004664746955427885470_" cx="-5.9199" cy="-0.6838" r="7.187" gradientUnits="userSpaceOnUse">
								<stop  offset="0" style="stop-color:#3A3A3A"/>
								<stop  offset="0.2552" style="stop-color:#363636"/>
								<stop  offset="0.5256" style="stop-color:#292929"/>
								<stop  offset="0.802" style="stop-color:#141414"/>
								<stop  offset="1" style="stop-color:#000000"/>
							</radialGradient>
							<path style="fill:url(#SVGID_00000011754118936469901990000004664746955427885470_);" d="M-3.88,7.175l-3.182-3.182
								l-3.183,3.182l-2.121-2.121l3.183-3.182l-2.828-2.828l7.586-7.587l4.95,4.949L-4.94,1.872l3.182,3.182L-3.88,7.175z
								 M-7.768-0.956l0.707,0.707l3.344-3.345l-0.707-0.707L-7.768-0.956z"/>
						</g>
					</g>
				</g>
			</g>
		</g>
		<g>
			<defs>
				<rect id="SVGID_00000023279418171959842230000006745253794081771397_" y="0" width="396" height="288"/>
			</defs>
			<clipPath id="SVGID_00000161607375577108244250000001902588462829785017_">
				<use xlink:href="#SVGID_00000023279418171959842230000006745253794081771397_"  style="overflow:visible;"/>
			</clipPath>
		</g>
	</g>
</g>
</svg>
