<svg xmlns="http://www.w3.org/2000/svg" xmlns:xlink="http://www.w3.org/1999/xlink" width="900" zoomAndPan="magnify" viewBox="0 0 675 1124.99995" height="1500" preserveAspectRatio="xMidYMid meet" version="1.0"><defs><g/><clipPath id="52160f6054"><path d="M 6.714844 277.144531 L 580.695312 277.144531 L 580.695312 1096.386719 L 6.714844 1096.386719 Z M 6.714844 277.144531 " clip-rule="nonzero"/></clipPath><clipPath id="d58ce24678"><path d="M 235.523438 277.144531 L 351.34375 277.144531 L 351.34375 857 L 235.523438 857 Z M 235.523438 277.144531 " clip-rule="nonzero"/></clipPath><clipPath id="bd22692842"><path d="M 180 0.078125 L 407 0.078125 L 407 226 L 180 226 Z M 180 0.078125 " clip-rule="nonzero"/></clipPath><clipPath id="0ee256c156"><path d="M 4 0.199219 L 168.761719 0.199219 L 168.761719 146 L 4 146 Z M 4 0.199219 " clip-rule="nonzero"/></clipPath><clipPath id="73e38bc118"><rect x="0" width="169" y="0" height="148"/></clipPath><clipPath id="bc8c96c238"><rect x="0" width="587" y="0" height="1097"/></clipPath></defs><g transform="matrix(1, 0, 0, 1, 44, 4)"><g clip-path="url(#bc8c96c238)"><g clip-path="url(#52160f6054)"><path fill="#ffffff" d="M 576.183594 281.386719 C 574.78125 280.050781 573.183594 279.019531 571.390625 278.285156 C 569.597656 277.554688 567.734375 277.171875 565.796875 277.144531 L 418.164062 277.144531 C 417.203125 277.144531 416.25 277.234375 415.308594 277.421875 C 414.363281 277.609375 413.449219 277.886719 412.558594 278.253906 C 411.671875 278.621094 410.828125 279.070312 410.027344 279.605469 C 409.230469 280.136719 408.492188 280.746094 407.8125 281.421875 C 407.132812 282.101562 406.523438 282.84375 405.992188 283.640625 C 405.457031 284.441406 405.007812 285.285156 404.640625 286.171875 C 404.273438 287.0625 403.996094 287.976562 403.808594 288.921875 C 403.621094 289.863281 403.53125 290.816406 403.53125 291.777344 L 403.53125 828.757812 C 403.644531 834.277344 402.980469 839.699219 401.539062 845.023438 C 400.09375 850.351562 397.929688 855.367188 395.042969 860.070312 C 393.691406 862.1875 392.273438 864.265625 390.792969 866.296875 C 389.308594 868.328125 387.765625 870.308594 386.15625 872.242188 C 384.550781 874.175781 382.882812 876.058594 381.160156 877.886719 C 379.433594 879.71875 377.652344 881.492188 375.816406 883.207031 C 373.980469 884.925781 372.09375 886.585938 370.152344 888.183594 C 368.210938 889.785156 366.222656 891.320312 364.1875 892.792969 C 362.148438 894.269531 360.066406 895.679688 357.941406 897.023438 C 355.816406 898.367188 353.652344 899.640625 351.445312 900.851562 C 349.242188 902.058594 347 903.195312 344.722656 904.261719 C 342.445312 905.328125 340.136719 906.324219 337.800781 907.246094 C 335.460938 908.167969 333.09375 909.019531 330.703125 909.792969 C 328.308594 910.566406 325.894531 911.265625 323.457031 911.886719 C 321.023438 912.507812 318.570312 913.054688 316.097656 913.523438 C 313.628906 913.992188 311.144531 914.382812 308.648438 914.695312 C 306.15625 915.007812 303.652344 915.242188 301.144531 915.398438 C 298.632812 915.554688 296.121094 915.632812 293.605469 915.628906 C 291.09375 915.628906 288.578125 915.546875 286.070312 915.386719 C 283.5625 915.226562 281.058594 914.988281 278.5625 914.671875 C 276.070312 914.355469 273.585938 913.960938 271.117188 913.492188 C 268.648438 913.019531 266.195312 912.46875 263.761719 911.84375 C 261.324219 911.214844 258.910156 910.515625 256.519531 909.738281 C 254.128906 908.960938 251.765625 908.109375 249.425781 907.183594 C 247.089844 906.257812 244.78125 905.257812 242.507812 904.1875 C 240.230469 903.117188 237.992188 901.976562 235.789062 900.765625 C 233.585938 899.554688 231.421875 898.273438 229.296875 896.925781 C 227.175781 895.578125 225.097656 894.167969 223.0625 892.691406 C 221.027344 891.214844 219.039062 889.671875 217.101562 888.070312 C 215.164062 886.46875 213.277344 884.808594 211.445312 883.085938 C 209.609375 881.367188 207.832031 879.589844 206.109375 877.757812 C 204.386719 875.925781 202.722656 874.042969 201.121094 872.105469 C 199.515625 870.171875 197.972656 868.183594 196.492188 866.152344 C 195.015625 864.117188 193.601562 862.042969 192.25 859.917969 C 189.285156 855.21875 187.054688 850.191406 185.558594 844.835938 C 184.066406 839.480469 183.367188 834.023438 183.472656 828.464844 L 183.472656 291.777344 C 183.46875 290.816406 183.371094 289.867188 183.183594 288.925781 C 182.992188 287.984375 182.714844 287.070312 182.347656 286.183594 C 181.976562 285.296875 181.527344 284.453125 180.992188 283.65625 C 180.457031 282.859375 179.851562 282.121094 179.171875 281.441406 C 178.496094 280.761719 177.757812 280.15625 176.957031 279.625 C 176.160156 279.089844 175.320312 278.636719 174.433594 278.269531 C 173.546875 277.902344 172.632812 277.621094 171.691406 277.433594 C 170.75 277.242188 169.800781 277.148438 168.839844 277.144531 L 21.207031 277.144531 C 20.246094 277.148438 19.296875 277.246094 18.355469 277.4375 C 17.417969 277.628906 16.503906 277.910156 15.617188 278.277344 C 14.734375 278.648438 13.894531 279.101562 13.097656 279.632812 C 12.300781 280.167969 11.5625 280.773438 10.882812 281.453125 C 10.203125 282.132812 9.597656 282.867188 9.0625 283.664062 C 8.53125 284.460938 8.078125 285.304688 7.710938 286.1875 C 7.339844 287.074219 7.058594 287.988281 6.867188 288.925781 C 6.675781 289.867188 6.578125 290.816406 6.574219 291.777344 L 6.722656 832.269531 C 15.503906 980.492188 152.761719 1097.167969 294.671875 1096.515625 C 298.765625 1096.457031 302.855469 1096.308594 306.941406 1096.074219 C 311.027344 1095.84375 315.109375 1095.523438 319.183594 1095.121094 C 323.257812 1094.71875 327.320312 1094.230469 331.375 1093.65625 C 335.429688 1093.082031 339.46875 1092.421875 343.496094 1091.679688 C 347.523438 1090.9375 351.53125 1090.113281 355.523438 1089.203125 C 359.515625 1088.292969 363.484375 1087.296875 367.433594 1086.222656 C 371.386719 1085.144531 375.3125 1083.984375 379.210938 1082.746094 C 383.113281 1081.503906 386.988281 1080.183594 390.832031 1078.78125 C 394.679688 1077.378906 398.496094 1075.894531 402.28125 1074.332031 C 406.0625 1072.769531 409.8125 1071.128906 413.527344 1069.410156 C 417.246094 1067.691406 420.921875 1065.894531 424.5625 1064.019531 C 428.203125 1062.148438 431.804688 1060.199219 435.363281 1058.175781 C 438.921875 1056.152344 442.4375 1054.054688 445.90625 1051.882812 C 449.378906 1049.710938 452.800781 1047.46875 456.179688 1045.15625 C 459.558594 1042.839844 462.882812 1040.457031 466.164062 1038.003906 C 469.441406 1035.550781 472.664062 1033.03125 475.835938 1030.441406 C 479.007812 1027.851562 482.125 1025.199219 485.1875 1022.480469 C 488.246094 1019.761719 491.25 1016.980469 494.195312 1014.136719 C 497.140625 1011.292969 500.023438 1008.386719 502.847656 1005.421875 C 505.671875 1002.457031 508.429688 999.433594 511.125 996.355469 C 513.824219 993.273438 516.453125 990.136719 519.019531 986.949219 C 521.585938 983.757812 524.082031 980.515625 526.511719 977.21875 C 528.941406 973.925781 531.300781 970.578125 533.59375 967.1875 C 535.882812 963.792969 538.101562 960.351562 540.246094 956.863281 C 542.390625 953.378906 544.464844 949.847656 546.460938 946.273438 C 548.460938 942.703125 550.382812 939.089844 552.230469 935.433594 C 554.078125 931.78125 555.847656 928.089844 557.539062 924.363281 C 559.234375 920.632812 560.847656 916.871094 562.382812 913.078125 C 563.917969 909.28125 565.371094 905.457031 566.746094 901.601562 C 568.125 897.746094 569.417969 893.859375 570.628906 889.949219 C 571.84375 886.039062 572.972656 882.105469 574.019531 878.148438 C 575.070312 874.191406 576.035156 870.214844 576.914062 866.214844 C 579.335938 855.027344 580.457031 843.714844 580.28125 832.269531 L 580.425781 291.777344 C 580.414062 289.835938 580.039062 287.96875 579.304688 286.171875 C 578.574219 284.378906 577.53125 282.78125 576.183594 281.386719 Z M 576.183594 281.386719 " fill-opacity="1" fill-rule="nonzero"/></g><g clip-path="url(#d58ce24678)"><path fill="#ffffff" d="M 338.582031 856.859375 L 248.40625 856.859375 C 241.285156 856.859375 235.523438 851.089844 235.523438 843.976562 L 235.523438 290.054688 C 235.523438 282.941406 241.285156 277.171875 248.40625 277.171875 L 338.582031 277.171875 C 345.703125 277.171875 351.464844 282.941406 351.464844 290.054688 L 351.464844 843.976562 C 351.464844 851.089844 345.703125 856.859375 338.582031 856.859375 Z M 338.582031 856.859375 " fill-opacity="1" fill-rule="nonzero"/></g><g clip-path="url(#bd22692842)"><path fill="#ffffff" d="M 300.851562 0.347656 C 233.007812 -3.988281 176.84375 52.171875 181.179688 120.019531 C 184.765625 176.097656 230.0625 221.394531 286.140625 224.980469 C 353.984375 229.316406 410.148438 173.15625 405.8125 105.308594 C 402.226562 49.230469 356.925781 3.933594 300.851562 0.347656 Z M 344.457031 168.511719 C 348.882812 153.300781 351.523438 135.808594 351.878906 116.992188 L 397.277344 116.992188 C 396.285156 141.117188 387.023438 163.136719 372.257812 180.304688 C 365.480469 175.558594 356.011719 171.542969 344.457031 168.511719 Z M 214.734375 180.304688 C 199.96875 163.136719 190.707031 141.117188 189.710938 116.992188 L 235.109375 116.992188 C 235.464844 135.808594 238.105469 153.300781 242.535156 168.511719 C 230.976562 171.546875 221.503906 175.558594 214.734375 180.304688 Z M 242.511719 56.890625 C 238.097656 72.085938 235.460938 89.550781 235.109375 108.335938 L 189.710938 108.335938 C 190.699219 84.320312 199.878906 62.402344 214.523438 45.265625 C 221.414062 49.933594 230.949219 53.890625 242.511719 56.890625 Z M 289.164062 108.335938 L 243.765625 108.335938 C 244.140625 90.417969 246.804688 73.507812 251.15625 58.882812 C 262.855469 61.242188 275.832031 62.585938 289.164062 62.828125 Z M 289.164062 116.992188 L 289.164062 162.5 C 275.804688 162.742188 262.832031 164.105469 251.171875 166.496094 C 246.808594 151.855469 244.140625 134.929688 243.765625 116.992188 Z M 297.824219 116.992188 L 343.222656 116.992188 C 342.851562 134.929688 340.179688 151.855469 335.816406 166.496094 C 324.152344 164.105469 311.183594 162.742188 297.824219 162.5 Z M 297.824219 108.335938 L 297.824219 62.824219 C 311.15625 62.585938 324.132812 61.238281 335.832031 58.878906 C 340.1875 73.507812 342.851562 90.417969 343.222656 108.335938 Z M 297.824219 54.167969 L 297.824219 9.207031 C 312.042969 11.90625 324.761719 27.695312 333.105469 50.609375 C 322.226562 52.730469 310.191406 53.9375 297.824219 54.167969 Z M 289.164062 9.207031 L 289.164062 54.167969 C 276.796875 53.9375 264.765625 52.730469 253.886719 50.609375 C 262.226562 27.695312 274.949219 11.902344 289.164062 9.207031 Z M 289.164062 171.160156 L 289.164062 216.121094 C 274.957031 213.425781 262.246094 197.652344 253.902344 174.765625 C 264.746094 172.617188 276.773438 171.394531 289.164062 171.160156 Z M 297.824219 216.117188 L 297.824219 171.160156 C 310.214844 171.394531 322.242188 172.617188 333.085938 174.765625 C 324.746094 197.652344 312.03125 213.425781 297.824219 216.117188 Z M 351.878906 108.335938 C 351.527344 89.550781 348.894531 72.085938 344.480469 56.890625 C 356.042969 53.890625 365.578125 49.933594 372.464844 45.265625 C 387.109375 62.398438 396.289062 84.320312 397.277344 108.335938 Z M 366.480469 38.808594 C 360.421875 42.648438 351.941406 46.039062 341.835938 48.628906 C 336.402344 33.273438 329.027344 20.773438 320.339844 12.304688 C 338.007812 17.035156 353.835938 26.3125 366.480469 38.808594 Z M 245.15625 48.632812 C 235.050781 46.039062 226.570312 42.652344 220.507812 38.8125 C 233.15625 26.3125 248.984375 17.039062 266.652344 12.308594 C 257.964844 20.773438 250.585938 33.273438 245.15625 48.632812 Z M 220.726562 186.726562 C 226.660156 182.828125 235.074219 179.394531 245.183594 176.769531 C 250.609375 192.09375 257.976562 204.566406 266.652344 213.019531 C 249.082031 208.316406 233.339844 199.113281 220.726562 186.726562 Z M 341.808594 176.769531 C 351.914062 179.394531 360.328125 182.828125 366.261719 186.726562 C 353.652344 199.117188 337.910156 208.316406 320.335938 213.019531 C 329.011719 204.566406 336.375 192.09375 341.808594 176.769531 Z M 341.808594 176.769531 " fill-opacity="1" fill-rule="nonzero"/></g><g transform="matrix(1, 0, 0, 1, 207, 39)"><g clip-path="url(#73e38bc118)"><g clip-path="url(#0ee256c156)"><path fill="#000000" d="M 77.054688 0.277344 L 95.917969 0.277344 C 135.972656 0.277344 168.445312 32.75 168.445312 72.804688 C 168.445312 112.863281 135.972656 145.332031 95.917969 145.332031 L 77.054688 145.332031 C 37 145.332031 4.527344 112.863281 4.527344 72.804688 C 4.527344 32.75 37 0.277344 77.054688 0.277344 Z M 77.054688 0.277344 " fill-opacity="1" fill-rule="nonzero"/></g><g fill="#ffffff" fill-opacity="1"><g transform="translate(0.624671, 115.976911)"><g><path d="M 33.234375 -69.71875 L 32.171875 -55.71875 C 32.171875 -55.894531 33.066406 -56.5 34.859375 -57.53125 C 36.648438 -58.5625 39.023438 -59.523438 41.984375 -60.421875 C 44.941406 -61.316406 48.265625 -61.765625 51.953125 -61.765625 C 61.816406 -61.765625 69.640625 -58.960938 75.421875 -53.359375 C 81.210938 -47.753906 84.109375 -40.0625 84.109375 -30.28125 C 84.109375 -24.351562 82.535156 -18.96875 79.390625 -14.125 C 76.253906 -9.28125 71.816406 -5.445312 66.078125 -2.625 C 60.335938 0.195312 53.695312 1.609375 46.15625 1.609375 C 32.96875 1.609375 22.851562 -1.210938 15.8125 -6.859375 C 8.769531 -12.515625 5.25 -20.1875 5.25 -29.875 L 28.9375 -29.875 C 28.9375 -26.195312 30.191406 -23.125 32.703125 -20.65625 C 35.210938 -18.1875 38.753906 -16.953125 43.328125 -16.953125 C 47.910156 -16.953125 51.429688 -18.226562 53.890625 -20.78125 C 56.359375 -23.34375 57.59375 -26.644531 57.59375 -30.6875 C 57.59375 -34.8125 56.359375 -38.148438 53.890625 -40.703125 C 51.429688 -43.265625 47.957031 -44.546875 43.46875 -44.546875 C 40.0625 -44.546875 37.484375 -43.984375 35.734375 -42.859375 C 33.984375 -41.742188 32.722656 -40.691406 31.953125 -39.703125 C 31.191406 -38.710938 30.722656 -38.082031 30.546875 -37.8125 L 9.28125 -40.78125 L 13.1875 -92.59375 L 77.25 -92.59375 L 77.25 -69.71875 Z M 33.234375 -69.71875 "/></g></g></g><g fill="#ffffff" fill-opacity="1"><g transform="translate(82.571011, 115.976911)"><g><path d="M 46.5625 -94.203125 C 53.832031 -94.203125 60.132812 -93.054688 65.46875 -90.765625 C 70.8125 -88.484375 74.941406 -85.234375 77.859375 -81.015625 C 80.773438 -76.796875 82.234375 -71.90625 82.234375 -66.34375 C 82.234375 -61.144531 80.929688 -56.4375 78.328125 -52.21875 C 75.722656 -48 72.445312 -44.273438 68.5 -41.046875 C 64.550781 -37.816406 59.125 -33.867188 52.21875 -29.203125 C 48.351562 -26.691406 45.210938 -24.539062 42.796875 -22.75 L 83.296875 -22.75 L 83.296875 0 L 6.59375 0 L 6.59375 -6.453125 C 6.59375 -11.210938 7.691406 -15.453125 9.890625 -19.171875 C 12.085938 -22.898438 15.296875 -26.648438 19.515625 -30.421875 C 23.816406 -34.179688 30.003906 -39.289062 38.078125 -45.75 C 44.546875 -50.863281 49.078125 -54.765625 51.671875 -57.453125 C 54.273438 -60.148438 55.578125 -62.800781 55.578125 -65.40625 C 55.578125 -68.1875 54.613281 -70.519531 52.6875 -72.40625 C 50.757812 -74.289062 47.863281 -75.234375 44 -75.234375 C 39.96875 -75.234375 36.785156 -74.066406 34.453125 -71.734375 C 32.117188 -69.398438 30.953125 -66.347656 30.953125 -62.578125 L 30.953125 -59.890625 L 7 -59.890625 C 6.90625 -60.609375 6.859375 -61.59375 6.859375 -62.84375 C 6.859375 -72.53125 10.242188 -80.175781 17.015625 -85.78125 C 23.796875 -91.394531 33.644531 -94.203125 46.5625 -94.203125 Z M 46.5625 -94.203125 "/></g></g></g></g></g></g></g></svg>