<svg xmlns="http://www.w3.org/2000/svg" xmlns:xlink="http://www.w3.org/1999/xlink" width="1920" zoomAndPan="magnify" viewBox="0 0 1440 809.999993" height="1080" preserveAspectRatio="xMidYMid meet" version="1.0"><defs><filter x="0%" y="0%" width="100%" height="100%" id="80d83e12ce"><feColorMatrix values="0 0 0 0 1 0 0 0 0 1 0 0 0 0 1 0 0 0 1 0" color-interpolation-filters="sRGB"/></filter><g/><mask id="c706e3f63d"><g filter="url(#80d83e12ce)"><rect x="-144" width="1728" fill="#000000" y="-80.999999" height="971.999992" fill-opacity="0.36"/></g></mask><clipPath id="8c1c4b32f0"><path d="M 7 6 L 117 6 L 117 117 L 7 117 Z M 7 6 " clip-rule="nonzero"/></clipPath><clipPath id="1792bc8fe4"><path d="M 12.34375 -1.421875 L 124.785156 12.078125 L 111.289062 124.519531 L -1.15625 111.023438 Z M 12.34375 -1.421875 " clip-rule="nonzero"/></clipPath><clipPath id="2f740dc53f"><path d="M 12.34375 -1.421875 L 124.785156 12.078125 L 111.289062 124.519531 L -1.15625 111.023438 Z M 12.34375 -1.421875 " clip-rule="nonzero"/></clipPath><clipPath id="4c8429a501"><rect x="0" width="124" y="0" height="124"/></clipPath><clipPath id="f8345c5bbc"><path d="M 2 0.800781 L 81.71875 0.800781 L 81.71875 72 L 2 72 Z M 2 0.800781 " clip-rule="nonzero"/></clipPath><clipPath id="d4a797a112"><rect x="0" width="82" y="0" height="73"/></clipPath><clipPath id="2c24a00898"><rect x="0" width="689" y="0" height="301"/></clipPath><clipPath id="075162cb89"><path d="M 49.6875 257.617188 L 327.9375 257.617188 L 327.9375 655.117188 L 49.6875 655.117188 Z M 49.6875 257.617188 " clip-rule="nonzero"/></clipPath><clipPath id="f8a4c4cb2d"><path d="M 160.660156 257.617188 L 216.910156 257.617188 L 216.910156 538.867188 L 160.660156 538.867188 Z M 160.660156 257.617188 " clip-rule="nonzero"/></clipPath><clipPath id="57dbccf92b"><rect x="0" width="290" y="0" height="250"/></clipPath><clipPath id="cd96538237"><rect x="0" width="1028" y="0" height="300"/></clipPath></defs><g mask="url(#c706e3f63d)"><g transform="matrix(1, 0, 0, 1, 127, 117)"><g clip-path="url(#4c8429a501)"><g clip-path="url(#8c1c4b32f0)"><g clip-path="url(#1792bc8fe4)"><g clip-path="url(#2f740dc53f)"><path fill="#7ed957" d="M 71.816406 7.84375 C 39.394531 1.832031 9.101562 25.632812 7.265625 58.554688 C 5.75 85.765625 24.945312 110.199219 51.746094 115.167969 C 84.164062 121.179688 114.457031 97.378906 116.292969 64.457031 C 117.808594 37.242188 98.613281 12.8125 71.816406 7.84375 Z M 83.09375 91.34375 C 86.101562 84.277344 88.386719 76.007812 89.644531 66.964844 L 111.507812 69.589844 C 109.632812 81.148438 103.902344 91.21875 95.796875 98.632812 C 92.808594 95.953125 88.480469 93.472656 83.09375 91.34375 Z M 19.941406 89.523438 C 13.824219 80.402344 10.636719 69.265625 11.550781 57.589844 L 33.414062 60.214844 C 32.496094 69.296875 32.757812 77.875 34.011719 85.453125 C 28.269531 86.246094 23.476562 87.628906 19.941406 89.523438 Z M 40.453125 31.699219 C 37.449219 38.761719 35.167969 47.019531 33.914062 56.042969 L 12.050781 53.421875 C 13.917969 41.914062 19.605469 31.886719 27.644531 24.484375 C 30.695312 27.128906 35.058594 29.585938 40.453125 31.699219 Z M 59.945312 59.167969 L 38.082031 56.546875 C 39.296875 47.941406 41.558594 39.949219 44.5 33.15625 C 50 34.96875 56.167969 36.367188 62.574219 37.253906 Z M 59.445312 63.339844 L 56.8125 85.253906 C 50.367188 84.597656 44.039062 84.503906 38.285156 84.984375 C 37.03125 77.679688 36.726562 69.375 37.582031 60.714844 Z M 63.613281 63.839844 L 85.476562 66.464844 C 84.261719 75.082031 81.996094 83.078125 79.046875 89.875 C 73.570312 88.050781 67.402344 86.644531 60.984375 85.753906 Z M 64.113281 59.671875 L 66.746094 37.753906 C 73.179688 38.410156 79.507812 38.511719 85.277344 38.050781 C 86.527344 45.347656 86.832031 53.644531 85.976562 62.296875 Z M 67.246094 33.585938 L 69.84375 11.933594 C 76.535156 14.054688 81.75 22.394531 84.441406 33.910156 C 79.078125 34.304688 73.214844 34.191406 67.246094 33.585938 Z M 65.675781 11.433594 L 63.078125 33.085938 C 57.132812 32.257812 51.410156 30.980469 46.292969 29.332031 C 51.632812 18.78125 58.671875 11.910156 65.675781 11.433594 Z M 56.3125 89.425781 L 53.714844 111.074219 C 47.027344 108.957031 41.816406 100.625 39.125 89.121094 C 44.46875 88.714844 50.332031 88.820312 56.3125 89.425781 Z M 57.882812 111.574219 L 60.480469 89.925781 C 66.4375 90.753906 72.15625 92.039062 77.253906 93.699219 C 71.914062 104.238281 64.882812 111.097656 57.882812 111.574219 Z M 90.144531 62.796875 C 91.0625 53.730469 90.804688 45.167969 89.554688 37.59375 C 95.296875 36.816406 100.117188 35.464844 103.707031 33.613281 C 109.765625 42.710938 112.917969 53.800781 112.007812 65.417969 Z M 101.195312 30.160156 C 98.054688 31.65625 93.777344 32.800781 88.761719 33.464844 C 87.03125 25.753906 84.203125 19.308594 80.507812 14.726562 C 88.742188 18.027344 95.828125 23.410156 101.195312 30.160156 Z M 42.203125 27.875 C 37.488281 26.042969 33.597656 23.921875 30.902344 21.722656 C 37.714844 16.433594 45.871094 12.882812 54.65625 11.625 C 49.980469 15.199219 45.707031 20.792969 42.203125 27.875 Z M 22.457031 92.964844 C 25.539062 91.429688 29.789062 90.261719 34.808594 89.582031 C 36.535156 97.277344 39.363281 103.707031 43.050781 108.28125 C 34.863281 105 27.8125 99.660156 22.457031 92.964844 Z M 81.339844 95.167969 C 86.054688 97.015625 89.910156 99.160156 92.539062 101.378906 C 85.75 106.617188 77.636719 110.136719 68.90625 111.386719 C 73.570312 107.816406 77.835938 102.234375 81.339844 95.167969 Z M 81.339844 95.167969 " fill-opacity="1" fill-rule="nonzero"/></g></g></g></g></g></g><g transform="matrix(1, 0, 0, 1, 147, 142)"><g clip-path="url(#d4a797a112)"><g clip-path="url(#f8345c5bbc)"><path fill="#ffffff" d="M 37.199219 0.910156 L 46.347656 0.910156 C 65.773438 0.910156 81.523438 16.660156 81.523438 36.085938 C 81.523438 55.511719 65.773438 71.261719 46.347656 71.261719 L 37.199219 71.261719 C 17.773438 71.261719 2.023438 55.511719 2.023438 36.085938 C 2.023438 16.660156 17.773438 0.910156 37.199219 0.910156 Z M 37.199219 0.910156 " fill-opacity="0.8" fill-rule="nonzero"/></g><g fill="#eeba2b" fill-opacity="1"><g transform="translate(0.130136, 57.024312)"><g><path d="M 16.125 -33.8125 L 15.59375 -27.015625 C 15.59375 -27.109375 16.023438 -27.40625 16.890625 -27.90625 C 17.765625 -28.40625 18.921875 -28.867188 20.359375 -29.296875 C 21.796875 -29.734375 23.40625 -29.953125 25.1875 -29.953125 C 29.976562 -29.953125 33.773438 -28.59375 36.578125 -25.875 C 39.390625 -23.15625 40.796875 -19.425781 40.796875 -14.6875 C 40.796875 -11.8125 40.03125 -9.195312 38.5 -6.84375 C 36.976562 -4.5 34.828125 -2.640625 32.046875 -1.265625 C 29.265625 0.0976562 26.046875 0.78125 22.390625 0.78125 C 15.992188 0.78125 11.085938 -0.585938 7.671875 -3.328125 C 4.253906 -6.066406 2.546875 -9.785156 2.546875 -14.484375 L 14.03125 -14.484375 C 14.03125 -12.703125 14.640625 -11.210938 15.859375 -10.015625 C 17.078125 -8.816406 18.796875 -8.21875 21.015625 -8.21875 C 23.234375 -8.21875 24.941406 -8.835938 26.140625 -10.078125 C 27.335938 -11.316406 27.9375 -12.914062 27.9375 -14.875 C 27.9375 -16.875 27.335938 -18.492188 26.140625 -19.734375 C 24.941406 -20.984375 23.253906 -21.609375 21.078125 -21.609375 C 19.421875 -21.609375 18.171875 -21.332031 17.328125 -20.78125 C 16.484375 -20.238281 15.875 -19.726562 15.5 -19.25 C 15.132812 -18.769531 14.90625 -18.46875 14.8125 -18.34375 L 4.5 -19.78125 L 6.390625 -44.90625 L 37.46875 -44.90625 L 37.46875 -33.8125 Z M 16.125 -33.8125 "/></g></g></g><g fill="#eeba2b" fill-opacity="1"><g transform="translate(39.873989, 57.024312)"><g><path d="M 22.578125 -45.6875 C 26.109375 -45.6875 29.164062 -45.128906 31.75 -44.015625 C 34.34375 -42.910156 36.34375 -41.332031 37.75 -39.28125 C 39.164062 -37.238281 39.875 -34.867188 39.875 -32.171875 C 39.875 -29.648438 39.242188 -27.363281 37.984375 -25.3125 C 36.722656 -23.269531 35.132812 -21.46875 33.21875 -19.90625 C 31.300781 -18.34375 28.671875 -16.425781 25.328125 -14.15625 C 23.453125 -12.9375 21.925781 -11.894531 20.75 -11.03125 L 40.40625 -11.03125 L 40.40625 0 L 3.203125 0 L 3.203125 -3.125 C 3.203125 -5.4375 3.734375 -7.492188 4.796875 -9.296875 C 5.859375 -11.109375 7.414062 -12.925781 9.46875 -14.75 C 11.550781 -16.570312 14.550781 -19.050781 18.46875 -22.1875 C 21.601562 -24.664062 23.800781 -26.554688 25.0625 -27.859375 C 26.320312 -29.171875 26.953125 -30.457031 26.953125 -31.71875 C 26.953125 -33.070312 26.484375 -34.203125 25.546875 -35.109375 C 24.609375 -36.023438 23.207031 -36.484375 21.34375 -36.484375 C 19.382812 -36.484375 17.835938 -35.914062 16.703125 -34.78125 C 15.578125 -33.65625 15.015625 -32.175781 15.015625 -30.34375 L 15.015625 -29.046875 L 3.390625 -29.046875 C 3.347656 -29.390625 3.328125 -29.867188 3.328125 -30.484375 C 3.328125 -35.179688 4.96875 -38.890625 8.25 -41.609375 C 11.539062 -44.328125 16.316406 -45.6875 22.578125 -45.6875 Z M 22.578125 -45.6875 "/></g></g></g></g></g><g transform="matrix(1, 0, 0, 1, 381, 394)"><g clip-path="url(#2c24a00898)"><g fill="#7a3b2e" fill-opacity="1"><g transform="translate(1.429949, 213.578799)"><g><path d="M 23.8125 -156.515625 C 31.632812 -156.203125 36.367188 -156.046875 38.015625 -156.046875 L 46.453125 -156.046875 C 50.597656 -156.046875 53.925781 -156.359375 56.4375 -156.984375 L 56.3125 0 L 23.8125 0 Z M 23.8125 -156.515625 "/></g></g></g><g fill="#7a3b2e" fill-opacity="1"><g transform="translate(81.673887, 213.578799)"><g><path d="M 48.921875 -33.90625 C 48.921875 -16.3125 49.234375 -5.007812 49.859375 0 L 19.234375 0 L 19.234375 -122.609375 L 48.921875 -122.609375 L 48.921875 -112.046875 C 59.640625 -120.648438 70.628906 -124.953125 81.890625 -124.953125 C 95.191406 -124.953125 104.851562 -119.203125 110.875 -107.703125 C 116.894531 -113.878906 121.898438 -117.945312 125.890625 -119.90625 C 132.535156 -123.269531 139.203125 -124.953125 145.890625 -124.953125 C 152.578125 -124.953125 158.265625 -123.816406 162.953125 -121.546875 C 167.648438 -119.273438 171.523438 -116.066406 174.578125 -111.921875 C 180.753906 -103.554688 183.84375 -92.0625 183.84375 -77.4375 L 183.84375 -30.734375 C 183.84375 -17.515625 184.035156 -9.578125 184.421875 -6.921875 C 184.816406 -4.265625 185.347656 -2.546875 186.015625 -1.765625 C 186.679688 -0.984375 187.25 -0.273438 187.71875 0.359375 L 187.484375 0.828125 C 181.222656 0.273438 176.609375 0 173.640625 0 L 164.84375 0 C 161.945312 0 158.390625 0.117188 154.171875 0.359375 L 154.171875 -63.125 C 154.171875 -81.425781 151.351562 -92.296875 145.71875 -95.734375 C 143.84375 -96.828125 141.632812 -97.375 139.09375 -97.375 C 136.550781 -97.375 134.300781 -97.082031 132.34375 -96.5 C 130.382812 -95.914062 128.546875 -94.957031 126.828125 -93.625 C 123.929688 -91.507812 120.644531 -87.363281 116.96875 -81.1875 C 117.050781 -80.5625 117.09375 -79.9375 117.09375 -79.3125 C 117.09375 -78.6875 117.09375 -68.359375 117.09375 -48.328125 C 117.09375 -28.304688 117.5625 -12.195312 118.5 0 C 111.851562 0 106.203125 0 101.546875 0 C 96.890625 0 92.453125 0.117188 88.234375 0.359375 L 88.234375 -63.234375 C 88.234375 -75.984375 87.46875 -84.273438 85.9375 -88.109375 C 84.414062 -91.941406 82.789062 -94.441406 81.0625 -95.609375 C 79.34375 -96.785156 77.234375 -97.375 74.734375 -97.375 C 64.410156 -97.375 55.804688 -92.410156 48.921875 -82.484375 Z M 48.921875 -33.90625 "/></g></g></g><g fill="#7a3b2e" fill-opacity="1"><g transform="translate(282.283733, 213.578799)"><g><path d="M 47.75 -2.46875 L 47.75 32.03125 C 47.75 38.757812 47.90625 43.140625 48.21875 45.171875 L 19 45.171875 L 19 -122.609375 L 47.75 -122.609375 L 47.75 -114.984375 C 57.21875 -121.628906 66.289062 -124.953125 74.96875 -124.953125 C 83.65625 -124.953125 91.359375 -123.738281 98.078125 -121.3125 C 104.804688 -118.882812 110.710938 -115.128906 115.796875 -110.046875 C 126.984375 -99.023438 132.578125 -83.304688 132.578125 -62.890625 C 132.578125 -49.359375 129.410156 -37.269531 123.078125 -26.625 C 117.679688 -17.632812 110.210938 -10.441406 100.671875 -5.046875 C 92.222656 -0.273438 83.066406 2.109375 73.203125 2.109375 C 63.347656 2.109375 54.863281 0.582031 47.75 -2.46875 Z M 47.75 -32.03125 C 53.695312 -27.019531 61.398438 -24.515625 70.859375 -24.515625 C 86.347656 -24.515625 96.363281 -31.988281 100.90625 -46.9375 C 102.46875 -52.019531 103.25 -57.472656 103.25 -63.296875 C 103.25 -69.117188 102.695312 -73.769531 101.59375 -77.25 C 100.5 -80.738281 99.070312 -83.753906 97.3125 -86.296875 C 95.5625 -88.835938 93.585938 -90.945312 91.390625 -92.625 C 89.203125 -94.3125 86.972656 -95.660156 84.703125 -96.671875 C 80.710938 -98.472656 76.601562 -99.375 72.375 -99.375 C 68.15625 -99.375 63.773438 -98.394531 59.234375 -96.4375 C 54.703125 -94.488281 50.875 -91.867188 47.75 -88.578125 Z M 47.75 -32.03125 "/></g></g></g><g fill="#7a3b2e" fill-opacity="1"><g transform="translate(422.241363, 213.578799)"><g><path d="M 11.375 -60.3125 C 11.375 -69.457031 12.9375 -77.941406 16.0625 -85.765625 C 19.195312 -93.585938 23.617188 -100.429688 29.328125 -106.296875 C 41.535156 -118.734375 57.492188 -124.953125 77.203125 -124.953125 C 93.859375 -124.953125 107.234375 -119.4375 117.328125 -108.40625 C 127.253906 -97.769531 132.21875 -84.394531 132.21875 -68.28125 C 132.21875 -62.101562 131.75 -57.878906 130.8125 -55.609375 C 122.988281 -53.421875 107.070312 -52.328125 83.0625 -52.328125 L 41.765625 -52.328125 C 43.796875 -43.953125 48.523438 -37.4375 55.953125 -32.78125 C 63.390625 -28.132812 73.050781 -25.8125 84.9375 -25.8125 C 97.375 -25.8125 108.050781 -28.039062 116.96875 -32.5 C 119.320312 -33.675781 121.082031 -34.769531 122.25 -35.78125 C 122.09375 -32.5 121.898438 -29.132812 121.671875 -25.6875 L 120.375 -7.390625 C 114.425781 -3.328125 104.804688 -0.507812 91.515625 1.0625 C 87.597656 1.53125 83.84375 1.765625 80.25 1.765625 C 60.382812 1.765625 43.957031 -4.023438 30.96875 -15.609375 C 17.90625 -27.253906 11.375 -42.15625 11.375 -60.3125 Z M 101.015625 -75.09375 C 97.804688 -91.90625 88.65625 -100.3125 73.5625 -100.3125 C 61.675781 -100.3125 52.640625 -95.1875 46.453125 -84.9375 C 44.578125 -81.8125 43.132812 -78.375 42.125 -74.625 C 44 -74.539062 46.304688 -74.460938 49.046875 -74.390625 L 57.71875 -74.390625 C 60.613281 -74.304688 63.390625 -74.265625 66.046875 -74.265625 L 72.734375 -74.265625 C 76.722656 -74.265625 80.632812 -74.304688 84.46875 -74.390625 L 94.09375 -74.734375 C 96.675781 -74.816406 98.984375 -74.9375 101.015625 -75.09375 Z M 101.015625 -75.09375 "/></g></g></g><g fill="#7a3b2e" fill-opacity="1"><g transform="translate(562.668253, 213.578799)"><g><path d="M 43.875 -62.53125 L 2.34375 -122.609375 L 39.0625 -122.609375 L 60.78125 -85.171875 L 84.234375 -122.609375 L 118.375 -122.609375 C 118.300781 -122.609375 117.441406 -121.472656 115.796875 -119.203125 L 77.546875 -64.640625 L 120.96875 0 L 84.59375 0 L 61.125 -39.765625 L 37.890625 0 L 1.171875 0 Z M 43.875 -62.53125 "/></g></g></g></g></g><g clip-path="url(#075162cb89)"><path fill="#eeba2b" d="M 325.878906 259.675781 C 325.199219 259.027344 324.425781 258.527344 323.554688 258.171875 C 322.6875 257.816406 321.78125 257.628906 320.84375 257.617188 L 249.242188 257.617188 C 248.773438 257.617188 248.3125 257.660156 247.855469 257.75 C 247.398438 257.84375 246.953125 257.976562 246.523438 258.15625 C 246.09375 258.332031 245.683594 258.550781 245.296875 258.808594 C 244.90625 259.070312 244.550781 259.363281 244.21875 259.691406 C 243.890625 260.023438 243.597656 260.378906 243.335938 260.769531 C 243.078125 261.15625 242.859375 261.566406 242.683594 261.996094 C 242.503906 262.425781 242.371094 262.871094 242.277344 263.328125 C 242.1875 263.785156 242.144531 264.246094 242.144531 264.714844 L 242.144531 525.148438 C 242.199219 527.824219 241.878906 530.453125 241.175781 533.035156 C 240.476562 535.621094 239.429688 538.050781 238.027344 540.332031 C 237.371094 541.363281 236.683594 542.367188 235.964844 543.351562 C 235.246094 544.339844 234.496094 545.300781 233.71875 546.238281 C 232.9375 547.175781 232.128906 548.089844 231.292969 548.976562 C 230.457031 549.863281 229.59375 550.722656 228.703125 551.554688 C 227.8125 552.390625 226.894531 553.195312 225.957031 553.96875 C 225.015625 554.746094 224.050781 555.488281 223.0625 556.207031 C 222.074219 556.921875 221.066406 557.605469 220.035156 558.253906 C 219.003906 558.90625 217.953125 559.527344 216.882812 560.113281 C 215.8125 560.699219 214.726562 561.25 213.621094 561.765625 C 212.519531 562.285156 211.398438 562.765625 210.265625 563.214844 C 209.128906 563.664062 207.980469 564.074219 206.820312 564.449219 C 205.660156 564.824219 204.492188 565.164062 203.308594 565.464844 C 202.128906 565.765625 200.9375 566.03125 199.738281 566.257812 C 198.542969 566.484375 197.335938 566.675781 196.128906 566.828125 C 194.917969 566.980469 193.703125 567.09375 192.484375 567.167969 C 191.269531 567.242188 190.050781 567.28125 188.832031 567.28125 C 187.613281 567.277344 186.394531 567.238281 185.175781 567.164062 C 183.960938 567.085938 182.746094 566.96875 181.535156 566.816406 C 180.324219 566.664062 179.121094 566.472656 177.925781 566.242188 C 176.726562 566.011719 175.535156 565.746094 174.355469 565.445312 C 173.175781 565.140625 172.003906 564.800781 170.84375 564.421875 C 169.683594 564.046875 168.539062 563.632812 167.402344 563.183594 C 166.269531 562.734375 165.152344 562.25 164.046875 561.730469 C 162.945312 561.210938 161.859375 560.65625 160.789062 560.070312 C 159.722656 559.484375 158.671875 558.863281 157.640625 558.210938 C 156.613281 557.554688 155.605469 556.871094 154.617188 556.15625 C 153.628906 555.4375 152.667969 554.691406 151.726562 553.914062 C 150.785156 553.136719 149.871094 552.332031 148.984375 551.496094 C 148.09375 550.664062 147.230469 549.800781 146.394531 548.914062 C 145.558594 548.023438 144.753906 547.109375 143.976562 546.171875 C 143.195312 545.234375 142.449219 544.269531 141.730469 543.285156 C 141.015625 542.296875 140.328125 541.289062 139.671875 540.261719 C 138.234375 537.980469 137.152344 535.542969 136.429688 532.945312 C 135.703125 530.347656 135.367188 527.703125 135.414062 525.007812 L 135.414062 264.714844 C 135.414062 264.246094 135.367188 263.785156 135.277344 263.332031 C 135.183594 262.875 135.050781 262.429688 134.871094 262 C 134.691406 261.570312 134.472656 261.164062 134.214844 260.777344 C 133.953125 260.390625 133.660156 260.03125 133.332031 259.703125 C 133.003906 259.371094 132.644531 259.078125 132.257812 258.820312 C 131.871094 258.558594 131.460938 258.339844 131.03125 258.164062 C 130.601562 257.984375 130.160156 257.847656 129.703125 257.757812 C 129.246094 257.664062 128.785156 257.617188 128.320312 257.617188 L 56.71875 257.617188 C 56.253906 257.621094 55.792969 257.667969 55.335938 257.757812 C 54.878906 257.851562 54.4375 257.988281 54.007812 258.167969 C 53.578125 258.347656 53.171875 258.566406 52.785156 258.824219 C 52.398438 259.082031 52.039062 259.378906 51.710938 259.707031 C 51.382812 260.035156 51.089844 260.394531 50.828125 260.78125 C 50.570312 261.167969 50.351562 261.574219 50.171875 262.003906 C 49.992188 262.433594 49.855469 262.875 49.765625 263.332031 C 49.671875 263.789062 49.625 264.25 49.621094 264.714844 L 49.691406 526.851562 C 53.953125 598.738281 120.523438 655.328125 189.347656 655.011719 C 191.332031 654.980469 193.316406 654.910156 195.296875 654.796875 C 197.28125 654.683594 199.261719 654.527344 201.234375 654.332031 C 203.210938 654.136719 205.183594 653.898438 207.148438 653.621094 C 209.113281 653.34375 211.074219 653.023438 213.027344 652.664062 C 214.980469 652.304688 216.925781 651.902344 218.859375 651.460938 C 220.796875 651.019531 222.722656 650.539062 224.636719 650.015625 C 226.554688 649.496094 228.457031 648.933594 230.347656 648.332031 C 232.242188 647.730469 234.121094 647.089844 235.984375 646.40625 C 237.851562 645.726562 239.703125 645.007812 241.539062 644.25 C 243.371094 643.492188 245.191406 642.695312 246.992188 641.863281 C 248.796875 641.027344 250.578125 640.15625 252.34375 639.25 C 254.109375 638.339844 255.855469 637.394531 257.582031 636.414062 C 259.308594 635.433594 261.011719 634.414062 262.695312 633.363281 C 264.378906 632.308594 266.039062 631.222656 267.679688 630.101562 C 269.316406 628.976562 270.929688 627.820312 272.519531 626.632812 C 274.109375 625.441406 275.671875 624.21875 277.210938 622.964844 C 278.75 621.707031 280.261719 620.421875 281.746094 619.101562 C 283.230469 617.785156 284.6875 616.433594 286.117188 615.054688 C 287.542969 613.675781 288.941406 612.265625 290.3125 610.828125 C 291.679688 609.390625 293.019531 607.925781 294.328125 606.429688 C 295.636719 604.9375 296.910156 603.417969 298.15625 601.867188 C 299.398438 600.320312 300.613281 598.75 301.789062 597.152344 C 302.96875 595.554688 304.113281 593.929688 305.222656 592.285156 C 306.335938 590.640625 307.410156 588.96875 308.449219 587.277344 C 309.492188 585.589844 310.496094 583.875 311.464844 582.144531 C 312.433594 580.410156 313.367188 578.65625 314.261719 576.886719 C 315.160156 575.113281 316.015625 573.324219 316.839844 571.515625 C 317.660156 569.707031 318.441406 567.882812 319.1875 566.042969 C 319.929688 564.203125 320.636719 562.347656 321.304688 560.476562 C 321.972656 558.605469 322.597656 556.722656 323.1875 554.824219 C 323.773438 552.929688 324.324219 551.019531 324.832031 549.101562 C 325.339844 547.183594 325.808594 545.253906 326.234375 543.3125 C 327.40625 537.890625 327.953125 532.402344 327.867188 526.851562 L 327.9375 264.714844 C 327.929688 263.773438 327.75 262.867188 327.394531 261.996094 C 327.039062 261.125 326.535156 260.351562 325.878906 259.675781 Z M 325.878906 259.675781 " fill-opacity="1" fill-rule="nonzero"/></g><g clip-path="url(#f8a4c4cb2d)"><path fill="#b6ccd7" d="M 210.640625 538.765625 L 166.910156 538.765625 C 163.453125 538.765625 160.660156 535.96875 160.660156 532.519531 L 160.660156 263.882812 C 160.660156 260.433594 163.453125 257.632812 166.910156 257.632812 L 210.640625 257.632812 C 214.097656 257.632812 216.886719 260.433594 216.886719 263.882812 L 216.886719 532.519531 C 216.886719 535.96875 214.097656 538.765625 210.640625 538.765625 Z M 210.640625 538.765625 " fill-opacity="1" fill-rule="nonzero"/></g><g transform="matrix(1, 0, 0, 1, 1090, 414)"><g clip-path="url(#57dbccf92b)"><g fill="#eeba2b" fill-opacity="1"><g transform="translate(3.588124, 198.686542)"><g><path d="M 56.953125 -119.453125 L 55.109375 -95.46875 C 55.109375 -95.78125 56.644531 -96.816406 59.71875 -98.578125 C 62.800781 -100.347656 66.878906 -102 71.953125 -103.53125 C 77.023438 -105.070312 82.710938 -105.84375 89.015625 -105.84375 C 105.921875 -105.84375 119.332031 -101.039062 129.25 -91.4375 C 139.164062 -81.832031 144.125 -68.648438 144.125 -51.890625 C 144.125 -41.742188 141.429688 -32.519531 136.046875 -24.21875 C 130.671875 -15.914062 123.0625 -9.34375 113.21875 -4.5 C 103.382812 0.34375 92.007812 2.765625 79.09375 2.765625 C 56.5 2.765625 39.164062 -2.078125 27.09375 -11.765625 C 15.03125 -21.453125 9 -34.59375 9 -51.1875 L 49.578125 -51.1875 C 49.578125 -44.882812 51.726562 -39.617188 56.03125 -35.390625 C 60.34375 -31.171875 66.414062 -29.0625 74.25 -29.0625 C 82.09375 -29.0625 88.128906 -31.25 92.359375 -35.625 C 96.585938 -40.007812 98.703125 -45.660156 98.703125 -52.578125 C 98.703125 -59.648438 96.585938 -65.375 92.359375 -69.75 C 88.128906 -74.132812 82.171875 -76.328125 74.484375 -76.328125 C 68.640625 -76.328125 64.21875 -75.363281 61.21875 -73.4375 C 58.226562 -71.519531 56.078125 -69.71875 54.765625 -68.03125 C 53.460938 -66.34375 52.65625 -65.265625 52.34375 -64.796875 L 15.90625 -69.875 L 22.59375 -158.65625 L 132.375 -158.65625 L 132.375 -119.453125 Z M 56.953125 -119.453125 "/></g></g></g><g fill="#eeba2b" fill-opacity="1"><g transform="translate(144.004896, 198.686542)"><g><path d="M 79.796875 -161.421875 C 92.242188 -161.421875 103.039062 -159.460938 112.1875 -155.546875 C 121.332031 -151.628906 128.40625 -146.054688 133.40625 -138.828125 C 138.40625 -131.597656 140.90625 -123.21875 140.90625 -113.6875 C 140.90625 -104.769531 138.675781 -96.695312 134.21875 -89.46875 C 129.757812 -82.25 124.144531 -75.867188 117.375 -70.328125 C 110.613281 -64.796875 101.3125 -58.035156 89.46875 -50.046875 C 82.863281 -45.734375 77.484375 -42.039062 73.328125 -38.96875 L 142.75 -38.96875 L 142.75 0 L 11.296875 0 L 11.296875 -11.0625 C 11.296875 -19.21875 13.175781 -26.484375 16.9375 -32.859375 C 20.707031 -39.242188 26.207031 -45.664062 33.4375 -52.125 C 40.8125 -58.570312 51.421875 -67.332031 65.265625 -78.40625 C 76.328125 -87.164062 84.085938 -93.851562 88.546875 -98.46875 C 93.003906 -103.082031 95.234375 -107.617188 95.234375 -112.078125 C 95.234375 -116.835938 93.582031 -120.832031 90.28125 -124.0625 C 86.976562 -127.289062 82.019531 -128.90625 75.40625 -128.90625 C 68.488281 -128.90625 63.03125 -126.90625 59.03125 -122.90625 C 55.039062 -118.914062 53.046875 -113.691406 53.046875 -107.234375 L 53.046875 -102.625 L 11.984375 -102.625 C 11.835938 -103.851562 11.765625 -105.539062 11.765625 -107.6875 C 11.765625 -124.289062 17.566406 -137.394531 29.171875 -147 C 40.773438 -156.613281 57.648438 -161.421875 79.796875 -161.421875 Z M 79.796875 -161.421875 "/></g></g></g></g></g><g transform="matrix(1, 0, 0, 1, 366, 192)"><g clip-path="url(#cd96538237)"><g fill="#7a3b2e" fill-opacity="1"><g transform="translate(3.272358, 213.171709)"><g><path d="M 109.109375 -156.625 C 113.960938 -156.238281 117.992188 -156.046875 121.203125 -156.046875 L 130.9375 -156.046875 C 134.21875 -156.046875 137.660156 -156.359375 141.265625 -156.984375 L 141.265625 -59.953125 C 141.265625 -40.710938 135.4375 -25.265625 123.78125 -13.609375 C 112.75 -2.578125 98.90625 2.9375 82.25 2.9375 C 64.019531 2.9375 49.273438 -1.796875 38.015625 -11.265625 C 25.421875 -21.898438 19.125 -37.226562 19.125 -57.25 L 19.125 -156.625 C 25.613281 -156.238281 31.734375 -156.046875 37.484375 -156.046875 C 43.234375 -156.046875 47.984375 -156.359375 51.734375 -156.984375 L 51.734375 -55.734375 C 51.734375 -45.878906 54.75 -38.210938 60.78125 -32.734375 C 66.40625 -27.722656 73.441406 -25.21875 81.890625 -25.21875 C 94.410156 -25.21875 102.742188 -31.632812 106.890625 -44.46875 C 108.367188 -49.082031 109.109375 -54.789062 109.109375 -61.59375 Z M 109.109375 -156.625 "/></g></g></g><g fill="#7a3b2e" fill-opacity="1"><g transform="translate(163.760234, 213.171709)"><g><path d="M 48.109375 -15.015625 C 48.109375 -8.128906 48.421875 -3.125 49.046875 0 L 19.59375 0 L 19.59375 -122.609375 L 48.109375 -122.609375 L 48.109375 -112.15625 C 58.429688 -120.6875 69.457031 -124.953125 81.1875 -124.953125 C 94.019531 -124.953125 104.265625 -120.585938 111.921875 -111.859375 C 119.585938 -103.140625 123.421875 -91.664062 123.421875 -77.4375 L 123.421875 -30.734375 C 123.421875 -17.515625 123.613281 -9.578125 124 -6.921875 C 124.394531 -4.265625 124.925781 -2.546875 125.59375 -1.765625 C 126.257812 -0.984375 126.828125 -0.273438 127.296875 0.359375 L 127.0625 0.828125 C 120.726562 0.273438 116.113281 0 113.21875 0 L 105 0 C 102.5 0 99.140625 0.117188 94.921875 0.359375 L 94.921875 -63.59375 C 94.921875 -86.507812 87.957031 -97.96875 74.03125 -97.96875 C 63.707031 -97.96875 55.066406 -92.648438 48.109375 -82.015625 Z M 48.109375 -15.015625 "/></g></g></g><g fill="#7a3b2e" fill-opacity="1"><g transform="translate(304.187124, 213.171709)"><g><path d="M 13.5 -157.5625 C 19.75 -167.34375 26.273438 -175.945312 33.078125 -183.375 L 58.3125 -163.546875 C 54.945312 -159.398438 51.816406 -155.332031 48.921875 -151.34375 C 48.921875 -151.34375 45.910156 -147.082031 39.890625 -138.5625 Z M 44.34375 -13.140625 C 44.34375 -6.410156 44.5 -2.03125 44.8125 0 L 15.015625 0 L 15.015625 -122.609375 L 44.34375 -122.609375 Z M 44.34375 -13.140625 "/></g></g></g><g fill="#7a3b2e" fill-opacity="1"><g transform="translate(364.370077, 213.171709)"><g><path d="M -0.46875 -122.609375 L 32.734375 -122.609375 L 61.359375 -41.890625 L 89.046875 -122.609375 L 121.546875 -122.609375 L 73.09375 0 L 48.921875 0 Z M -0.46875 -122.609375 "/></g></g></g><g fill="#7a3b2e" fill-opacity="1"><g transform="translate(485.322563, 213.171709)"><g><path d="M 11.375 -60.3125 C 11.375 -69.457031 12.9375 -77.941406 16.0625 -85.765625 C 19.195312 -93.585938 23.617188 -100.429688 29.328125 -106.296875 C 41.535156 -118.734375 57.492188 -124.953125 77.203125 -124.953125 C 93.859375 -124.953125 107.234375 -119.4375 117.328125 -108.40625 C 127.253906 -97.769531 132.21875 -84.394531 132.21875 -68.28125 C 132.21875 -62.101562 131.75 -57.878906 130.8125 -55.609375 C 122.988281 -53.421875 107.070312 -52.328125 83.0625 -52.328125 L 41.765625 -52.328125 C 43.796875 -43.953125 48.523438 -37.4375 55.953125 -32.78125 C 63.390625 -28.132812 73.050781 -25.8125 84.9375 -25.8125 C 97.375 -25.8125 108.050781 -28.039062 116.96875 -32.5 C 119.320312 -33.675781 121.082031 -34.769531 122.25 -35.78125 C 122.09375 -32.5 121.898438 -29.132812 121.671875 -25.6875 L 120.375 -7.390625 C 114.425781 -3.328125 104.804688 -0.507812 91.515625 1.0625 C 87.597656 1.53125 83.84375 1.765625 80.25 1.765625 C 60.382812 1.765625 43.957031 -4.023438 30.96875 -15.609375 C 17.90625 -27.253906 11.375 -42.15625 11.375 -60.3125 Z M 101.015625 -75.09375 C 97.804688 -91.90625 88.65625 -100.3125 73.5625 -100.3125 C 61.675781 -100.3125 52.640625 -95.1875 46.453125 -84.9375 C 44.578125 -81.8125 43.132812 -78.375 42.125 -74.625 C 44 -74.539062 46.304688 -74.460938 49.046875 -74.390625 L 57.71875 -74.390625 C 60.613281 -74.304688 63.390625 -74.265625 66.046875 -74.265625 L 72.734375 -74.265625 C 76.722656 -74.265625 80.632812 -74.304688 84.46875 -74.390625 L 94.09375 -74.734375 C 96.675781 -74.816406 98.984375 -74.9375 101.015625 -75.09375 Z M 101.015625 -75.09375 "/></g></g></g><g fill="#7a3b2e" fill-opacity="1"><g transform="translate(625.749453, 213.171709)"><g><path d="M 44.9375 -13.140625 C 44.9375 -6.410156 45.09375 -2.03125 45.40625 0 L 16.1875 0 L 16.1875 -122.609375 L 44.9375 -122.609375 L 44.9375 -113.578125 C 51.582031 -121.160156 58.5625 -124.953125 65.875 -124.953125 C 73.1875 -124.953125 78.957031 -124.050781 83.1875 -122.25 L 81.078125 -90.6875 L 80.609375 -90.34375 C 77.867188 -95.1875 72.195312 -97.609375 63.59375 -97.609375 C 60.300781 -97.609375 56.953125 -96.492188 53.546875 -94.265625 C 50.148438 -92.035156 47.28125 -89.082031 44.9375 -85.40625 Z M 44.9375 -13.140625 "/></g></g></g><g fill="#7a3b2e" fill-opacity="1"><g transform="translate(705.993391, 213.171709)"><g><path d="M 58.546875 1.765625 C 36.484375 1.765625 19.863281 -2.265625 8.6875 -10.328125 C 8.84375 -12.671875 9.078125 -15.328125 9.390625 -18.296875 L 10.4375 -26.75 C 11.0625 -32.300781 11.453125 -35.757812 11.609375 -37.125 C 11.765625 -38.5 11.878906 -39.242188 11.953125 -39.359375 C 12.035156 -39.472656 12.664062 -38.847656 13.84375 -37.484375 C 15.019531 -36.117188 17.25 -34.457031 20.53125 -32.5 C 23.8125 -30.539062 27.601562 -28.820312 31.90625 -27.34375 C 41.21875 -24.132812 50.921875 -22.53125 61.015625 -22.53125 C 74.546875 -22.53125 81.3125 -27.023438 81.3125 -36.015625 C 81.3125 -38.910156 80.019531 -41.0625 77.4375 -42.46875 C 72.820312 -44.8125 66.035156 -46.585938 57.078125 -47.796875 C 48.117188 -49.015625 40.785156 -50.796875 35.078125 -53.140625 C 29.367188 -55.492188 24.71875 -58.3125 21.125 -61.59375 C 14.46875 -67.769531 11.140625 -75.863281 11.140625 -85.875 C 11.140625 -98.082031 15.832031 -107.664062 25.21875 -114.625 C 34.53125 -121.507812 47.398438 -124.953125 63.828125 -124.953125 C 80.097656 -124.953125 93.976562 -120.335938 105.46875 -111.109375 C 104.925781 -109.078125 104.34375 -107.117188 103.71875 -105.234375 C 101.914062 -100.078125 100.582031 -96.363281 99.71875 -94.09375 L 97.03125 -87.171875 C 96.875 -86.546875 96.753906 -86.234375 96.671875 -86.234375 C 96.515625 -86.234375 95.890625 -87.054688 94.796875 -88.703125 C 89.867188 -94.410156 82.203125 -98.160156 71.796875 -99.953125 C 68.597656 -100.585938 65.316406 -100.90625 61.953125 -100.90625 C 47.710938 -100.90625 40.59375 -96.601562 40.59375 -88 C 40.59375 -85.019531 42.078125 -82.75 45.046875 -81.1875 C 50.597656 -78.21875 58.203125 -76.023438 67.859375 -74.609375 C 77.523438 -73.203125 84.859375 -71.304688 89.859375 -68.921875 C 94.867188 -66.535156 98.898438 -63.664062 101.953125 -60.3125 C 107.585938 -54.207031 110.40625 -46.109375 110.40625 -36.015625 C 110.40625 -24.984375 105.984375 -16.03125 97.140625 -9.15625 C 87.910156 -1.875 75.046875 1.765625 58.546875 1.765625 Z M 58.546875 1.765625 "/></g></g></g><g fill="#7a3b2e" fill-opacity="1"><g transform="translate(826.359298, 213.171709)"><g><path d="M 98.203125 -7.28125 C 87.097656 -1.25 77.046875 1.765625 68.046875 1.765625 C 59.054688 1.765625 51.351562 0.925781 44.9375 -0.75 C 38.519531 -2.4375 33.082031 -4.925781 28.625 -8.21875 C 19.550781 -14.863281 15.015625 -24.484375 15.015625 -37.078125 C 15.015625 -48.335938 20.566406 -57.722656 31.671875 -65.234375 C 43.722656 -73.367188 60.070312 -77.4375 80.71875 -77.4375 L 85.40625 -77.3125 C 86.351562 -77.238281 87.410156 -77.179688 88.578125 -77.140625 C 89.753906 -77.097656 90.8125 -77 91.75 -76.84375 C 91.125 -89.363281 85.726562 -96.675781 75.5625 -98.78125 C 72.195312 -99.488281 68.613281 -99.84375 64.8125 -99.84375 C 61.019531 -99.84375 57.304688 -99.507812 53.671875 -98.84375 C 50.035156 -98.175781 46.5 -97.296875 43.0625 -96.203125 C 35.46875 -93.773438 30.03125 -91 26.75 -87.875 L 26.390625 -88.109375 L 22.875 -114.046875 C 36.71875 -121.316406 51.851562 -124.953125 68.28125 -124.953125 C 93.78125 -124.953125 110.085938 -115.757812 117.203125 -97.375 C 119.472656 -91.507812 120.609375 -84.898438 120.609375 -77.546875 L 120.609375 -35.078125 C 120.609375 -26.003906 123.816406 -19.828125 130.234375 -16.546875 L 109 2.9375 C 104.539062 0.582031 100.941406 -2.820312 98.203125 -7.28125 Z M 91.859375 -55.734375 C 89.753906 -56.117188 87.566406 -56.3125 85.296875 -56.3125 L 80.609375 -56.3125 C 63.316406 -56.3125 52.328125 -52.476562 47.640625 -44.8125 C 46.222656 -42.550781 45.515625 -40.164062 45.515625 -37.65625 C 45.515625 -35.15625 45.960938 -32.945312 46.859375 -31.03125 C 47.765625 -29.113281 49.273438 -27.53125 51.390625 -26.28125 C 55.453125 -23.9375 61.492188 -22.765625 69.515625 -22.765625 C 77.535156 -22.765625 85.023438 -24.679688 91.984375 -28.515625 C 91.898438 -29.367188 91.859375 -30.265625 91.859375 -31.203125 Z M 91.859375 -55.734375 "/></g></g></g><g fill="#7a3b2e" fill-opacity="1"><g transform="translate(966.316871, 213.171709)"><g><path d="M 44.46875 -13.140625 C 44.46875 -6.410156 44.625 -2.03125 44.9375 0 L 15.140625 0 L 15.140625 -174.8125 L 44.46875 -174.8125 Z M 44.46875 -13.140625 "/></g></g></g></g></g><path stroke-linecap="butt" transform="matrix(0.749993, 0.00322326, -0.00322326, 0.749993, 772.899687, 273.746404)" fill="none" stroke-linejoin="miter" d="M 4.68329 23.635928 C 36.724727 4.123044 68.771889 4.120732 100.814404 23.639454 " stroke="#7a3b2e" stroke-width="18" stroke-opacity="1" stroke-miterlimit="4"/></svg>