<svg width="2885" height="1622" viewBox="0 0 2885 1622" fill="none" xmlns="http://www.w3.org/2000/svg">
<path d="M1966.5 202.5V19.5C1966.5 9.00659 1975.01 0.5 1985.5 0.5H2638.28C2645.47 0.5 2652.04 4.55222 2655.26 10.9722L2755.74 211.028C2758.96 217.448 2765.53 221.5 2772.72 221.5H2865.5C2875.99 221.5 2884.5 230.007 2884.5 240.5V1602.5C2884.5 1612.99 2875.99 1621.5 2865.5 1621.5H19.5C9.00659 1621.5 0.5 1612.99 0.5 1602.5V240.5C0.5 230.007 9.0066 221.5 19.5 221.5H1947.5C1957.99 221.5 1966.5 212.993 1966.5 202.5Z" fill="white" stroke="black"/>
</svg>
