<svg width="3037" height="1631" viewBox="0 0 3037 1631" fill="none" xmlns="http://www.w3.org/2000/svg">

<path  d="M833.306 0C850.73 5.21628e-05 867.378 7.44582 878.393 20.9707C926.047 79.4851 987.536 168.725 1025.54 226.003C1036.7 242.809 1055.44 253 1075.61 253H2976.5C3009.91 253 3037 280.087 3037 313.5V1570C3037 1603.41 3009.91 1630.5 2976.5 1630.5H60.5C27.0868 1630.5 0 1603.41 0 1570V60.5C1.44333e-05 27.0868 27.0868 2.06163e-06 60.5 0H833.306ZM60.5 1C27.6391 1 1.00001 27.6391 1 60.5V1570C1 1602.86 27.6391 1629.5 60.5 1629.5H2976.5C3009.36 1629.5 3036 1602.86 3036 1570V313.5C3036 280.639 3009.36 254 2976.5 254H1075.61C1055.1 254 1036.05 243.637 1024.71 226.556C986.705 169.281 925.239 80.0756 877.617 21.6016C866.804 8.32386 850.448 1.00005 833.306 1H60.5Z" fill="white" stroke="black" stroke-width="2"/>
</svg>
