<svg width="2885" height="1635" viewBox="0 0 2885 1635" fill="none" xmlns="http://www.w3.org/2000/svg">
<rect width="2885" height="1635" fill="#F5F5F5"/>
<path id="Vector 1" d="M1947 149V40.5C1947 18.4086 1964.91 0.5 1987 0.5H2635.54C2648.67 0.5 2660.96 6.93967 2668.43 17.7316L2775.07 171.768C2782.54 182.56 2794.83 189 2807.96 189H2844.5C2866.59 189 2884.5 206.909 2884.5 229V1594.5C2884.5 1616.59 2866.59 1634.5 2844.5 1634.5H40.5C18.4087 1634.5 0.5 1616.59 0.5 1594.5V229C0.5 206.909 18.4087 189 40.5 189H1907C1929.09 189 1947 171.091 1947 149Z" stroke="black"/>
</svg>
