<svg width="1920" height="817" viewBox="0 0 1920 817" fill="none" xmlns="http://www.w3.org/2000/svg">
<path d="M1353.1 49.4999V9C1353.1 4.02944 1357.13 0 1362.1 0H1743.09C1745.68 0 1748.15 1.11696 1749.86 3.06503L1795.8 55.4348C1797.51 57.3829 1799.97 58.4999 1802.56 58.4999L1910 58.4999C1914.97 58.4999 1919 62.5293 1919 67.4999V809C1919 813.971 1914.97 818 1910 818H9C4.02944 818 0 813.971 0 809V67.5C0 62.5294 4.02945 58.5 9.00001 58.5L1344.1 58.4999C1349.07 58.4999 1353.1 54.4704 1353.1 49.4999Z" fill="white"/>
</svg>
