<svg xmlns="http://www.w3.org/2000/svg" xmlns:xlink="http://www.w3.org/1999/xlink" width="500" zoomAndPan="magnify" viewBox="0 0 375 374.999991" height="500" preserveAspectRatio="xMidYMid meet" version="1.0"><defs><filter x="0%" y="0%" width="100%" height="100%" id="54f24e04ac"><feColorMatrix values="0 0 0 0 1 0 0 0 0 1 0 0 0 0 1 0 0 0 1 0" color-interpolation-filters="sRGB"/></filter><g/><clipPath id="455dd14da0"><path d="M 2.160156 89.753906 L 192.964844 89.753906 L 192.964844 362.238281 L 2.160156 362.238281 Z M 2.160156 89.753906 " clip-rule="nonzero"/></clipPath><clipPath id="1fb3ca4e9b"><path d="M 78.226562 89.753906 L 116.664062 89.753906 L 116.664062 282.621094 L 78.226562 282.621094 Z M 78.226562 89.753906 " clip-rule="nonzero"/></clipPath><clipPath id="301cc55e5e"><path d="M 55 0.199219 L 141 0.199219 L 141 85 L 55 85 Z M 55 0.199219 " clip-rule="nonzero"/></clipPath><mask id="2793150ec0"><g filter="url(#54f24e04ac)"><rect x="-172.5" width="540" fill="#000000" y="-89.499998" height="539.999987" fill-opacity="0.36"/></g></mask><clipPath id="1e8b47d81b"><path d="M 5 4 L 80 4 L 80 80 L 5 80 Z M 5 4 " clip-rule="nonzero"/></clipPath><clipPath id="7e31f769e5"><path d="M 8.902344 -1.15625 L 85.84375 8.601562 L 76.085938 85.542969 L -0.855469 75.785156 Z M 8.902344 -1.15625 " clip-rule="nonzero"/></clipPath><clipPath id="5b7c19b39f"><path d="M 8.902344 -1.15625 L 85.84375 8.601562 L 76.085938 85.542969 L -0.855469 75.785156 Z M 8.902344 -1.15625 " clip-rule="nonzero"/></clipPath><clipPath id="cf4e5d8af6"><rect x="0" width="86" y="0" height="85"/></clipPath><clipPath id="62fd51dbf8"><path d="M 2 0.71875 L 56.800781 0.71875 L 56.800781 49.679688 L 2 49.679688 Z M 2 0.71875 " clip-rule="nonzero"/></clipPath><clipPath id="d43daca312"><rect x="0" width="57" y="0" height="50"/></clipPath><clipPath id="4e70b0a217"><rect x="0" width="195" y="0" height="363"/></clipPath></defs><g transform="matrix(1, 0, 0, 1, 90, 7)"><g clip-path="url(#4e70b0a217)"><g clip-path="url(#455dd14da0)"><path fill="#eeba2b" d="M 191.472656 91.167969 C 190.507812 90.246094 189.355469 89.777344 188.019531 89.757812 L 138.941406 89.757812 C 138.621094 89.757812 138.304688 89.789062 137.992188 89.851562 C 137.679688 89.914062 137.375 90.003906 137.078125 90.125 C 136.785156 90.25 136.503906 90.398438 136.238281 90.574219 C 135.972656 90.753906 135.726562 90.953125 135.5 91.179688 C 135.273438 91.40625 135.074219 91.652344 134.894531 91.917969 C 134.71875 92.183594 134.566406 92.464844 134.445312 92.761719 C 134.324219 93.054688 134.230469 93.359375 134.167969 93.671875 C 134.109375 93.984375 134.078125 94.304688 134.078125 94.621094 L 134.078125 273.136719 C 134.117188 274.972656 133.894531 276.773438 133.414062 278.546875 C 132.933594 280.316406 132.214844 281.984375 131.257812 283.546875 C 130.804688 284.253906 130.335938 284.941406 129.84375 285.617188 C 129.347656 286.292969 128.835938 286.953125 128.300781 287.59375 C 127.765625 288.238281 127.214844 288.863281 126.640625 289.472656 C 126.066406 290.078125 125.472656 290.667969 124.863281 291.238281 C 124.253906 291.8125 123.625 292.363281 122.980469 292.894531 C 122.335938 293.425781 121.675781 293.9375 120.996094 294.425781 C 120.320312 294.917969 119.628906 295.386719 118.921875 295.832031 C 118.214844 296.277344 117.496094 296.703125 116.761719 297.105469 C 116.027344 297.507812 115.285156 297.882812 114.527344 298.238281 C 113.769531 298.59375 113.003906 298.925781 112.226562 299.230469 C 111.449219 299.539062 110.660156 299.820312 109.867188 300.078125 C 109.070312 300.335938 108.265625 300.566406 107.457031 300.773438 C 106.648438 300.980469 105.832031 301.160156 105.011719 301.316406 C 104.191406 301.472656 103.363281 301.601562 102.535156 301.707031 C 101.707031 301.8125 100.875 301.890625 100.039062 301.941406 C 99.203125 301.992188 98.371094 302.019531 97.535156 302.019531 C 96.699219 302.015625 95.863281 301.992188 95.027344 301.9375 C 94.195312 301.882812 93.363281 301.804688 92.53125 301.699219 C 91.703125 301.59375 90.878906 301.464844 90.058594 301.308594 C 89.238281 301.148438 88.421875 300.96875 87.613281 300.757812 C 86.800781 300.550781 86 300.316406 85.203125 300.058594 C 84.410156 299.800781 83.625 299.515625 82.847656 299.210938 C 82.070312 298.902344 81.300781 298.570312 80.546875 298.214844 C 79.789062 297.859375 79.046875 297.480469 78.3125 297.074219 C 77.578125 296.671875 76.859375 296.25 76.15625 295.800781 C 75.449219 295.351562 74.757812 294.882812 74.082031 294.390625 C 73.40625 293.902344 72.746094 293.390625 72.101562 292.855469 C 71.457031 292.324219 70.828125 291.773438 70.21875 291.199219 C 69.609375 290.628906 69.019531 290.039062 68.445312 289.429688 C 67.875 288.820312 67.320312 288.191406 66.785156 287.550781 C 66.253906 286.90625 65.742188 286.246094 65.25 285.570312 C 64.757812 284.894531 64.285156 284.203125 63.839844 283.496094 C 62.851562 281.933594 62.109375 280.261719 61.613281 278.484375 C 61.117188 276.703125 60.886719 274.890625 60.921875 273.039062 L 60.921875 94.621094 C 60.917969 94.304688 60.886719 93.988281 60.824219 93.675781 C 60.761719 93.363281 60.667969 93.058594 60.546875 92.761719 C 60.421875 92.46875 60.273438 92.1875 60.097656 91.921875 C 59.917969 91.65625 59.714844 91.414062 59.492188 91.1875 C 59.265625 90.960938 59.019531 90.757812 58.753906 90.582031 C 58.488281 90.40625 58.210938 90.253906 57.914062 90.132812 C 57.621094 90.007812 57.316406 89.917969 57.003906 89.855469 C 56.691406 89.789062 56.375 89.757812 56.054688 89.757812 L 6.976562 89.757812 C 6.65625 89.761719 6.339844 89.792969 6.027344 89.855469 C 5.714844 89.917969 5.414062 90.011719 5.117188 90.136719 C 4.824219 90.257812 4.542969 90.410156 4.28125 90.585938 C 4.015625 90.761719 3.769531 90.964844 3.542969 91.191406 C 3.320312 91.414062 3.117188 91.660156 2.941406 91.925781 C 2.761719 92.191406 2.613281 92.46875 2.488281 92.765625 C 2.367188 93.058594 2.273438 93.363281 2.210938 93.675781 C 2.144531 93.988281 2.113281 94.304688 2.113281 94.621094 L 2.160156 274.304688 C 5.082031 323.582031 50.710938 362.371094 97.886719 362.152344 C 100.609375 362.113281 103.328125 361.957031 106.035156 361.6875 C 108.746094 361.421875 111.441406 361.039062 114.117188 360.546875 C 116.796875 360.050781 119.449219 359.445312 122.078125 358.730469 C 124.703125 358.015625 127.296875 357.1875 129.855469 356.257812 C 132.414062 355.324219 134.929688 354.285156 137.402344 353.140625 C 139.871094 351.996094 142.292969 350.753906 144.660156 349.40625 C 147.027344 348.058594 149.332031 346.617188 151.578125 345.078125 C 153.828125 343.539062 156.003906 341.90625 158.113281 340.1875 C 160.226562 338.464844 162.257812 336.65625 164.21875 334.765625 C 166.175781 332.875 168.054688 330.902344 169.847656 328.855469 C 171.640625 326.804688 173.34375 324.683594 174.960938 322.492188 C 176.578125 320.300781 178.101562 318.046875 179.527344 315.726562 C 180.953125 313.40625 182.28125 311.03125 183.511719 308.601562 C 184.738281 306.171875 185.863281 303.695312 186.886719 301.167969 C 187.90625 298.644531 188.820312 296.082031 189.628906 293.480469 C 190.433594 290.878906 191.132812 288.25 191.71875 285.589844 C 192.523438 281.871094 192.894531 278.109375 192.835938 274.304688 L 192.886719 94.621094 C 192.875 93.28125 192.40625 92.132812 191.472656 91.167969 Z M 191.472656 91.167969 " fill-opacity="1" fill-rule="nonzero"/></g><g clip-path="url(#1fb3ca4e9b)"><path fill="#b6ccd7" d="M 112.488281 282.476562 L 82.507812 282.476562 C 80.140625 282.476562 78.226562 280.558594 78.226562 278.195312 L 78.226562 94.046875 C 78.226562 91.683594 80.140625 89.761719 82.507812 89.761719 L 112.488281 89.761719 C 114.855469 89.761719 116.769531 91.683594 116.769531 94.046875 L 116.769531 278.195312 C 116.769531 280.558594 114.855469 282.476562 112.488281 282.476562 Z M 112.488281 282.476562 " fill-opacity="1" fill-rule="nonzero"/></g><g clip-path="url(#301cc55e5e)"><g mask="url(#2793150ec0)"><g transform="matrix(1, 0, 0, 1, 55, 0)"><g clip-path="url(#cf4e5d8af6)"><g clip-path="url(#1e8b47d81b)"><g clip-path="url(#7e31f769e5)"><g clip-path="url(#5b7c19b39f)"><path fill="#7ed957" d="M 49.621094 5.464844 C 27.429688 1.195312 6.554688 17.371094 5.148438 39.925781 C 3.984375 58.574219 17.03125 75.40625 35.375 78.933594 C 57.566406 83.203125 78.441406 67.03125 79.847656 44.472656 C 81.011719 25.828125 67.96875 8.992188 49.621094 5.464844 Z M 56.96875 62.75 C 59.066406 57.917969 60.667969 52.261719 61.574219 46.070312 L 76.546875 47.96875 C 75.207031 55.882812 71.234375 62.757812 65.644531 67.800781 C 63.609375 65.953125 60.652344 64.234375 56.96875 62.75 Z M 13.695312 61.214844 C 9.542969 54.933594 7.40625 47.285156 8.089844 39.285156 L 23.0625 41.183594 C 22.390625 47.40625 22.53125 53.285156 23.355469 58.484375 C 19.414062 59.003906 16.125 59.929688 13.695312 61.214844 Z M 28.015625 21.671875 C 25.925781 26.5 24.324219 32.148438 23.421875 38.328125 L 8.453125 36.429688 C 9.78125 28.550781 13.726562 21.707031 19.273438 16.667969 C 21.347656 18.496094 24.328125 20.199219 28.015625 21.671875 Z M 41.25 40.589844 L 26.277344 38.691406 C 27.152344 32.796875 28.738281 27.332031 30.785156 22.691406 C 34.542969 23.957031 38.769531 24.945312 43.15625 25.582031 Z M 40.890625 43.445312 L 38.984375 58.457031 C 34.570312 57.976562 30.234375 57.882812 26.289062 58.183594 C 25.460938 53.171875 25.289062 47.476562 25.917969 41.546875 Z M 43.746094 43.808594 L 58.71875 45.707031 C 57.84375 51.605469 56.253906 57.078125 54.203125 61.722656 C 50.457031 60.449219 46.238281 59.457031 41.839844 58.816406 Z M 44.105469 40.953125 L 46.011719 25.945312 C 50.417969 26.421875 54.753906 26.519531 58.710938 26.230469 C 59.535156 31.238281 59.707031 36.929688 59.078125 42.851562 Z M 46.371094 23.089844 L 48.253906 8.261719 C 52.828125 9.746094 56.363281 15.484375 58.15625 23.390625 C 54.480469 23.636719 50.460938 23.53125 46.371094 23.089844 Z M 45.398438 7.898438 L 43.515625 22.726562 C 39.449219 22.132812 35.53125 21.230469 32.03125 20.078125 C 35.742188 12.867188 40.597656 8.191406 45.398438 7.898438 Z M 38.625 61.3125 L 36.742188 76.140625 C 32.167969 74.65625 28.636719 68.921875 26.84375 61.027344 C 30.507812 60.769531 34.527344 60.871094 38.625 61.3125 Z M 39.597656 76.5 L 41.480469 61.671875 C 45.554688 62.269531 49.472656 63.175781 52.957031 64.335938 C 49.25 71.535156 44.398438 76.207031 39.597656 76.5 Z M 61.933594 43.214844 C 62.605469 37.003906 62.464844 31.132812 61.644531 25.9375 C 65.585938 25.433594 68.894531 24.527344 71.363281 23.273438 C 75.476562 29.539062 77.585938 37.152344 76.90625 45.113281 Z M 69.660156 20.894531 C 67.5 21.910156 64.5625 22.671875 61.121094 23.101562 C 59.96875 17.8125 58.0625 13.378906 55.550781 10.222656 C 61.179688 12.523438 66.011719 16.246094 69.660156 20.894531 Z M 29.234375 19.058594 C 26.011719 17.78125 23.355469 16.308594 21.515625 14.789062 C 26.210938 11.195312 31.816406 8.800781 37.84375 7.980469 C 34.625 10.40625 31.667969 14.222656 29.234375 19.058594 Z M 15.402344 63.582031 C 17.519531 62.546875 20.441406 61.765625 23.882812 61.320312 C 25.03125 66.601562 26.941406 71.023438 29.445312 74.175781 C 23.851562 71.886719 19.042969 68.195312 15.402344 63.582031 Z M 55.75 65.363281 C 58.972656 66.652344 61.605469 68.136719 63.398438 69.667969 C 58.722656 73.230469 53.144531 75.605469 47.152344 76.421875 C 50.367188 73.996094 53.316406 70.191406 55.75 65.363281 Z M 55.75 65.363281 " fill-opacity="1" fill-rule="nonzero"/></g></g></g></g></g></g></g><g transform="matrix(1, 0, 0, 1, 68, 17)"><g clip-path="url(#d43daca312)"><g clip-path="url(#62fd51dbf8)"><path fill="#ffffff" d="M 26.359375 0.800781 L 32.628906 0.800781 C 45.945312 0.800781 56.742188 11.597656 56.742188 24.914062 C 56.742188 38.230469 45.945312 49.027344 32.628906 49.027344 L 26.359375 49.027344 C 13.042969 49.027344 2.25 38.230469 2.25 24.914062 C 2.25 11.597656 13.042969 0.800781 26.359375 0.800781 Z M 26.359375 0.800781 " fill-opacity="0.8" fill-rule="nonzero"/></g><g fill="#eeba2b" fill-opacity="1"><g transform="translate(0.951054, 39.266544)"><g><path d="M 11.046875 -23.171875 L 10.6875 -18.515625 C 10.6875 -18.578125 10.984375 -18.78125 11.578125 -19.125 C 12.179688 -19.46875 12.972656 -19.785156 13.953125 -20.078125 C 14.941406 -20.378906 16.046875 -20.53125 17.265625 -20.53125 C 20.546875 -20.53125 23.144531 -19.597656 25.0625 -17.734375 C 26.988281 -15.867188 27.953125 -13.3125 27.953125 -10.0625 C 27.953125 -8.09375 27.429688 -6.300781 26.390625 -4.6875 C 25.347656 -3.082031 23.875 -1.8125 21.96875 -0.875 C 20.0625 0.0625 17.851562 0.53125 15.34375 0.53125 C 10.957031 0.53125 7.59375 -0.40625 5.25 -2.28125 C 2.914062 -4.15625 1.75 -6.707031 1.75 -9.9375 L 9.625 -9.9375 C 9.625 -8.707031 10.039062 -7.679688 10.875 -6.859375 C 11.707031 -6.046875 12.882812 -5.640625 14.40625 -5.640625 C 15.925781 -5.640625 17.09375 -6.0625 17.90625 -6.90625 C 18.726562 -7.757812 19.140625 -8.859375 19.140625 -10.203125 C 19.140625 -11.566406 18.726562 -12.675781 17.90625 -13.53125 C 17.09375 -14.382812 15.941406 -14.8125 14.453125 -14.8125 C 13.316406 -14.8125 12.457031 -14.625 11.875 -14.25 C 11.289062 -13.875 10.875 -13.519531 10.625 -13.1875 C 10.375 -12.863281 10.21875 -12.660156 10.15625 -12.578125 L 3.09375 -13.546875 L 4.390625 -30.78125 L 25.671875 -30.78125 L 25.671875 -23.171875 Z M 11.046875 -23.171875 "/></g></g></g><g fill="#eeba2b" fill-opacity="1"><g transform="translate(28.193804, 39.266544)"><g><path d="M 15.484375 -31.3125 C 17.898438 -31.3125 19.992188 -30.929688 21.765625 -30.171875 C 23.535156 -29.410156 24.90625 -28.328125 25.875 -26.921875 C 26.84375 -25.523438 27.328125 -23.898438 27.328125 -22.046875 C 27.328125 -20.316406 26.894531 -18.75 26.03125 -17.34375 C 25.164062 -15.945312 24.078125 -14.710938 22.765625 -13.640625 C 21.453125 -12.566406 19.648438 -11.253906 17.359375 -9.703125 C 16.078125 -8.867188 15.03125 -8.15625 14.21875 -7.5625 L 27.6875 -7.5625 L 27.6875 0 L 2.1875 0 L 2.1875 -2.140625 C 2.1875 -3.722656 2.550781 -5.132812 3.28125 -6.375 C 4.019531 -7.613281 5.085938 -8.859375 6.484375 -10.109375 C 7.921875 -11.359375 9.976562 -13.054688 12.65625 -15.203125 C 14.800781 -16.910156 16.304688 -18.207031 17.171875 -19.09375 C 18.035156 -19.988281 18.46875 -20.867188 18.46875 -21.734375 C 18.46875 -22.660156 18.144531 -23.4375 17.5 -24.0625 C 16.863281 -24.6875 15.90625 -25 14.625 -25 C 13.28125 -25 12.21875 -24.613281 11.4375 -23.84375 C 10.664062 -23.070312 10.28125 -22.054688 10.28125 -20.796875 L 10.28125 -19.90625 L 2.328125 -19.90625 C 2.296875 -20.144531 2.28125 -20.472656 2.28125 -20.890625 C 2.28125 -24.109375 3.40625 -26.648438 5.65625 -28.515625 C 7.90625 -30.378906 11.179688 -31.3125 15.484375 -31.3125 Z M 15.484375 -31.3125 "/></g></g></g></g></g></g></g></svg>